<svg width="182" height="63" viewBox="0 0 182 63" fill="none" xmlns="http://www.w3.org/2000/svg">
<path fill-rule="evenodd" clip-rule="evenodd" d="M77.6445 40.0484C76.9915 40.0484 76.3814 40.0581 75.7881 40.06C77.1713 40.2748 77.6445 40.0484 77.6445 40.0484Z" fill="#FBE0B8"/>
<path fill-rule="evenodd" clip-rule="evenodd" d="M131.24 21.6128C124.488 26.4918 119.407 29.9395 115.178 32.5084C111.257 30.3642 91.9887 20.1281 77.4508 17.8622C61.7679 15.4173 51.1664 17.7482 45.2951 22.8779C22.6449 9.48658 0 20.4602 0 20.4602C0 20.4602 24.0492 12.8556 46.4951 26.9127C66.6546 39.5384 70.5558 40.0805 75.7881 40.0602C72.7592 39.5903 65.3664 37.0063 49.0146 25.3C47.8329 24.4538 46.6478 23.6829 45.4628 22.9759C48.3871 21.3418 59.2705 16.2911 76.7284 19.9996C94.2383 23.7187 109.429 31.2593 113.608 33.4467C106.883 37.3802 102.26 39.0434 95.9675 40.9708C95.9675 40.9708 108.794 43.2746 129.865 26.4521C150.937 9.62914 166.97 10.3206 181.628 15.1599C181.628 15.1599 159.676 1.06347 131.24 21.6128Z" fill="#EBCCA6"/>
<path fill-rule="evenodd" clip-rule="evenodd" d="M116.763 0C116.763 0 123.397 0.868447 121.897 5.07491C121.897 5.07491 123.261 3.10915 124.942 3.33753C126.623 3.5664 129.441 4.43485 131.259 2.74354C131.259 2.74354 130.032 3.5664 126.896 2.65189C124.353 1.90952 122.857 2.66159 122.897 3.06357C122.897 3.06357 124.851 0 116.763 0Z" fill="#1A1919"/>
<path fill-rule="evenodd" clip-rule="evenodd" d="M114.345 19.2605C114.345 19.2605 113.972 17.8252 115.046 17.133C116.12 16.4403 118.736 15.4505 118.596 14.2136C118.596 14.2136 117.755 15.2527 115.42 15.4505C113.084 15.6484 113.131 17.133 113.131 17.133C113.131 17.133 110.702 16.391 109.254 17.2815C107.806 18.1721 106.218 18.4193 105.984 18.3699C105.984 18.3699 107.105 18.8648 108.553 18.2713C110.002 17.6772 113.131 17.4295 114.345 19.2605Z" fill="#1A1919"/>
<path fill-rule="evenodd" clip-rule="evenodd" d="M85.7968 10.8217C85.7968 10.8217 87.0659 12.2055 89.6042 11.6356C92.1429 11.0658 93.561 12.5312 93.561 12.5312C93.561 12.5312 92.8145 10.6583 95.6516 10.0078C98.4887 9.35678 98.4137 7.48438 98.4137 7.48438C98.4137 7.48438 97.294 8.94931 94.2335 9.27508C91.1721 9.60085 92.5162 10.6588 92.5162 10.6588C92.5162 10.6588 90.5001 9.92611 88.6338 10.6588C86.7676 11.3916 85.7968 10.8217 85.7968 10.8217Z" fill="#1A1919"/>
<path fill-rule="evenodd" clip-rule="evenodd" d="M101.778 25.9896C108.009 28.9234 112.974 31.7022 114.747 32.7188C117.534 30.9437 120.709 28.7503 124.489 25.9896H101.778Z" fill="#004A86"/>
<path fill-rule="evenodd" clip-rule="evenodd" d="M19.8027 57.5562L17.5187 51.9066L15.1755 57.5562H19.8027ZM20.0809 58.3195H14.8675L13.9538 60.5254C13.7285 61.0692 13.6159 61.474 13.6159 61.7427C13.6159 61.9555 13.7139 62.1426 13.9093 62.3038C14.1042 62.4659 14.5263 62.5705 15.1755 62.6187V62.9999H10.9349V62.6187C11.4975 62.516 11.8618 62.3814 12.0274 62.2168C12.3648 61.8867 12.7386 61.2166 13.1494 60.2065L17.8863 48.7004H18.2337L22.9205 60.3303C23.2976 61.2642 23.6407 61.8705 23.9482 62.1495C24.2563 62.4276 24.6845 62.5843 25.2343 62.6187V62.9999H19.9215V62.6187C20.4581 62.5907 20.8205 62.4983 21.0093 62.3401C21.1976 62.1819 21.2923 61.9898 21.2923 61.7629C21.2923 61.4602 21.1598 60.9827 20.8948 60.3303L20.0809 58.3195Z" fill="#1A1919"/>
<path fill-rule="evenodd" clip-rule="evenodd" d="M107.473 62.0275C108.273 62.2063 109.063 62.2952 109.842 62.2952C111.089 62.2952 112.041 62.0256 112.696 61.486C113.351 60.9473 113.678 60.2804 113.678 59.4868C113.678 58.9642 113.53 58.4615 113.234 57.9781C112.937 57.4952 112.455 57.114 111.786 56.8364C111.117 56.5583 110.289 56.4193 109.304 56.4193C108.876 56.4193 108.511 56.4259 108.207 56.4396C107.904 56.4524 107.659 56.4755 107.473 56.5091V62.0275ZM107.473 55.596C107.729 55.6423 108.02 55.6773 108.347 55.7C108.675 55.7232 109.035 55.735 109.428 55.735C110.434 55.735 111.191 55.6305 111.698 55.4224C112.205 55.2133 112.593 54.895 112.862 54.4647C113.13 54.0338 113.265 53.5646 113.265 53.0548C113.265 52.2678 112.93 51.5962 112.261 51.04C111.593 50.4843 110.617 50.2062 109.335 50.2062C108.645 50.2062 108.025 50.2795 107.473 50.4247V55.596ZM112.892 56.1317C113.864 56.3304 114.592 56.6482 115.075 57.0843C115.743 57.6939 116.078 58.4378 116.078 59.318C116.078 59.9858 115.857 60.6262 115.416 61.2387C114.975 61.8507 114.369 62.2971 113.601 62.5785C112.832 62.8595 111.658 62.9999 110.08 62.9999H103.461V62.6329H103.988C104.573 62.6329 104.995 62.4542 105.25 62.0966C105.409 61.8653 105.488 61.3725 105.488 60.6177V51.9229C105.488 51.0896 105.388 50.5637 105.188 50.3452C104.919 50.0543 104.519 49.9091 103.988 49.9091H103.461V49.5416H109.521C110.651 49.5416 111.558 49.6211 112.241 49.7795C113.275 50.0174 114.064 50.4398 114.61 51.0451C115.154 51.65 115.426 52.3467 115.426 53.1346C115.426 53.8095 115.213 54.413 114.785 54.9456C114.358 55.4786 113.727 55.874 112.892 56.1317Z" fill="#1A1919"/>
<mask id="mask0" mask-type="alpha" maskUnits="userSpaceOnUse" x="117" y="51" width="25" height="12">
<path fill-rule="evenodd" clip-rule="evenodd" d="M117.378 51.3855H141.024V62.9717H117.378V51.3855Z" fill="white"/>
</mask>
<g mask="url(#mask0)">
<path fill-rule="evenodd" clip-rule="evenodd" d="M127.196 59.5943L127.483 59.6527L126.477 62.7319H117.378V62.4225H117.82C118.317 62.4225 118.672 62.2665 118.886 61.9542C119.007 61.7757 119.068 61.3626 119.068 60.7154V53.394C119.068 52.6851 118.987 52.2423 118.825 52.0633C118.6 51.8174 118.264 51.6954 117.82 51.6954H117.378V51.3855H122.699V51.6954C122.075 51.6898 121.637 51.7458 121.386 51.8627C121.135 51.9795 120.963 52.1279 120.87 52.3059C120.778 52.4844 120.732 52.9117 120.732 53.5862V60.7154C120.732 61.1784 120.778 61.4969 120.87 61.6693C120.94 61.7866 121.046 61.8728 121.191 61.9288C121.335 61.9839 121.786 62.0127 122.543 62.0127H123.401C124.302 62.0127 124.935 61.9481 125.299 61.82C125.663 61.6919 125.995 61.4648 126.295 61.1379C126.596 60.8115 126.896 60.2966 127.196 59.5943Z" fill="#1A1919"/>
<path fill-rule="evenodd" clip-rule="evenodd" d="M136.864 51.6954V51.3855H141.024V51.6954H140.582C140.119 51.6954 139.764 51.882 139.516 52.256C139.395 52.4289 139.334 52.8302 139.334 53.4609V58.063C139.334 59.2005 139.216 60.0837 138.983 60.7107C138.749 61.3391 138.289 61.8775 137.605 62.3264C136.92 62.7753 135.988 63 134.81 63C133.527 63 132.554 62.7852 131.889 62.3551C131.225 61.926 130.754 61.349 130.477 60.6236C130.292 60.1266 130.199 59.1954 130.199 57.8289V53.394C130.199 52.6973 130.1 52.239 129.9 52.0214C129.701 51.8043 129.378 51.6954 128.933 51.6954H128.492V51.3855H133.57V51.6954H133.12C132.634 51.6954 132.287 51.8429 132.081 52.1387C131.936 52.3398 131.864 52.7581 131.864 53.394V58.339C131.864 58.7804 131.904 59.2844 131.989 59.8539C132.073 60.4224 132.224 60.8661 132.444 61.1846C132.663 61.502 132.979 61.7644 133.393 61.9707C133.806 62.177 134.313 62.2797 134.914 62.2797C135.682 62.2797 136.369 62.1182 136.977 61.795C137.583 61.4714 137.997 61.0579 138.22 60.5524C138.443 60.0475 138.553 59.1925 138.553 57.9881V53.394C138.553 52.6851 138.473 52.2423 138.311 52.0633C138.086 51.8174 137.751 51.6954 137.306 51.6954H136.864Z" fill="#1A1919"/>
</g>
<path fill-rule="evenodd" clip-rule="evenodd" d="M145.33 51.8664V56.4955H147.363C147.83 56.4955 148.171 56.3875 148.388 56.1699C148.605 55.9524 148.748 55.5227 148.82 54.8808H149.125V58.8666H148.82C148.814 58.4095 148.759 58.0731 148.652 57.8595C148.545 57.6454 148.396 57.484 148.207 57.377C148.017 57.2704 147.736 57.2161 147.363 57.2161H145.33V60.9159C145.33 61.5119 145.366 61.9059 145.437 62.0971C145.492 62.2413 145.607 62.3664 145.783 62.4701C146.024 62.6089 146.277 62.6788 146.54 62.6788H146.944V63H142.153V62.6788H142.548C143.009 62.6788 143.343 62.5371 143.552 62.2535C143.684 62.0682 143.75 61.6224 143.75 60.9159V53.3086C143.75 52.7121 143.714 52.3186 143.643 52.1274C143.588 51.9827 143.475 51.8576 143.305 51.7539C143.069 51.6151 142.817 51.5457 142.548 51.5457H142.153V51.224H150.458L150.565 53.8121H150.277C150.134 53.2621 149.968 52.8583 149.779 52.6007C149.59 52.343 149.357 52.1568 149.079 52.0399C148.803 51.9246 148.373 51.8664 147.791 51.8664H145.33Z" fill="#1A1919"/>
<mask id="mask1" mask-type="alpha" maskUnits="userSpaceOnUse" x="26" y="50" width="145" height="13">
<path fill-rule="evenodd" clip-rule="evenodd" d="M26.4102 50.7677H170.665V62.9709H26.4102V50.7677Z" fill="white"/>
</mask>
<g mask="url(#mask1)">
<path fill-rule="evenodd" clip-rule="evenodd" d="M155.156 51.6722V56.2673H157.271C157.757 56.2673 158.112 56.16 158.338 55.9441C158.563 55.7281 158.713 55.3016 158.788 54.6644H159.104V58.6209H158.788C158.781 58.1671 158.723 57.8333 158.612 57.6212C158.5 57.4086 158.346 57.2485 158.149 57.1422C157.952 57.0364 157.659 56.9826 157.271 56.9826H155.156V60.6551C155.156 61.2467 155.192 61.6378 155.266 61.8276C155.324 61.9707 155.443 62.0949 155.626 62.1978C155.878 62.3356 156.14 62.405 156.414 62.405H156.834V62.7239H151.848V62.405H152.259C152.74 62.405 153.087 62.2643 153.304 61.9829C153.442 61.7989 153.51 61.3564 153.51 60.6551V53.1038C153.51 52.5117 153.473 52.1211 153.399 51.9313C153.342 51.7877 153.225 51.6635 153.048 51.5606C152.802 51.4228 152.539 51.3539 152.259 51.3539H151.848V51.0345H160.492L160.603 53.6036H160.304C160.155 53.0577 159.982 52.6568 159.785 52.4011C159.589 52.1453 159.346 51.9605 159.057 51.8445C158.769 51.7299 158.322 51.6722 157.716 51.6722H155.156Z" fill="#1A1919"/>
<path fill-rule="evenodd" clip-rule="evenodd" d="M169.893 50.7677V54.8105H169.577C169.474 54.0346 169.289 53.4168 169.024 52.9568C168.759 52.4972 168.38 52.1323 167.889 51.862C167.397 51.5922 166.889 51.4573 166.364 51.4573C165.77 51.4573 165.279 51.6397 164.89 52.0047C164.502 52.3696 164.308 52.7845 164.308 53.2504C164.308 53.6066 164.431 53.9307 164.676 54.2243C165.03 54.6552 165.873 55.2303 167.204 55.948C168.288 56.5347 169.03 56.9846 169.427 57.2981C169.823 57.6111 170.129 57.9799 170.343 58.4055C170.557 58.8306 170.665 59.276 170.665 59.7414C170.665 60.6266 170.324 61.3889 169.641 62.03C168.959 62.671 168.08 62.9913 167.007 62.9913C166.67 62.9913 166.352 62.9656 166.056 62.9137C165.879 62.8845 165.512 62.7797 164.955 62.5992C164.398 62.4182 164.045 62.3275 163.897 62.3275C163.754 62.3275 163.641 62.3706 163.558 62.4565C163.476 62.5429 163.414 62.721 163.375 62.9913H163.057V58.9829H163.375C163.523 59.822 163.722 60.4494 163.974 60.8663C164.225 61.2831 164.609 61.6291 165.126 61.9053C165.643 62.1814 166.21 62.3187 166.827 62.3187C167.54 62.3187 168.104 62.1299 168.519 61.75C168.933 61.3705 169.14 60.9226 169.14 60.4053C169.14 60.1175 169.061 59.8273 168.904 59.5347C168.747 59.2411 168.503 58.9684 168.172 58.7155C167.949 58.5433 167.341 58.1769 166.347 57.6164C165.353 57.0564 164.646 56.6099 164.226 56.2761C163.807 55.9432 163.489 55.5753 163.272 55.1725C163.054 54.7707 162.946 54.3277 162.946 53.8443C162.946 53.0063 163.266 52.2837 163.905 51.6771C164.545 51.071 165.359 50.7677 166.347 50.7677C166.964 50.7677 167.618 50.9201 168.309 51.2243C168.628 51.368 168.854 51.4398 168.985 51.4398C169.134 51.4398 169.255 51.3956 169.349 51.3064C169.443 51.2171 169.52 51.038 169.577 50.7677H169.893Z" fill="#1A1919"/>
<path fill-rule="evenodd" clip-rule="evenodd" d="M29.717 56.7157C29.825 56.7157 29.9195 56.7171 29.9991 56.7196C30.0791 56.723 30.1447 56.7244 30.1963 56.7244C31.3041 56.7244 32.1398 56.4827 32.7021 55.9999C33.2644 55.5175 33.5461 54.9022 33.5461 54.1554C33.5461 53.4255 33.3189 52.832 32.8646 52.3749C32.4108 51.9187 31.8099 51.6897 31.0615 51.6897C30.7307 51.6897 30.2817 51.7445 29.717 51.8537V56.7157ZM37.9669 62.7239H34.8656L30.9328 57.2587C30.642 57.2703 30.4047 57.2762 30.2224 57.2762C30.1476 57.2762 30.0676 57.2747 29.9817 57.2718C29.8964 57.2684 29.8081 57.2645 29.717 57.2587V60.6551C29.717 61.3908 29.7966 61.8475 29.9562 62.026C30.1732 62.2789 30.4992 62.405 30.9328 62.405H31.3875V62.7239H26.4102V62.405H26.8466C27.3375 62.405 27.6891 62.2444 27.9003 61.9227C28.0204 61.7441 28.0802 61.3224 28.0802 60.6551V53.1038C28.0802 52.3681 28.0006 51.911 27.84 51.7329C27.6182 51.4795 27.2864 51.3539 26.8466 51.3539H26.4102V51.0345H30.642C31.876 51.0345 32.7851 51.1248 33.3706 51.3063C33.9555 51.4873 34.4527 51.8207 34.8607 52.306C35.2692 52.7912 35.4737 53.3711 35.4737 54.0433C35.4737 54.7615 35.2407 55.3855 34.7749 55.9135C34.3095 56.4425 33.589 56.8156 32.6125 57.0345L35.0112 60.3877C35.559 61.1584 36.0307 61.6694 36.4242 61.9227C36.8187 62.175 37.3323 62.3356 37.9669 62.405V62.7239Z" fill="#1A1919"/>
<path fill-rule="evenodd" clip-rule="evenodd" d="M48.9011 50.7677L49.1673 54.7416H48.9011C48.5476 53.5522 48.0417 52.6952 47.3849 52.1726C46.7281 51.6499 45.94 51.3884 45.0209 51.3884C44.2493 51.3884 43.5529 51.5854 42.9303 51.9789C42.3077 52.3725 41.8182 53 41.4613 53.8623C41.104 54.7246 40.926 55.7961 40.926 57.0773C40.926 58.1352 41.0939 59.0514 41.431 59.8273C41.7681 60.6033 42.2749 61.1982 42.9515 61.6117C43.6281 62.0261 44.4012 62.2328 45.2687 62.2328C46.023 62.2328 46.6885 62.0707 47.2648 61.7456C47.8416 61.421 48.4762 60.776 49.1673 59.8103L49.4321 59.9831C48.85 61.0225 48.17 61.7844 47.3931 62.2668C46.6167 62.7501 45.6951 62.9913 44.6264 62.9913C42.7017 62.9913 41.2115 62.2731 40.1544 60.8367C39.3664 59.7671 38.9724 58.5088 38.9724 57.0603C38.9724 55.8937 39.2319 54.8222 39.7522 53.8443C40.2716 52.868 40.9873 52.1109 41.8978 51.5737C42.8092 51.0361 43.8041 50.7677 44.8834 50.7677C45.723 50.7677 46.5511 50.9744 47.3675 51.3884C47.6077 51.5145 47.7789 51.5781 47.8821 51.5781C48.0359 51.5781 48.17 51.5228 48.2848 51.4146C48.4333 51.2588 48.5384 51.0433 48.6011 50.7677H48.9011Z" fill="#1A1919"/>
</g>
<path fill-rule="evenodd" clip-rule="evenodd" d="M59.1344 58.5166L57.119 53.8646L55.0507 58.5166H59.1344ZM59.3796 59.1457H54.7799L53.9729 60.9625C53.7746 61.4094 53.676 61.7435 53.676 61.9643C53.676 62.1397 53.7613 62.2946 53.934 62.4269C54.1061 62.5603 54.4785 62.6468 55.0507 62.686V63H51.3098V62.686C51.806 62.6009 52.1272 62.4905 52.2736 62.3553C52.5716 62.0833 52.9016 61.5312 53.2636 60.6991L57.443 51.224H57.7499L61.8859 60.8014C62.2188 61.5709 62.5212 62.0704 62.7925 62.2993C63.0638 62.5292 63.4421 62.6573 63.927 62.686V63H59.239V62.686C59.7125 62.6635 60.0322 62.5871 60.1989 62.4571C60.3656 62.3261 60.4485 62.1684 60.4485 61.981C60.4485 61.7325 60.3316 61.3391 60.0983 60.8014L59.3796 59.1457Z" fill="#1A1919"/>
<path fill-rule="evenodd" clip-rule="evenodd" d="M68.1044 62.1495C68.8338 62.3108 69.4463 62.3924 69.9408 62.3924C71.2739 62.3924 72.3803 61.9207 73.2597 60.9771C74.139 60.0331 74.5782 58.7537 74.5782 57.1385C74.5782 55.5115 74.139 54.2292 73.2597 53.291C72.3803 52.3534 71.2511 51.8841 69.8714 51.8841C69.3541 51.8841 68.7649 51.9681 68.1044 52.1363V62.1495ZM64.7681 63V62.6788H65.2078C65.7018 62.6788 66.0522 62.5195 66.2594 62.2012C66.3861 62.0101 66.4492 61.5818 66.4492 60.9159V53.3086C66.4492 52.5728 66.3691 52.1133 66.2075 51.9275C65.9843 51.6723 65.6504 51.5457 65.2078 51.5457H64.7681V51.224H69.5269C71.2739 51.224 72.6026 51.4244 73.514 51.8238C74.4249 52.2228 75.1577 52.8886 75.7124 53.8209C76.2671 54.7527 76.5442 55.8297 76.5442 57.0514C76.5442 58.6901 76.0501 60.0589 75.0611 61.1594C73.9517 62.3865 72.2624 63 69.9923 63H64.7681Z" fill="#1A1919"/>
<path fill-rule="evenodd" clip-rule="evenodd" d="M82.4322 62.6788V63H77.3853V62.6788H77.8019C78.2884 62.6788 78.6415 62.5371 78.8615 62.2535C79.0004 62.0682 79.0703 61.6224 79.0703 60.9159V53.3086C79.0703 52.7121 79.0327 52.3186 78.9574 52.1274C78.8987 51.9827 78.7809 51.8576 78.6009 51.7539C78.3461 51.6151 78.0801 51.5457 77.8019 51.5457H77.3853V51.224H82.4322V51.5457H82.0058C81.5256 51.5457 81.175 51.6875 80.9549 51.971C80.8107 52.1568 80.7378 52.6026 80.7378 53.3086V60.9159C80.7378 61.5119 80.7759 61.9059 80.8508 62.0971C80.9089 62.2413 81.0307 62.3664 81.2155 62.4701C81.4644 62.6089 81.7285 62.6788 82.0058 62.6788H82.4322Z" fill="#1A1919"/>
<path fill-rule="evenodd" clip-rule="evenodd" d="M91.9396 58.5166L89.9236 53.8646L87.8554 58.5166H91.9396ZM92.1842 59.1457H87.5841L86.7776 60.9625C86.5793 61.4094 86.4801 61.7435 86.4801 61.9643C86.4801 62.1397 86.566 62.2946 86.7386 62.4269C86.9107 62.5603 87.2832 62.6468 87.8553 62.686V63H84.1144V62.686C84.6107 62.6009 84.9318 62.4905 85.0783 62.3553C85.3762 62.0833 85.7062 61.5312 86.0683 60.6991L90.2477 51.224H90.5545L94.6905 60.8014C95.0234 61.5709 95.3258 62.0704 95.5976 62.2993C95.8684 62.5292 96.2472 62.6573 96.7316 62.686V63H92.0436V62.686C92.5172 62.6635 92.8368 62.5871 93.0035 62.4571C93.1703 62.3261 93.2531 62.1684 93.2531 61.981C93.2531 61.7325 93.1362 61.3391 92.9034 60.8014L92.1842 59.1457Z" fill="#1A1919"/>
</svg>
