<svg width="26" height="12" viewBox="0 0 26 12" fill="none" xmlns="http://www.w3.org/2000/svg">
<path id="Combined Shape" fill-rule="evenodd" clip-rule="evenodd" d="M8.12309 0.192389C7.86657 -0.0641296 7.45067 -0.0641296 7.19415 0.192389C6.93764 0.448907 6.93764 0.864806 7.19415 1.12132L12.0711 5.99824L7.19415 10.8751C6.93763 11.1317 6.93763 11.5476 7.19415 11.8041C7.45067 12.0606 7.86657 12.0606 8.12309 11.8041L13 6.92717L17.8769 11.8041C18.1334 12.0606 18.5493 12.0606 18.8058 11.8041C19.0624 11.5476 19.0624 11.1317 18.8058 10.8751L13.9289 5.99824L18.8058 1.12133C19.0624 0.864807 19.0624 0.448908 18.8058 0.19239C18.5493 -0.0641284 18.1334 -0.0641282 17.8769 0.19239L13 5.0693L8.12309 0.192389ZM1 6.99824C1.55228 6.99824 2 6.55052 2 5.99824C2 5.44595 1.55228 4.99824 1 4.99824C0.447715 4.99824 0 5.44595 0 5.99824C0 6.55052 0.447715 6.99824 1 6.99824ZM19 6.99824C19.5523 6.99824 20 6.55052 20 5.99824C20 5.44595 19.5523 4.99824 19 4.99824C18.4477 4.99824 18 5.44595 18 5.99824C18 6.55052 18.4477 6.99824 19 6.99824ZM26 5.99824C26 6.55052 25.5523 6.99824 25 6.99824C24.4477 6.99824 24 6.55052 24 5.99824C24 5.44595 24.4477 4.99824 25 4.99824C25.5523 4.99824 26 5.44595 26 5.99824ZM7 6.99824C7.55228 6.99824 8 6.55052 8 5.99824C8 5.44595 7.55228 4.99824 7 4.99824C6.44772 4.99824 6 5.44595 6 5.99824C6 6.55052 6.44772 6.99824 7 6.99824Z" fill="#663333"/>
</svg>
