<?xml version="1.0" encoding="UTF-8"?>
<svg width="26px" height="12px" viewBox="0 0 26 12" version="1.1" xmlns="http://www.w3.org/2000/svg" xmlns:xlink="http://www.w3.org/1999/xlink">
    <!-- Generator: Sketch 42 (36781) - http://www.bohemiancoding.com/sketch -->
    <title>Combined Shape</title>
    <desc>Created with Sketch.</desc>
    <defs></defs>
    <g id="2-News" stroke="none" stroke-width="1" fill="none" fill-rule="evenodd">
        <g id="News" transform="translate(-827.000000, -324.000000)" fill="#FFFFFF">
            <g id="Hero" transform="translate(0.000000, 130.000000)">
                <g id="Title" transform="translate(573.000000, 194.000000)">
                    <path d="M266.071065,6 L261.199259,1.12819478 C260.939921,0.868856398 260.935847,0.452460213 261.194153,0.194153369 C261.450672,-0.0623650753 261.860164,-0.0687716814 262.128195,0.19925932 L267,5.07106454 L271.871805,0.19925932 C272.131144,-0.0600790633 272.54754,-0.0641534748 272.805847,0.194153369 C273.062365,0.450671813 273.068772,0.86016378 272.800741,1.12819478 L267.928935,6 L272.800741,10.8718052 C273.060079,11.1311436 273.064153,11.5475398 272.805847,11.8058466 C272.549328,12.0623651 272.139836,12.0687717 271.871805,11.8007407 L267,6.92893546 L262.128195,11.8007407 C261.868856,12.0600791 261.45246,12.0641535 261.194153,11.8058466 C260.937635,11.5493282 260.931228,11.1398362 261.199259,10.8718052 L266.071065,6 Z M273,7 C272.447715,7 272,6.55228475 272,6 C272,5.44771525 272.447715,5 273,5 C273.552285,5 274,5.44771525 274,6 C274,6.55228475 273.552285,7 273,7 Z M255,7 C254.447715,7 254,6.55228475 254,6 C254,5.44771525 254.447715,5 255,5 C255.552285,5 256,5.44771525 256,6 C256,6.55228475 255.552285,7 255,7 Z M279,7 C278.447715,7 278,6.55228475 278,6 C278,5.44771525 278.447715,5 279,5 C279.552285,5 280,5.44771525 280,6 C280,6.55228475 279.552285,7 279,7 Z M261,7 C260.447715,7 260,6.55228475 260,6 C260,5.44771525 260.447715,5 261,5 C261.552285,5 262,5.44771525 262,6 C262,6.55228475 261.552285,7 261,7 Z" id="Combined-Shape"></path>
                </g>
            </g>
        </g>
    </g>
</svg>