<?xml version="1.0" encoding="UTF-8"?>
<svg width="26px" height="12px" viewBox="0 0 26 12" version="1.1" xmlns="http://www.w3.org/2000/svg" xmlns:xlink="http://www.w3.org/1999/xlink">
    <!-- Generator: Sketch 42 (36781) - http://www.bohemiancoding.com/sketch -->
    <title>Combined Shape</title>
    <desc>Created with Sketch.</desc>
    <defs></defs>
    <g id="1-Home" stroke="none" stroke-width="1" fill="none" fill-rule="evenodd">
        <g id="Home" transform="translate(-827.000000, -1074.000000)" fill="#CBCBC1">
            <g id="Welcome" transform="translate(503.000000, 992.000000)">
                <path d="M336.071065,88 L331.199259,83.1281948 C330.939921,82.8688564 330.935847,82.4524602 331.194153,82.1941534 C331.450672,81.9376349 331.860164,81.9312283 332.128195,82.1992593 L337,87.0710645 L341.871805,82.1992593 C342.131144,81.9399209 342.54754,81.9358465 342.805847,82.1941534 C343.062365,82.4506718 343.068772,82.8601638 342.800741,83.1281948 L337.928935,88 L342.800741,92.8718052 C343.060079,93.1311436 343.064153,93.5475398 342.805847,93.8058466 C342.549328,94.0623651 342.139836,94.0687717 341.871805,93.8007407 L337,88.9289355 L332.128195,93.8007407 C331.868856,94.0600791 331.45246,94.0641535 331.194153,93.8058466 C330.937635,93.5493282 330.931228,93.1398362 331.199259,92.8718052 L336.071065,88 Z M343,89 C342.447715,89 342,88.5522847 342,88 C342,87.4477153 342.447715,87 343,87 C343.552285,87 344,87.4477153 344,88 C344,88.5522847 343.552285,89 343,89 Z M325,89 C324.447715,89 324,88.5522847 324,88 C324,87.4477153 324.447715,87 325,87 C325.552285,87 326,87.4477153 326,88 C326,88.5522847 325.552285,89 325,89 Z M349,89 C348.447715,89 348,88.5522847 348,88 C348,87.4477153 348.447715,87 349,87 C349.552285,87 350,87.4477153 350,88 C350,88.5522847 349.552285,89 349,89 Z M331,89 C330.447715,89 330,88.5522847 330,88 C330,87.4477153 330.447715,87 331,87 C331.552285,87 332,87.4477153 332,88 C332,88.5522847 331.552285,89 331,89 Z" id="Combined-Shape"></path>
            </g>
        </g>
    </g>
</svg>