<?xml version="1.0" encoding="UTF-8"?>
<svg width="9px" height="8px" viewBox="0 0 9 8" version="1.1" xmlns="http://www.w3.org/2000/svg" xmlns:xlink="http://www.w3.org/1999/xlink">
    <!-- Generator: Sketch 42 (36781) - http://www.bohemiancoding.com/sketch -->
    <title>icon</title>
    <desc>Created with Sketch.</desc>
    <defs></defs>
    <g id="Symbols" stroke="none" stroke-width="1" fill="none" fill-rule="evenodd">
        <g id="External" fill="#777777">
            <g id="icon" transform="translate(0.562500, 0.000000)">
                <path d="M0,7.875 L0,0.246421875 L2.858625,0.246421875 L2.858625,1.19207812 L0.953859375,1.19207812 L0.953859375,6.92278125 L6.67996875,6.92278125 L6.67996875,5.01965625 L7.63120313,5.01965625 L7.63120313,7.875 L0,7.875" id="Fill-1"></path>
                <path d="M5.37895313,1.60125 C4.92351563,1.14646875 4.47792188,0.701203125 4.02346875,0.247078125 L7.630875,0.247078125 L7.630875,3.84529688 C7.18101563,3.39510938 6.73509375,2.94885938 6.29048438,2.50425 C5.60765625,3.18740625 4.93171875,3.86334375 4.26103125,4.53403125 C3.95226563,4.22526563 3.65334375,3.92634375 3.35376563,3.62676563 C4.0228125,2.95771875 4.69875,2.28178125 5.37895313,1.60125" id="Fill-4"></path>
            </g>
        </g>
    </g>
</svg>