<?xml version="1.0" encoding="UTF-8"?>
<svg width="16px" height="16px" viewBox="0 0 16 16" version="1.1" xmlns="http://www.w3.org/2000/svg" xmlns:xlink="http://www.w3.org/1999/xlink">
    <!-- Generator: Sketch 42 (36781) - http://www.bohemiancoding.com/sketch -->
    <title>Instagram-black</title>
    <desc>Created with Sketch.</desc>
    <defs></defs>
    <g id="Symbols" stroke="none" stroke-width="1" fill="none" fill-rule="evenodd">
        <g id="Instagram" transform="translate(-16.000000, -16.000000)" fill="#4D4D4D">
            <path d="M24.0000159,16 C26.1726696,16 26.4451047,16.0092093 27.2983898,16.0481422 C28.1498965,16.0869798 28.731445,16.2222288 29.240304,16.4200055 C29.7663747,16.6244192 30.2125155,16.8979658 30.6572907,17.3427093 C31.1020342,17.7874845 31.3755808,18.2336253 31.5800262,18.759696 C31.7777712,19.268555 31.9130202,19.8501035 31.9518578,20.7016102 C31.9907907,21.5548953 32,21.8273304 32,24.0000159 C32,26.1726696 31.9907907,26.4451047 31.9518578,27.2983898 C31.9130202,28.1498965 31.7777712,28.731445 31.5800262,29.240304 C31.3755808,29.7663747 31.1020342,30.2125155 30.6572907,30.6572907 C30.2125155,31.1020342 29.7663747,31.3755808 29.240304,31.5800262 C28.731445,31.7777712 28.1498965,31.9130202 27.2983898,31.9518578 C26.4451047,31.9907907 26.1726696,32 24.0000159,32 C21.8273304,32 21.5548953,31.9907907 20.7016102,31.9518578 C19.8501035,31.9130202 19.268555,31.7777712 18.759696,31.5800262 C18.2336253,31.3755808 17.7874845,31.1020342 17.3427093,30.6572907 C16.8979658,30.2125155 16.6244192,29.7663747 16.4200055,29.240304 C16.2222288,28.731445 16.0869798,28.1498965 16.0481422,27.2983898 C16.0092093,26.4451047 16,26.1726696 16,24.0000159 C16,21.8273304 16.0092093,21.5548953 16.0481422,20.7016102 C16.0869798,19.8501035 16.2222288,19.268555 16.4200055,18.759696 C16.6244192,18.2336253 16.8979658,17.7874845 17.3427093,17.3427093 C17.7874845,16.8979658 18.2336253,16.6244192 18.759696,16.4200055 C19.268555,16.2222288 19.8501035,16.0869798 20.7016102,16.0481422 C21.5548953,16.0092093 21.8273304,16 24.0000159,16 Z M24.0000159,17.4414389 C21.8639134,17.4414389 21.6108812,17.4496002 20.7673135,17.4880885 C19.9873214,17.5236553 19.5637274,17.6539821 19.281829,17.7635405 C18.9084096,17.9086656 18.6419128,18.0820219 18.3619832,18.3619832 C18.0820219,18.6419128 17.9086656,18.9084096 17.7635405,19.281829 C17.6539821,19.5637274 17.5236553,19.9873214 17.4880885,20.7673135 C17.4496002,21.6108812 17.4414389,21.8639134 17.4414389,24.0000159 C17.4414389,26.1360866 17.4496002,26.3891188 17.4880885,27.2326865 C17.5236553,28.0126786 17.6539821,28.4362726 17.7635405,28.718171 C17.9086656,29.0915904 18.0820537,29.3580872 18.3619832,29.6380168 C18.6419128,29.9179781 18.9084096,30.0913344 19.281829,30.2364595 C19.5637274,30.3460179 19.9873214,30.4763447 20.7673135,30.5119115 C21.6107859,30.5503998 21.8637546,30.5585611 24.0000159,30.5585611 C26.1362454,30.5585611 26.3892458,30.5503998 27.2326865,30.5119115 C28.0126786,30.4763447 28.4362726,30.3460179 28.718171,30.2364595 C29.0915904,30.0913344 29.3580872,29.9179781 29.6380168,29.6380168 C29.9179781,29.3580872 30.0913344,29.0915904 30.2364595,28.718171 C30.3460179,28.4362726 30.4763447,28.0126786 30.5119115,27.2326865 C30.5503998,26.3891188 30.5585611,26.1360866 30.5585611,24.0000159 C30.5585611,21.8639134 30.5503998,21.6108812 30.5119115,20.7673135 C30.4763447,19.9873214 30.3460179,19.5637274 30.2364595,19.281829 C30.0913344,18.9084096 29.9179781,18.6419128 29.6380168,18.3619832 C29.3580872,18.0820219 29.0915904,17.9086656 28.718171,17.7635405 C28.4362726,17.6539821 28.0126786,17.5236553 27.2326865,17.4880885 C26.3891188,17.4496002 26.1360866,17.4414389 24.0000159,17.4414389 Z M24.0000159,19.8918945 C26.2688586,19.8918945 28.1081055,21.7311414 28.1081055,24.0000159 C28.1081055,26.2688586 26.2688586,28.1081055 24.0000159,28.1081055 C21.7311414,28.1081055 19.8918945,26.2688586 19.8918945,24.0000159 C19.8918945,21.7311414 21.7311414,19.8918945 24.0000159,19.8918945 Z M24.0000159,26.6666667 C25.4727662,26.6666667 26.6666667,25.4727662 26.6666667,24.0000159 C26.6666667,22.5272338 25.4727662,21.3333333 24.0000159,21.3333333 C22.5272338,21.3333333 21.3333333,22.5272338 21.3333333,24.0000159 C21.3333333,25.4727662 22.5272338,26.6666667 24.0000159,26.6666667 Z M29.2304279,19.7295893 C29.2304279,20.2597883 28.8006097,20.6895747 28.2704107,20.6895747 C27.7402434,20.6895747 27.3104253,20.2597883 27.3104253,19.7295893 C27.3104253,19.1993903 27.7402434,18.7695721 28.2704107,18.7695721 C28.8006097,18.7695721 29.2304279,19.1993903 29.2304279,19.7295893 Z"></path>
        </g>
    </g>
</svg>