<svg xmlns="http://www.w3.org/2000/svg" xmlns:xlink="http://www.w3.org/1999/xlink" width="357" height="72" viewBox="0 0 357 72">
  <defs>
    <polygon id="logo-color-20-a" points=".06 .873 356.61 .873 356.61 42.208 .06 42.208"/>
    <polygon id="logo-color-20-c" points=".403 .98 1.403 .98 1.403 66.939 .403 66.939"/>
  </defs>
  <g fill="none" fill-rule="evenodd">
    <path fill="#BBAE92" d="M238.052 29.657C238.014 30.428 237.984 31.193 237.966 31.954 237.947 32.715 237.937 33.477 237.937 34.239 237.937 34.487 237.936 34.808 237.931 35.205 237.927 35.601 237.925 35.876 237.925 36.029 237.925 36.647 237.941 37.105 237.976 37.403 238.009 37.701 238.066 37.917 238.147 38.049 238.224 38.168 238.342 38.254 238.501 38.307 238.66 38.362 238.891 38.388 239.193 38.388L239.333 38.388 239.333 38.963C238.832 38.937 238.385 38.918 237.994 38.906 237.603 38.892 237.268 38.886 236.987 38.886 236.72 38.886 236.191 38.904 235.4 38.937 235.125 38.951 234.914 38.958 234.77 38.963L234.764 38.388C235.308 38.388 235.662 38.356 235.828 38.292 235.993 38.228 236.119 38.111 236.204 37.94 236.276 37.795 236.326 37.45 236.353 36.905 236.381 36.359 236.395 35.096 236.395 33.114 236.395 32.692 236.387 32.115 236.369 31.382 236.365 31.118 236.361 30.922 236.356 30.794L236.134 30.794C236.02 30.794 235.825 30.805 235.554 30.826 235.282 30.847 234.98 30.875 234.648 30.909L234.56 30.283C235.129 30.202 235.705 30.11 236.29 30.005 236.874 29.901 237.461 29.784 238.052 29.657M246.654 33.926C246.654 33.85 246.652 33.774 246.648 33.699 246.644 33.625 246.642 33.585 246.642 33.581 246.642 32.563 246.507 31.8 246.237 31.293 245.968 30.786 245.562 30.533 245.022 30.533 244.594 30.533 244.254 30.697 244.003 31.024 243.752 31.353 243.627 31.8 243.627 32.367 243.627 33.023 243.77 33.54 244.055 33.92 244.339 34.299 244.724 34.489 245.208 34.489 245.433 34.489 245.672 34.44 245.925 34.341 246.178 34.243 246.421 34.105 246.654 33.926zM246.616 34.694C246.246 34.983 245.898 35.193 245.571 35.323 245.244 35.453 244.904 35.518 244.552 35.518 243.821 35.518 243.221 35.267 242.751 34.767 242.281 34.266 242.048 33.624 242.048 32.84 242.048 31.936 242.342 31.182 242.933 30.577 243.523 29.972 244.265 29.669 245.157 29.669 246.138 29.669 246.916 30.027 247.489 30.743 248.062 31.459 248.35 32.433 248.35 33.664 248.35 35.232 247.906 36.54 247.018 37.588 246.13 38.637 245.053 39.161 243.786 39.161 243.337 39.161 242.979 39.078 242.716 38.911 242.453 38.745 242.321 38.522 242.321 38.241 242.321 38.066 242.377 37.917 242.487 37.796 242.598 37.675 242.732 37.614 242.895 37.614 243.014 37.614 243.241 37.694 243.576 37.851 243.912 38.008 244.203 38.087 244.449 38.087 245.1 38.087 245.616 37.787 246.001 37.189 246.386 36.591 246.591 35.758 246.616 34.694zM254.932 33.926C254.932 33.85 254.93 33.774 254.926 33.699 254.921 33.625 254.919 33.585 254.919 33.581 254.919 32.563 254.784 31.8 254.515 31.293 254.245 30.786 253.84 30.533 253.3 30.533 252.871 30.533 252.531 30.697 252.28 31.024 252.03 31.353 251.904 31.8 251.904 32.367 251.904 33.023 252.047 33.54 252.332 33.92 252.617 34.299 253.001 34.489 253.485 34.489 253.71 34.489 253.949 34.44 254.202 34.341 254.455 34.243 254.698 34.105 254.932 33.926zM254.894 34.694C254.523 34.983 254.176 35.193 253.849 35.323 253.521 35.453 253.182 35.518 252.829 35.518 252.099 35.518 251.498 35.267 251.028 34.767 250.559 34.266 250.325 33.624 250.325 32.84 250.325 31.936 250.62 31.182 251.21 30.577 251.801 29.972 252.542 29.669 253.435 29.669 254.415 29.669 255.193 30.027 255.767 30.743 256.341 31.459 256.627 32.433 256.627 33.664 256.627 35.232 256.184 36.54 255.295 37.588 254.407 38.637 253.33 39.161 252.064 39.161 251.614 39.161 251.257 39.078 250.993 38.911 250.73 38.745 250.599 38.522 250.599 38.241 250.599 38.066 250.654 37.917 250.765 37.796 250.875 37.675 251.011 37.614 251.172 37.614 251.291 37.614 251.519 37.694 251.853 37.851 252.189 38.008 252.48 38.087 252.728 38.087 253.377 38.087 253.895 37.787 254.278 37.189 254.663 36.591 254.868 35.758 254.894 34.694zM263.209 33.926C263.209 33.85 263.207 33.774 263.203 33.699 263.199 33.625 263.196 33.585 263.196 33.581 263.196 32.563 263.061 31.8 262.792 31.293 262.522 30.786 262.118 30.533 261.578 30.533 261.148 30.533 260.809 30.697 260.559 31.024 260.308 31.353 260.183 31.8 260.183 32.367 260.183 33.023 260.325 33.54 260.609 33.92 260.895 34.299 261.278 34.489 261.763 34.489 261.988 34.489 262.227 34.44 262.479 34.341 262.732 34.243 262.976 34.105 263.209 33.926zM263.171 34.694C262.801 34.983 262.453 35.193 262.126 35.323 261.799 35.453 261.459 35.518 261.106 35.518 260.376 35.518 259.775 35.267 259.306 34.767 258.837 34.266 258.603 33.624 258.603 32.84 258.603 31.936 258.897 31.182 259.487 30.577 260.078 29.972 260.819 29.669 261.712 29.669 262.693 29.669 263.471 30.027 264.044 30.743 264.618 31.459 264.904 32.433 264.904 33.664 264.904 35.232 264.461 36.54 263.572 37.588 262.685 38.637 261.607 39.161 260.342 39.161 259.892 39.161 259.534 39.078 259.271 38.911 259.008 38.745 258.876 38.522 258.876 38.241 258.876 38.066 258.932 37.917 259.042 37.796 259.152 37.675 259.288 37.614 259.449 37.614 259.568 37.614 259.796 37.694 260.131 37.851 260.467 38.008 260.758 38.087 261.005 38.087 261.654 38.087 262.172 37.787 262.556 37.189 262.941 36.591 263.145 35.758 263.171 34.694zM272.933 47.73C273.254 47.744 273.527 47.755 273.751 47.763 273.976 47.77 274.175 47.774 274.349 47.774 274.476 47.774 274.637 47.77 274.831 47.763 275.026 47.755 275.294 47.744 275.637 47.73L275.637 48.129C275.438 48.129 275.294 48.146 275.203 48.18 275.111 48.214 275.065 48.27 275.065 48.346 275.065 48.453 275.124 48.613 275.242 48.826 275.275 48.885 275.301 48.931 275.318 48.963L276.296 50.717 276.593 50.202C277.219 49.113 277.531 48.503 277.531 48.373 277.531 48.288 277.497 48.225 277.429 48.187 277.361 48.148 277.255 48.129 277.11 48.129L277.014 48.129 277.014 47.73C277.273 47.744 277.485 47.755 277.648 47.763 277.811 47.77 277.95 47.774 278.062 47.774 278.181 47.774 278.324 47.77 278.494 47.763 278.664 47.755 278.877 47.744 279.133 47.73L279.133 48.116C279.121 48.116 279.108 48.116 279.094 48.114 279.079 48.112 279.057 48.111 279.027 48.111 278.74 48.111 278.396 48.44 277.996 49.096 277.907 49.247 277.836 49.364 277.783 49.447L276.598 51.354 276.605 52.773C276.612 53.152 276.659 53.396 276.748 53.505 276.837 53.615 277.009 53.669 277.266 53.669 277.283 53.669 277.313 53.667 277.354 53.664 277.395 53.662 277.426 53.66 277.447 53.66L277.447 54.065C277.122 54.047 276.833 54.034 276.579 54.025 276.325 54.016 276.11 54.011 275.934 54.011 275.774 54.011 275.455 54.022 274.978 54.042 274.776 54.051 274.618 54.059 274.504 54.065L274.504 53.66C274.527 53.66 274.561 53.662 274.603 53.664 274.645 53.667 274.677 53.669 274.694 53.669 274.954 53.669 275.13 53.612 275.223 53.497 275.316 53.381 275.365 53.146 275.371 52.791L275.38 51.39 273.901 48.909C273.882 48.874 273.85 48.823 273.809 48.754 273.553 48.331 273.303 48.121 273.061 48.121 273.028 48.121 273.002 48.121 272.983 48.122 272.964 48.123 272.947 48.124 272.933 48.124L272.933 47.73M279.93 47.72C280.432 47.742 280.895 47.757 281.319 47.767 281.744 47.778 282.118 47.783 282.439 47.783 282.979 47.783 283.436 47.778 283.81 47.767 284.183 47.757 284.53 47.742 284.852 47.72 284.857 47.978 284.869 48.232 284.887 48.482 284.904 48.732 284.93 48.985 284.962 49.239L284.564 49.292C284.522 48.922 284.4 48.672 284.198 48.542 283.997 48.411 283.592 48.346 282.983 48.346 282.874 48.346 282.729 48.349 282.548 48.354 282.366 48.358 282.145 48.365 281.882 48.373 281.876 48.764 281.87 49.138 281.866 49.496 281.862 49.855 281.856 50.198 281.851 50.527L281.978 50.527C282.149 50.527 282.363 50.528 282.619 50.531 282.874 50.534 283.044 50.535 283.13 50.535 283.537 50.535 283.804 50.495 283.931 50.415 284.058 50.335 284.125 50.183 284.135 49.958L284.462 49.99C284.462 50.137 284.458 50.323 284.449 50.546 284.439 50.77 284.436 50.921 284.436 51.001 284.436 51.081 284.437 51.184 284.441 51.308 284.446 51.432 284.453 51.581 284.462 51.756L284.09 51.783 284.09 51.729C284.09 51.475 284.017 51.303 283.871 51.214 283.725 51.125 283.38 51.081 282.838 51.081L281.842 51.081 281.842 51.591C281.842 51.855 281.843 52.125 281.846 52.402 281.85 52.679 281.853 53.008 281.859 53.389 281.992 53.408 282.158 53.421 282.357 53.432 282.557 53.443 282.773 53.448 283.01 53.448 283.715 53.448 284.186 53.373 284.42 53.225 284.654 53.077 284.845 52.793 284.989 52.372L285.395 52.502C285.299 52.785 285.215 53.057 285.145 53.314 285.076 53.572 285.019 53.822 284.971 54.065 284.274 54.04 283.72 54.025 283.307 54.016 282.894 54.006 282.526 54.002 282.204 54.002 281.842 54.002 281.262 54.016 280.465 54.042 280.19 54.051 279.983 54.059 279.841 54.065L279.841 53.674C279.858 53.677 279.879 53.679 279.901 53.68 279.923 53.682 279.956 53.683 280 53.683 280.248 53.683 280.416 53.607 280.505 53.453 280.594 53.301 280.638 52.901 280.638 52.253L280.638 51.401 280.646 50.41C280.646 50.367 280.648 50.3 280.651 50.211 280.66 49.847 280.664 49.599 280.664 49.465 280.664 49.332 280.663 49.193 280.66 49.048 280.657 48.903 280.656 48.823 280.656 48.808 280.656 48.55 280.609 48.371 280.517 48.271 280.423 48.17 280.262 48.121 280.031 48.121L279.93 48.121 279.93 47.72M289.317 48.764L288.352 51.219C288.465 51.222 288.583 51.224 288.708 51.225 288.834 51.227 289.001 51.228 289.211 51.228 289.452 51.228 289.642 51.227 289.777 51.225 289.913 51.224 290.04 51.222 290.158 51.219L289.317 48.764zM289.074 47.699L290.153 47.699C290.578 48.948 290.983 50.095 291.368 51.141 291.754 52.188 292.022 52.883 292.177 53.23 292.241 53.387 292.323 53.498 292.422 53.565 292.52 53.632 292.653 53.664 292.818 53.664L292.916 53.664 292.916 54.065C292.541 54.047 292.253 54.035 292.053 54.029 291.853 54.023 291.684 54.02 291.548 54.02 291.418 54.02 291.25 54.023 291.044 54.029 290.837 54.035 290.537 54.047 290.145 54.065L290.145 53.664 290.225 53.664C290.457 53.664 290.615 53.638 290.697 53.585 290.781 53.532 290.822 53.437 290.822 53.301 290.822 53.259 290.816 53.21 290.807 53.155 290.796 53.098 290.774 53.02 290.742 52.919L290.379 51.844C290.211 51.842 289.99 51.838 289.715 51.834 289.441 51.83 289.27 51.827 289.202 51.827 289.075 51.827 288.82 51.831 288.436 51.84 288.298 51.843 288.189 51.844 288.113 51.844L288.096 51.889C287.807 52.596 287.662 53.043 287.662 53.23 287.662 53.384 287.706 53.496 287.792 53.563 287.88 53.631 288.023 53.664 288.225 53.664L288.304 53.664 288.304 54.065C287.967 54.047 287.706 54.035 287.52 54.029 287.335 54.023 287.181 54.02 287.06 54.02 286.959 54.02 286.827 54.023 286.664 54.029 286.5 54.035 286.262 54.047 285.949 54.065L285.949 53.664C286.161 53.664 286.331 53.627 286.458 53.554 286.585 53.48 286.692 53.356 286.781 53.181 286.907 52.95 287.194 52.305 287.64 51.245 288.085 50.186 288.563 49.003 289.074 47.699zM295.716 50.872C295.873 50.881 296.006 50.888 296.114 50.893 296.224 50.897 296.315 50.899 296.389 50.899 296.48 50.899 296.578 50.897 296.682 50.893 296.784 50.888 296.893 50.881 297.004 50.872 297.261 50.707 297.449 50.518 297.568 50.307 297.688 50.095 297.747 49.847 297.747 49.563 297.747 49.193 297.623 48.894 297.374 48.663 297.124 48.435 296.793 48.32 296.38 48.32 296.254 48.32 296.138 48.325 296.033 48.333 295.928 48.342 295.825 48.356 295.726 48.373 295.722 48.696 295.72 49.034 295.719 49.385 295.717 49.738 295.716 50.233 295.716 50.872zM293.733 53.674C293.757 53.677 293.78 53.679 293.803 53.68 293.824 53.682 293.859 53.683 293.905 53.683 294.148 53.683 294.311 53.603 294.395 53.444 294.479 53.284 294.521 52.86 294.521 52.173L294.521 51.374 294.539 50.38C294.542 50.169 294.544 49.961 294.546 49.754 294.547 49.547 294.548 49.298 294.548 49.008 294.548 48.635 294.503 48.394 294.413 48.284 294.323 48.175 294.153 48.121 293.905 48.121L293.812 48.121 293.812 47.73C294.129 47.744 294.39 47.755 294.597 47.763 294.803 47.77 294.983 47.774 295.137 47.774 295.354 47.774 295.626 47.767 295.951 47.752 296.275 47.738 296.494 47.73 296.605 47.73 297.337 47.73 297.914 47.882 298.337 48.187 298.759 48.492 298.97 48.907 298.97 49.43 298.97 49.779 298.864 50.087 298.653 50.353 298.442 50.619 298.126 50.847 297.703 51.036L298.571 52.262C298.984 52.908 299.286 53.313 299.477 53.478 299.666 53.645 299.87 53.727 300.085 53.727 300.097 53.727 300.113 53.726 300.136 53.723 300.157 53.72 300.175 53.718 300.186 53.718L300.186 54.091C300.007 54.106 299.85 54.117 299.718 54.124 299.585 54.131 299.468 54.136 299.368 54.136 299.008 54.136 298.726 54.095 298.522 54.016 298.319 53.936 298.136 53.798 297.974 53.603 297.897 53.511 297.708 53.216 297.407 52.717 297.106 52.218 296.842 51.791 296.615 51.437 296.432 51.442 296.27 51.447 296.128 51.45 295.986 51.452 295.849 51.453 295.716 51.453L295.716 52.635C295.716 53.087 295.76 53.372 295.849 53.49 295.937 53.607 296.111 53.664 296.372 53.664L296.495 53.664 296.495 54.065C296.254 54.05 296.011 54.038 295.77 54.031 295.527 54.024 295.279 54.02 295.025 54.02 294.943 54.02 294.821 54.023 294.66 54.027 294.5 54.031 294.19 54.043 293.733 54.065L293.733 53.674zM305.29 47.92L305.29 48.018C305.29 48.234 305.303 48.455 305.328 48.682 305.353 48.909 305.39 49.141 305.44 49.38L304.979 49.456C304.93 49.072 304.787 48.782 304.553 48.586 304.318 48.391 303.996 48.293 303.586 48.293 303.205 48.293 302.907 48.368 302.692 48.52 302.476 48.67 302.368 48.879 302.368 49.146 302.368 49.324 302.413 49.477 302.501 49.605 302.59 49.734 302.727 49.847 302.913 49.945 303.058 50.022 303.308 50.119 303.663 50.238 304.019 50.356 304.282 50.45 304.453 50.518 304.84 50.677 305.13 50.886 305.323 51.144 305.517 51.401 305.612 51.706 305.612 52.063 305.612 52.707 305.367 53.222 304.873 53.608 304.381 53.992 303.713 54.185 302.869 54.185 302.592 54.185 302.311 54.157 302.028 54.102 301.744 54.047 301.469 53.968 301.2 53.865 301.2 53.832 301.201 53.788 301.204 53.734 301.208 53.679 301.209 53.638 301.209 53.612 301.209 53.384 301.195 53.151 301.167 52.915 301.139 52.678 301.096 52.434 301.036 52.182L301.519 52.063C301.631 52.607 301.811 52.987 302.061 53.202 302.311 53.419 302.682 53.527 303.174 53.527 303.572 53.527 303.887 53.439 304.117 53.261 304.348 53.083 304.462 52.845 304.462 52.546 304.462 52.119 304.057 51.763 303.245 51.476 303.065 51.414 302.928 51.366 302.833 51.33 302.272 51.119 301.871 50.875 301.627 50.597 301.384 50.319 301.263 49.971 301.263 49.554 301.263 48.98 301.483 48.517 301.926 48.164 302.368 47.813 302.954 47.637 303.684 47.637 303.937 47.637 304.194 47.659 304.456 47.705 304.717 47.751 304.995 47.823 305.29 47.92M316.785 37.499C317.177 37.503 317.602 37.509 318.063 37.515 318.524 37.521 318.786 37.525 318.85 37.525L319.041 37.525C319.811 37.525 320.299 37.456 320.507 37.32 320.715 37.184 320.866 36.92 320.96 36.528L321.52 36.688C321.38 37.076 321.262 37.458 321.166 37.838 321.07 38.217 320.998 38.592 320.947 38.963 320.19 38.929 319.564 38.906 319.07 38.892 318.575 38.88 318.128 38.873 317.728 38.873 317.354 38.873 316.946 38.88 316.502 38.892 316.058 38.906 315.518 38.929 314.881 38.963L314.632 38.388C316 37.284 317.051 36.233 317.786 35.234 318.52 34.234 318.889 33.357 318.889 32.603 318.889 32.075 318.741 31.654 318.445 31.341 318.149 31.028 317.754 30.871 317.257 30.871 316.926 30.871 316.609 30.979 316.308 31.193 316.006 31.409 315.717 31.734 315.44 32.168L314.791 31.765C315.173 31.067 315.618 30.543 316.126 30.194 316.634 29.844 317.201 29.669 317.83 29.669 318.591 29.669 319.242 29.93 319.783 30.452 320.325 30.974 320.597 31.599 320.597 32.328 320.597 33.027 320.331 33.747 319.8 34.489 319.269 35.23 318.264 36.234 316.785 37.499M326.395 30.494C325.843 30.494 325.433 30.788 325.165 31.376 324.897 31.964 324.764 32.869 324.764 34.093 324.764 35.503 324.914 36.565 325.216 37.279 325.518 37.992 325.968 38.349 326.567 38.349 327.123 38.349 327.536 38.052 327.806 37.458 328.076 36.863 328.211 35.955 328.211 34.731 328.211 33.338 328.059 32.284 327.752 31.568 327.446 30.852 326.994 30.494 326.395 30.494zM326.522 29.657C327.567 29.657 328.388 30.059 328.985 30.864 329.582 31.67 329.881 32.783 329.881 34.201 329.881 35.709 329.558 36.918 328.912 37.826 328.267 38.733 327.41 39.187 326.344 39.187 325.346 39.187 324.548 38.777 323.951 37.956 323.354 37.136 323.056 36.032 323.056 34.642 323.056 33.172 323.382 31.973 324.034 31.047 324.686 30.12 325.516 29.657 326.522 29.657zM335.769 29.657C335.729 30.428 335.701 31.193 335.683 31.954 335.663 32.715 335.653 33.477 335.653 34.239 335.653 34.487 335.651 34.808 335.647 35.205 335.644 35.601 335.642 35.876 335.642 36.029 335.642 36.647 335.658 37.105 335.692 37.403 335.726 37.701 335.783 37.917 335.864 38.049 335.94 38.168 336.059 38.254 336.218 38.307 336.377 38.362 336.607 38.388 336.909 38.388L337.049 38.388 337.049 38.963C336.548 38.937 336.102 38.918 335.711 38.906 335.32 38.892 334.984 38.886 334.704 38.886 334.436 38.886 333.907 38.904 333.117 38.937 332.841 38.951 332.631 38.958 332.486 38.963L332.48 38.388C333.023 38.388 333.379 38.356 333.544 38.292 333.71 38.228 333.836 38.111 333.92 37.94 333.993 37.795 334.042 37.45 334.07 36.905 334.098 36.359 334.111 35.096 334.111 33.114 334.111 32.692 334.103 32.115 334.086 31.382 334.082 31.118 334.077 30.922 334.073 30.794L333.851 30.794C333.735 30.794 333.542 30.805 333.27 30.826 332.998 30.847 332.696 30.875 332.365 30.909L332.276 30.283C332.846 30.202 333.422 30.11 334.006 30.005 334.59 29.901 335.178 29.784 335.769 29.657M344.371 33.926C344.371 33.85 344.369 33.774 344.364 33.699 344.36 33.625 344.358 33.585 344.358 33.581 344.358 32.563 344.224 31.8 343.954 31.293 343.684 30.786 343.279 30.533 342.739 30.533 342.311 30.533 341.971 30.697 341.72 31.024 341.469 31.353 341.344 31.8 341.344 32.367 341.344 33.023 341.486 33.54 341.77 33.92 342.056 34.299 342.44 34.489 342.925 34.489 343.149 34.489 343.389 34.44 343.642 34.341 343.895 34.243 344.138 34.105 344.371 33.926zM344.332 34.694C343.963 34.983 343.614 35.193 343.288 35.323 342.961 35.453 342.62 35.518 342.269 35.518 341.537 35.518 340.937 35.267 340.468 34.767 339.998 34.266 339.764 33.624 339.764 32.84 339.764 31.936 340.059 31.182 340.649 30.577 341.239 29.972 341.981 29.669 342.873 29.669 343.854 29.669 344.632 30.027 345.206 30.743 345.779 31.459 346.066 32.433 346.066 33.664 346.066 35.232 345.622 36.54 344.734 37.588 343.846 38.637 342.77 39.161 341.503 39.161 341.053 39.161 340.696 39.078 340.433 38.911 340.169 38.745 340.038 38.522 340.038 38.241 340.038 38.066 340.093 37.917 340.203 37.796 340.313 37.675 340.449 37.614 340.61 37.614 340.73 37.614 340.957 37.694 341.293 37.851 341.628 38.008 341.92 38.087 342.166 38.087 342.816 38.087 343.333 37.787 343.718 37.189 344.103 36.591 344.308 35.758 344.332 34.694zM277.365 40.04C278.276 40.05 279.269 40.063 280.344 40.077 281.418 40.092 282.029 40.1 282.178 40.1L282.624 40.1C284.416 40.1 285.555 39.941 286.04 39.623 286.525 39.305 286.877 38.69 287.095 37.776L288.402 38.148C288.075 39.052 287.801 39.946 287.578 40.83 287.355 41.714 287.184 42.588 287.065 43.452 285.302 43.372 283.844 43.318 282.69 43.288 281.536 43.258 280.494 43.243 279.563 43.243 278.691 43.243 277.738 43.258 276.704 43.288 275.669 43.318 274.409 43.372 272.924 43.452L272.345 42.112C275.532 39.538 277.984 37.088 279.697 34.758 281.411 32.429 282.268 30.386 282.268 28.627 282.268 27.395 281.923 26.414 281.234 25.684 280.546 24.954 279.623 24.589 278.464 24.589 277.691 24.589 276.954 24.84 276.251 25.342 275.548 25.844 274.874 26.601 274.23 27.614L272.715 26.675C273.606 25.046 274.644 23.825 275.827 23.01 277.011 22.196 278.335 21.788 279.802 21.788 281.573 21.788 283.092 22.396 284.354 23.614 285.617 24.83 286.248 26.288 286.248 27.987 286.248 29.616 285.629 31.294 284.392 33.022 283.153 34.75 280.811 37.09 277.365 40.04M298.333 23.71C297.046 23.71 296.09 24.396 295.466 25.766 294.842 27.137 294.53 29.248 294.53 32.098 294.53 35.387 294.882 37.863 295.585 39.526 296.288 41.19 297.338 42.022 298.733 42.022 300.031 42.022 300.994 41.328 301.623 39.943 302.252 38.557 302.566 36.439 302.566 33.589 302.566 30.341 302.21 27.882 301.497 26.213 300.784 24.544 299.729 23.71 298.333 23.71zM298.631 21.759C301.066 21.759 302.98 22.697 304.371 24.575 305.763 26.452 306.459 29.044 306.459 32.352 306.459 35.868 305.706 38.685 304.201 40.8 302.695 42.915 300.699 43.973 298.214 43.973 295.887 43.973 294.027 43.018 292.637 41.106 291.244 39.194 290.549 36.618 290.549 33.38 290.549 29.953 291.309 27.159 292.829 24.999 294.35 22.839 296.283 21.759 298.631 21.759z"/>
    <polyline fill="#BBAE92" points="230.433 36.635 224.076 36.635 225.554 34.365 224.076 32.096 230.439 32.096 230.433 36.635"/>
    <mask id="logo-color-20-b" fill="#fff">
      <use xlink:href="#logo-color-20-a"/>
    </mask>
    <polyline fill="#BBAE92" points="350.254 32.096 356.61 32.096 355.133 34.365 356.61 36.635 350.248 36.635 350.254 32.096" mask="url(#logo-color-20-b)"/>
    <path fill="#BBAE92" d="M132.875,22.621 C126.039,27.531 120.895,31 116.613,33.586 C112.643,31.428 93.135,21.128 78.416,18.847 C62.538,16.387 51.804,18.733 45.86,23.894 C22.927,10.42 0,21.462 0,21.462 C0,21.462 24.349,13.809 47.075,27.955 C67.485,40.659 71.435,41.205 76.732,41.185 C73.666,40.712 66.181,38.112 49.625,26.332 C48.429,25.48 47.229,24.704 46.029,23.993 C48.99,22.349 60.009,17.267 77.685,20.998 C95.413,24.741 110.792,32.329 115.023,34.53 C108.214,38.488 103.534,40.161 97.164,42.101 C97.164,42.101 110.15,44.419 131.484,27.491 C152.818,10.563 169.051,11.259 183.892,16.128 C183.892,16.128 161.665,1.944 132.875,22.621" mask="url(#logo-color-20-b)"/>
    <path fill="#002347" d="M118.218,0.873 C118.218,0.873 124.935,1.747 123.416,5.98 C123.416,5.98 124.797,4.002 126.499,4.232 C128.201,4.462 131.054,5.336 132.895,3.634 C132.895,3.634 131.652,4.462 128.478,3.542 C125.902,2.795 124.389,3.552 124.429,3.956 C124.429,3.956 126.407,0.873 118.218,0.873" mask="url(#logo-color-20-b)"/>
    <path fill="#002347" d="M115.422 20.544C115.422 20.544 115.054 19.209 116.112 18.565 117.17 17.921 119.747 17.001 119.608 15.851 119.608 15.851 118.78 16.817 116.48 17.001 114.18 17.185 114.226 18.565 114.226 18.565 114.226 18.565 111.833 17.875 110.407 18.703 108.981 19.532 107.416 19.762 107.186 19.716 107.186 19.716 108.291 20.176 109.717 19.623 111.143 19.072 114.226 18.842 115.422 20.544M86.398 11.763C86.398 11.763 87.712 13.077 90.34 12.536 92.969 11.995 94.437 13.387 94.437 13.387 94.437 13.387 93.664 11.608 96.601 10.99 99.539 10.372 99.461 8.594 99.461 8.594 99.461 8.594 98.302 9.985 95.133 10.294 91.964 10.604 93.355 11.609 93.355 11.609 93.355 11.609 91.268 10.913 89.335 11.609 87.403 12.304 86.398 11.763 86.398 11.763M103.267 27.023C109.679 29.884 114.789 32.594 116.613 33.586 119.481 31.854 122.748 29.715 126.64 27.023L103.267 27.023M19.908 59.023L17.553 53.41 15.136 59.023 19.908 59.023zM20.194 59.781L14.818 59.781 13.876 61.971C13.644 62.511 13.528 62.913 13.528 63.18 13.528 63.392 13.629 63.577 13.83 63.738 14.032 63.899 14.467 64.003 15.136 64.05L15.136 64.429 10.764 64.429 10.764 64.05C11.344 63.948 11.719 63.815 11.89 63.651 12.238 63.323 12.623 62.658 13.047 61.655L17.932 50.227 18.289 50.227 23.123 61.777C23.512 62.705 23.865 63.308 24.183 63.584 24.5 63.861 24.942 64.016 25.509 64.05L25.509 64.429 20.03 64.429 20.03 64.05C20.583 64.023 20.958 63.931 21.152 63.774 21.346 63.617 21.444 63.426 21.444 63.201 21.444 62.9 21.307 62.425 21.034 61.777L20.194 59.781zM108.548 63.426C109.34 63.61 110.122 63.701 110.893 63.701 112.129 63.701 113.071 63.424 113.719 62.867 114.368 62.312 114.692 61.623 114.692 60.804 114.692 60.265 114.545 59.747 114.251 59.248 113.958 58.749 113.48 58.357 112.818 58.071 112.156 57.784 111.337 57.64 110.361 57.64 109.937 57.64 109.576 57.647 109.275 57.66 108.975 57.674 108.732 57.699 108.548 57.732L108.548 63.426zM108.548 56.79C108.801 56.838 109.089 56.874 109.414 56.898 109.738 56.921 110.095 56.934 110.483 56.934 111.48 56.934 112.229 56.826 112.731 56.612 113.233 56.396 113.617 56.067 113.883 55.623 114.149 55.179 114.282 54.695 114.282 54.169 114.282 53.357 113.951 52.663 113.289 52.09 112.627 51.517 111.661 51.23 110.392 51.23 109.709 51.23 109.094 51.305 108.548 51.455L108.548 56.79zM113.914 57.343C114.876 57.548 115.597 57.875 116.074 58.326 116.737 58.955 117.068 59.722 117.068 60.63 117.068 61.32 116.849 61.98 116.413 62.612 115.976 63.242 115.376 63.703 114.615 63.994 113.854 64.285 112.692 64.429 111.128 64.429L104.575 64.429 104.575 64.05 105.098 64.05C105.677 64.05 106.094 63.866 106.346 63.497 106.504 63.258 106.582 62.75 106.582 61.971L106.582 53.001C106.582 52.141 106.483 51.599 106.285 51.373 106.019 51.074 105.623 50.923 105.098 50.923L104.575 50.923 104.575 50.544 110.576 50.544C111.695 50.544 112.593 50.626 113.269 50.789 114.293 51.035 115.074 51.471 115.614 52.095 116.153 52.72 116.422 53.438 116.422 54.251 116.422 54.948 116.211 55.57 115.788 56.119 115.364 56.669 114.74 57.076 113.914 57.343zM128.847 61.179L129.133 61.24 128.128 64.429 119.027 64.429 119.027 64.108 119.469 64.108C119.966 64.108 120.321 63.947 120.535 63.623 120.656 63.439 120.717 63.011 120.717 62.34L120.717 54.756C120.717 54.022 120.636 53.563 120.474 53.377 120.249 53.123 119.914 52.997 119.469 52.997L119.027 52.997 119.027 52.676 124.349 52.676 124.349 52.997C123.725 52.991 123.287 53.048 123.036 53.17 122.785 53.29 122.612 53.445 122.52 53.629 122.428 53.814 122.382 54.256 122.382 54.955L122.382 62.34C122.382 62.82 122.428 63.15 122.52 63.328 122.589 63.45 122.696 63.539 122.841 63.597 122.985 63.655 123.436 63.684 124.193 63.684L125.051 63.684C125.952 63.684 126.585 63.617 126.949 63.485 127.313 63.352 127.645 63.117 127.946 62.778 128.247 62.44 128.547 61.907 128.847 61.179M138.516 52.997L138.516 52.676 142.676 52.676 142.676 52.997 142.234 52.997C141.771 52.997 141.416 53.19 141.168 53.577 141.047 53.756 140.986 54.172 140.986 54.826L140.986 59.593C140.986 60.771 140.869 61.686 140.635 62.335 140.401 62.986 139.941 63.543 139.257 64.009 138.572 64.474 137.64 64.706 136.461 64.706 135.178 64.706 134.205 64.484 133.54 64.038 132.876 63.594 132.405 62.996 132.127 62.244 131.943 61.731 131.85 60.766 131.85 59.35L131.85 54.756C131.85 54.034 131.75 53.56 131.551 53.334 131.352 53.11 131.029 52.997 130.584 52.997L130.143 52.997 130.143 52.676 135.222 52.676 135.222 52.997 134.771 52.997C134.286 52.997 133.939 53.15 133.731 53.455 133.586 53.663 133.515 54.097 133.515 54.756L133.515 59.878C133.515 60.335 133.556 60.858 133.64 61.448 133.724 62.036 133.875 62.496 134.095 62.826 134.314 63.155 134.631 63.426 135.044 63.641 135.457 63.854 135.964 63.96 136.565 63.96 137.334 63.96 138.021 63.793 138.628 63.458 139.235 63.123 139.65 62.695 139.872 62.171 140.095 61.649 140.206 60.762 140.206 59.515L140.206 54.756C140.206 54.022 140.125 53.563 139.963 53.377 139.738 53.123 139.402 52.997 138.958 52.997L138.516 52.997M147.031 53.317L147.031 57.937 149.172 57.937C149.663 57.937 150.023 57.829 150.251 57.612 150.479 57.395 150.63 56.966 150.706 56.326L151.027 56.326 151.027 60.303 150.706 60.303C150.7 59.847 150.641 59.511 150.528 59.298 150.415 59.084 150.26 58.924 150.06 58.817 149.861 58.71 149.564 58.657 149.172 58.657L147.031 58.657 147.031 62.349C147.031 62.944 147.068 63.337 147.144 63.528 147.201 63.672 147.323 63.796 147.508 63.9 147.762 64.038 148.028 64.108 148.305 64.108L148.73 64.108 148.73 64.429 143.686 64.429 143.686 64.108 144.101 64.108C144.587 64.108 144.939 63.967 145.159 63.684 145.297 63.499 145.367 63.054 145.367 62.349L145.367 54.756C145.367 54.16 145.329 53.768 145.254 53.577 145.197 53.433 145.078 53.308 144.899 53.205 144.65 53.066 144.385 52.997 144.101 52.997L143.686 52.997 143.686 52.676 152.431 52.676 152.543 55.259 152.24 55.259C152.09 54.71 151.915 54.307 151.716 54.049 151.517 53.792 151.271 53.607 150.979 53.491 150.687 53.375 150.235 53.317 149.623 53.317L147.031 53.317M157.436 53.317L157.436 57.937 159.577 57.937C160.068 57.937 160.428 57.829 160.656 57.612 160.884 57.395 161.036 56.966 161.111 56.326L161.432 56.326 161.432 60.303 161.111 60.303C161.105 59.847 161.046 59.511 160.934 59.298 160.821 59.084 160.665 58.924 160.465 58.817 160.266 58.71 159.969 58.657 159.577 58.657L157.436 58.657 157.436 62.349C157.436 62.944 157.474 63.337 157.548 63.528 157.606 63.672 157.728 63.796 157.913 63.9 158.167 64.038 158.433 64.108 158.71 64.108L159.135 64.108 159.135 64.429 154.09 64.429 154.09 64.108 154.506 64.108C154.992 64.108 155.344 63.967 155.563 63.684 155.702 63.499 155.771 63.054 155.771 62.349L155.771 54.756C155.771 54.16 155.734 53.768 155.659 53.577 155.602 53.433 155.483 53.308 155.304 53.205 155.055 53.066 154.79 52.997 154.506 52.997L154.09 52.997 154.09 52.676 162.835 52.676 162.948 55.259 162.645 55.259C162.495 54.71 162.32 54.307 162.121 54.049 161.921 53.792 161.676 53.607 161.384 53.491 161.092 53.375 160.64 53.317 160.027 53.317L157.436 53.317M172.348 52.407L172.348 56.472 172.028 56.472C171.924 55.692 171.737 55.071 171.469 54.609 171.2 54.146 170.817 53.78 170.32 53.508 169.823 53.236 169.309 53.101 168.777 53.101 168.176 53.101 167.679 53.284 167.286 53.651 166.893 54.018 166.697 54.435 166.697 54.904 166.697 55.262 166.821 55.588 167.069 55.883 167.428 56.317 168.28 56.894 169.626 57.616 170.724 58.205 171.474 58.659 171.875 58.973 172.277 59.288 172.587 59.659 172.803 60.086 173.02 60.514 173.128 60.962 173.128 61.43 173.128 62.321 172.783 63.087 172.092 63.731 171.402 64.375 170.513 64.698 169.427 64.698 169.086 64.698 168.765 64.672 168.465 64.619 168.286 64.59 167.915 64.485 167.352 64.304 166.788 64.121 166.431 64.031 166.281 64.031 166.136 64.031 166.022 64.074 165.938 64.16 165.854 64.247 165.792 64.426 165.752 64.698L165.432 64.698 165.432 60.667 165.752 60.667C165.902 61.511 166.104 62.142 166.359 62.561 166.613 62.98 167.001 63.328 167.524 63.606 168.047 63.883 168.621 64.022 169.245 64.022 169.968 64.022 170.538 63.831 170.957 63.45 171.376 63.068 171.585 62.618 171.585 62.097 171.585 61.809 171.506 61.517 171.347 61.222 171.188 60.927 170.941 60.653 170.606 60.399 170.38 60.225 169.766 59.857 168.76 59.293 167.754 58.73 167.04 58.282 166.614 57.946 166.19 57.611 165.868 57.242 165.648 56.836 165.428 56.432 165.319 55.987 165.319 55.501 165.319 54.658 165.643 53.931 166.29 53.322 166.936 52.711 167.76 52.407 168.76 52.407 169.384 52.407 170.045 52.56 170.745 52.867 171.068 53.011 171.296 53.083 171.429 53.083 171.58 53.083 171.702 53.038 171.797 52.949 171.893 52.859 171.97 52.679 172.028 52.407L172.348 52.407M30.521 58.388C30.63 58.388 30.726 58.389 30.806 58.392 30.887 58.395 30.954 58.397 31.006 58.397 32.126 58.397 32.972 58.154 33.541 57.668 34.11 57.183 34.395 56.565 34.395 55.814 34.395 55.08 34.165 54.483 33.706 54.024 33.246 53.565 32.638 53.334 31.881 53.334 31.546 53.334 31.093 53.39 30.521 53.499L30.521 58.388zM38.868 64.429L35.73 64.429 31.751 58.934C31.457 58.946 31.217 58.951 31.032 58.951 30.956 58.951 30.875 58.95 30.789 58.947 30.702 58.944 30.613 58.94 30.521 58.934L30.521 62.349C30.521 63.089 30.601 63.548 30.763 63.727 30.982 63.982 31.312 64.108 31.751 64.108L32.211 64.108 32.211 64.429 27.175 64.429 27.175 64.108 27.617 64.108C28.114 64.108 28.469 63.947 28.683 63.623 28.804 63.444 28.865 63.02 28.865 62.349L28.865 54.756C28.865 54.017 28.784 53.557 28.622 53.377 28.397 53.123 28.061 52.997 27.617 52.997L27.175 52.997 27.175 52.676 31.457 52.676C32.705 52.676 33.625 52.767 34.218 52.949 34.809 53.131 35.312 53.466 35.725 53.955 36.138 54.443 36.345 55.025 36.345 55.701 36.345 56.423 36.109 57.05 35.639 57.581 35.167 58.113 34.438 58.489 33.45 58.708L35.877 62.08C36.432 62.855 36.909 63.368 37.307 63.623 37.706 63.877 38.226 64.038 38.868 64.108L38.868 64.429zM49.931 52.407L50.2 56.403 49.931 56.403C49.573 55.207 49.061 54.346 48.396 53.82 47.732 53.294 46.935 53.032 46.005 53.032 45.224 53.032 44.52 53.23 43.89 53.625 43.26 54.021 42.765 54.652 42.404 55.519 42.042 56.386 41.862 57.463 41.862 58.751 41.862 59.815 42.032 60.737 42.373 61.517 42.714 62.297 43.227 62.895 43.912 63.311 44.596 63.727 45.378 63.935 46.256 63.935 47.019 63.935 47.692 63.772 48.275 63.445 48.859 63.118 49.501 62.47 50.2 61.499L50.468 61.673C49.879 62.718 49.191 63.485 48.405 63.969 47.62 64.455 46.687 64.698 45.606 64.698 43.659 64.698 42.151 63.975 41.081 62.531 40.284 61.456 39.885 60.191 39.885 58.734 39.885 57.561 40.148 56.484 40.674 55.501 41.2 54.519 41.924 53.758 42.845 53.217 43.767 52.677 44.774 52.407 45.866 52.407 46.715 52.407 47.553 52.615 48.379 53.032 48.622 53.159 48.796 53.222 48.9 53.222 49.056 53.222 49.191 53.166 49.308 53.057 49.457 52.902 49.564 52.684 49.627 52.407L49.931 52.407M59.496 59.852L57.501 55.103 55.456 59.852 59.496 59.852zM59.738 60.494L55.187 60.494 54.39 62.349C54.194 62.805 54.096 63.146 54.096 63.371 54.096 63.551 54.18 63.708 54.351 63.844 54.521 63.98 54.89 64.068 55.456 64.108L55.456 64.429 51.755 64.429 51.755 64.108C52.246 64.022 52.564 63.909 52.709 63.771 53.003 63.493 53.33 62.929 53.688 62.08L57.822 52.407 58.126 52.407 62.217 62.184C62.546 62.97 62.845 63.48 63.114 63.714 63.382 63.948 63.757 64.08 64.236 64.108L64.236 64.429 59.599 64.429 59.599 64.108C60.067 64.085 60.384 64.007 60.548 63.874 60.713 63.742 60.795 63.579 60.795 63.389 60.795 63.135 60.68 62.733 60.449 62.184L59.738 60.494zM68.626 63.579C69.359 63.742 69.976 63.823 70.472 63.823 71.812 63.823 72.926 63.352 73.809 62.41 74.693 61.467 75.135 60.191 75.135 58.579 75.135 56.954 74.693 55.674 73.809 54.739 72.926 53.802 71.79 53.334 70.403 53.334 69.883 53.334 69.29 53.418 68.626 53.585L68.626 63.579zM65.272 64.429L65.272 64.108 65.713 64.108C66.21 64.108 66.563 63.95 66.771 63.632 66.898 63.441 66.962 63.013 66.962 62.349L66.962 54.756C66.962 54.022 66.881 53.563 66.719 53.377 66.494 53.123 66.159 52.997 65.713 52.997L65.272 52.997 65.272 52.676 70.056 52.676C71.812 52.676 73.149 52.875 74.065 53.274 74.981 53.672 75.718 54.337 76.275 55.268 76.833 56.198 77.112 57.273 77.112 58.492 77.112 60.127 76.615 61.493 75.621 62.592 74.505 63.817 72.807 64.429 70.524 64.429L65.272 64.429zM83.798 64.108L83.798 64.429 78.763 64.429 78.763 64.108 79.178 64.108C79.664 64.108 80.016 63.967 80.236 63.684 80.374 63.499 80.444 63.054 80.444 62.349L80.444 54.756C80.444 54.16 80.406 53.768 80.331 53.577 80.273 53.433 80.155 53.308 79.976 53.205 79.721 53.066 79.455 52.997 79.178 52.997L78.763 52.997 78.763 52.676 83.798 52.676 83.798 52.997 83.373 52.997C82.893 52.997 82.544 53.138 82.325 53.421 82.18 53.607 82.108 54.051 82.108 54.756L82.108 62.349C82.108 62.944 82.146 63.337 82.22 63.528 82.278 63.672 82.4 63.796 82.584 63.9 82.833 64.038 83.096 64.108 83.373 64.108L83.798 64.108M92.644 59.852L90.649 55.103 88.604 59.852 92.644 59.852zM92.886 60.494L88.335 60.494 87.538 62.349C87.342 62.805 87.244 63.146 87.244 63.371 87.244 63.551 87.328 63.708 87.499 63.844 87.669 63.98 88.038 64.068 88.604 64.108L88.604 64.429 84.903 64.429 84.903 64.108C85.394 64.022 85.712 63.909 85.856 63.771 86.151 63.493 86.477 62.929 86.836 62.08L90.97 52.407 91.274 52.407 95.365 62.184C95.694 62.97 95.993 63.48 96.262 63.714 96.53 63.948 96.905 64.08 97.384 64.108L97.384 64.429 92.747 64.429 92.747 64.108C93.215 64.085 93.531 64.007 93.696 63.874 93.861 63.742 93.943 63.579 93.943 63.389 93.943 63.135 93.828 62.733 93.597 62.184L92.886 60.494z"/>
    <g transform="translate(203 5)">
      <mask id="logo-color-20-d" fill="#fff">
        <use xlink:href="#logo-color-20-c"/>
      </mask>
      <path stroke="#BBAE92" stroke-width=".45" d="M0.903,0.98 L0.903,67" mask="url(#logo-color-20-d)"/>
    </g>
  </g>
</svg>
