<svg xmlns="http://www.w3.org/2000/svg" xmlns:xlink="http://www.w3.org/1999/xlink" width="377" height="131" viewBox="0 0 377 131">
  <defs>
    <polygon id="logo-color-a" points=".941 .343 49.408 .343 49.408 24.94 .941 24.94"/>
    <polygon id="logo-color-c" points=".694 .793 299.819 .793 299.819 25.94 .694 25.94"/>
  </defs>
  <g fill="none" fill-rule="evenodd">
    <path fill="#FBE0B8" d="M161.112,82.769 C159.757,82.769 158.491,82.789 157.26,82.793 C160.13,83.236 161.112,82.769 161.112,82.769"/>
    <path fill="#EBCCA6" d="M272.322,44.749 C258.311,54.811 247.768,61.921 238.993,67.219 C230.857,62.797 190.876,41.687 160.71,37.014 C128.168,31.972 106.17,36.779 93.987,47.358 C46.988,19.741 0,42.372 0,42.372 C0,42.372 49.902,26.689 96.477,55.679 C138.308,81.717 146.403,82.835 157.26,82.793 C150.975,81.824 135.635,76.495 101.705,52.353 C99.253,50.608 96.794,49.018 94.335,47.56 C100.403,44.19 122.986,33.774 159.211,41.422 C195.544,49.092 227.064,64.643 235.735,69.154 C221.781,77.266 212.189,80.696 199.132,84.671 C199.132,84.671 225.746,89.422 269.47,54.729 C313.194,20.035 346.461,21.461 376.878,31.441 C376.878,31.441 331.326,2.37 272.322,44.749"/>
    <path fill="#1A1919" d="M242.282.177C242.282.177 256.048 1.968 252.936 10.643 252.936 10.643 255.766 6.589 259.254 7.06 262.743 7.532 268.589 9.323 272.361 5.835 272.361 5.835 269.815 7.532 263.309 5.646 258.031 4.115 254.928 5.666 255.011 6.495 255.011 6.495 259.065.177 242.282.177M236.551 40.49C236.551 40.49 235.797 37.755 237.966 36.436 240.134 35.116 245.414 33.23 245.132 30.873 245.132 30.873 243.435 32.853 238.72 33.23 234.006 33.607 234.1 36.436 234.1 36.436 234.1 36.436 229.197 35.022 226.274 36.719 223.351 38.416 220.145 38.887 219.673 38.793 219.673 38.793 221.936 39.736 224.859 38.605 227.783 37.473 234.1 37.001 236.551 40.49M177.069 22.495C177.069 22.495 179.762 25.188 185.148 24.079 190.535 22.97 193.544 25.822 193.544 25.822 193.544 25.822 191.96 22.177 197.98 20.911 204 19.644 203.841 16 203.841 16 203.841 16 201.465 18.851 194.971 19.485 188.475 20.119 191.327 22.178 191.327 22.178 191.327 22.178 187.049 20.752 183.089 22.178 179.129 23.604 177.069 22.495 177.069 22.495"/>
    <path fill="#004A86" d="M211.641,53.769 C224.783,59.633 235.254,65.187 238.993,67.219 C244.871,63.671 251.567,59.287 259.541,53.769 L211.641,53.769"/>
    <path fill="#1A1919" d="M40.8 119.35L35.973 107.85 31.021 119.35 40.8 119.35zM41.388 120.904L30.37 120.904 28.439 125.394C27.963 126.501 27.725 127.325 27.725 127.872 27.725 128.305 27.932 128.686 28.345 129.014 28.757 129.344 29.649 129.557 31.021 129.655L31.021 130.431 22.059 130.431 22.059 129.655C23.248 129.446 24.018 129.172 24.368 128.837 25.081 128.165 25.871 126.801 26.739 124.745L36.75 101.324 37.484 101.324 47.389 124.997C48.186 126.898 48.911 128.132 49.561 128.7 50.212 129.266 51.117 129.585 52.279 129.655L52.279 130.431 41.051 130.431 41.051 129.655C42.185 129.598 42.951 129.41 43.35 129.088 43.748 128.766 43.948 128.375 43.948 127.913 43.948 127.297 43.668 126.325 43.108 124.997L41.388 120.904zM222.464 128.375C224.087 128.753 225.69 128.941 227.27 128.941 229.802 128.941 231.733 128.371 233.062 127.23 234.391 126.091 235.056 124.681 235.056 123.003 235.056 121.898 234.755 120.835 234.154 119.813 233.552 118.792 232.573 117.986 231.215 117.399 229.859 116.811 228.179 116.517 226.179 116.517 225.311 116.517 224.57 116.531 223.954 116.56 223.339 116.587 222.841 116.636 222.464 116.707L222.464 128.375zM222.464 114.776C222.983 114.874 223.573 114.948 224.238 114.996 224.902 115.045 225.633 115.07 226.431 115.07 228.473 115.07 230.009 114.849 231.037 114.409 232.066 113.967 232.853 113.294 233.399 112.384 233.944 111.473 234.216 110.481 234.216 109.403 234.216 107.739 233.538 106.319 232.18 105.143 230.824 103.968 228.844 103.38 226.242 103.38 224.843 103.38 223.584 103.535 222.464 103.842L222.464 114.776zM233.461 115.909C235.433 116.329 236.91 117.001 237.889 117.923 239.246 119.212 239.925 120.785 239.925 122.646 239.925 124.058 239.476 125.412 238.582 126.707 237.687 128.001 236.458 128.945 234.899 129.54 233.338 130.134 230.956 130.431 227.753 130.431L214.322 130.431 214.322 129.655 215.392 129.655C216.58 129.655 217.435 129.277 217.952 128.521 218.275 128.032 218.435 126.99 218.435 125.394L218.435 107.01C218.435 105.248 218.232 104.136 217.827 103.674 217.281 103.059 216.47 102.752 215.392 102.752L214.322 102.752 214.322 101.975 226.619 101.975C228.913 101.975 230.754 102.143 232.139 102.478 234.238 102.981 235.839 103.874 236.946 105.154 238.05 106.433 238.603 107.906 238.603 109.572 238.603 110.999 238.169 112.275 237.301 113.401 236.434 114.528 235.154 115.364 233.461 115.909z"/>
    <g transform="translate(243 106)">
      <mask id="logo-color-b" fill="#fff">
        <use xlink:href="#logo-color-a"/>
      </mask>
      <path fill="#1A1919" d="M21.066 17.77L21.653 17.894 19.592 24.431.941 24.431.941 23.774 1.846 23.774C2.865 23.774 3.593 23.443 4.031 22.78 4.28 22.401 4.404 21.524 4.404 20.15L4.404 4.607C4.404 3.102 4.239 2.162 3.907 1.782 3.446 1.26 2.757 1.001 1.846 1.001L.941 1.001.941.343 11.848.343 11.848 1.001C10.568.989 9.671 1.108 9.156 1.356 8.641 1.604 8.288 1.919 8.098 2.297 7.91 2.676 7.816 3.583 7.816 5.015L7.816 20.15C7.816 21.133 7.91 21.809 8.098 22.175 8.241 22.424 8.459 22.607 8.756 22.726 9.051 22.843 9.976 22.904 11.528 22.904L13.286 22.904C15.133 22.904 16.431 22.767 17.176 22.495 17.922 22.223 18.604 21.741 19.219 21.047 19.835 20.354 20.451 19.261 21.066 17.77M40.881 1.001L40.881.343 49.408.343 49.408 1.001 48.502 1.001C47.554 1.001 46.827 1.397 46.318 2.191 46.069 2.558 45.945 3.41 45.945 4.749L45.945 14.519C45.945 16.934 45.703 18.809 45.225 20.14 44.745 21.474 43.803 22.617 42.4 23.57 40.996 24.523 39.087 25 36.671 25 34.041 25 32.047 24.544 30.685 23.631 29.324 22.72 28.358 21.495 27.789 19.955 27.411 18.9 27.22 16.923 27.22 14.022L27.22 4.607C27.22 3.128 27.017 2.155 26.608 1.693 26.199 1.232 25.538 1.001 24.626 1.001L23.721 1.001 23.721.343 34.13.343 34.13 1.001 33.207 1.001C32.212 1.001 31.501 1.314 31.077 1.942 30.78 2.369 30.632 3.257 30.632 4.607L30.632 15.105C30.632 16.042 30.716 17.112 30.889 18.321 31.061 19.528 31.371 20.47 31.822 21.146 32.271 21.82 32.919 22.377 33.767 22.815 34.614 23.253 35.653 23.471 36.884 23.471 38.459 23.471 39.868 23.128 41.113 22.442 42.355 21.755 43.205 20.877 43.661 19.804 44.118 18.732 44.344 16.917 44.344 14.36L44.344 4.607C44.344 3.102 44.179 2.162 43.848 1.782 43.386 1.26 42.699 1.001 41.787 1.001L40.881 1.001" mask="url(#logo-color-b)"/>
    </g>
    <path fill="#1A1919" d="M301.333,107.657 L301.333,117.126 L305.721,117.126 C306.728,117.126 307.464,116.905 307.932,116.46 C308.4,116.015 308.71,115.136 308.865,113.823 L309.523,113.823 L309.523,121.976 L308.865,121.976 C308.852,121.041 308.732,120.353 308.501,119.916 C308.27,119.478 307.95,119.148 307.541,118.929 C307.132,118.711 306.525,118.6 305.721,118.6 L301.333,118.6 L301.333,126.168 C301.333,127.387 301.411,128.193 301.563,128.584 C301.682,128.879 301.931,129.135 302.31,129.347 C302.83,129.631 303.376,129.774 303.944,129.774 L304.815,129.774 L304.815,130.431 L294.477,130.431 L294.477,129.774 L295.328,129.774 C296.324,129.774 297.045,129.484 297.495,128.904 C297.78,128.525 297.922,127.613 297.922,126.168 L297.922,110.607 C297.922,109.387 297.845,108.582 297.691,108.191 C297.574,107.895 297.33,107.639 296.963,107.427 C296.453,107.143 295.91,107.001 295.328,107.001 L294.477,107.001 L294.477,106.343 L312.399,106.343 L312.63,111.637 L312.009,111.637 C311.701,110.512 311.342,109.686 310.935,109.159 C310.526,108.632 310.023,108.251 309.424,108.012 C308.827,107.776 307.9,107.657 306.644,107.657 L301.333,107.657"/>
    <g transform="translate(55 105)">
      <mask id="logo-color-d" fill="#fff">
        <use xlink:href="#logo-color-c"/>
      </mask>
      <path fill="#1A1919" d="M267.659 2.657L267.659 12.126 272.046 12.126C273.052 12.126 273.789 11.905 274.257 11.46 274.724 11.015 275.035 10.136 275.19 8.823L275.847 8.823 275.847 16.976 275.19 16.976C275.177 16.041 275.057 15.353 274.826 14.916 274.594 14.478 274.275 14.148 273.866 13.929 273.457 13.711 272.85 13.6 272.046 13.6L267.659 13.6 267.659 21.168C267.659 22.387 267.735 23.193 267.888 23.584 268.007 23.879 268.255 24.135 268.634 24.347 269.156 24.631 269.701 24.774 270.268 24.774L271.139 24.774 271.139 25.431 260.801 25.431 260.801 24.774 261.653 24.774C262.649 24.774 263.37 24.484 263.82 23.904 264.105 23.525 264.246 22.613 264.246 21.168L264.246 5.607C264.246 4.387 264.17 3.582 264.016 3.191 263.898 2.895 263.655 2.639 263.288 2.427 262.779 2.143 262.234 2.001 261.653 2.001L260.801 2.001 260.801 1.343 278.724 1.343 278.954 6.637 278.334 6.637C278.025 5.512 277.667 4.686 277.259 4.159 276.851 3.632 276.347 3.251 275.748 3.012 275.151 2.776 274.224 2.657 272.969 2.657L267.659 2.657M298.219.793L298.219 9.124 297.563 9.124C297.349 7.525 296.966 6.252 296.417 5.304 295.866 4.357 295.081 3.605 294.063 3.048 293.043 2.492 291.99 2.214 290.901 2.214 289.669 2.214 288.651 2.59 287.845 3.342 287.039 4.094 286.638 4.949 286.638 5.909 286.638 6.643 286.892 7.311 287.401 7.916 288.135 8.804 289.882 9.989 292.642 11.468 294.891 12.677 296.428 13.604 297.251 14.25 298.074 14.895 298.708 15.655 299.152 16.532 299.596 17.408 299.819 18.326 299.819 19.285 299.819 21.109 299.111 22.68 297.696 24.001 296.281 25.322 294.459 25.982 292.233 25.982 291.535 25.982 290.876 25.929 290.261 25.822 289.894 25.762 289.133 25.546 287.979 25.174 286.824 24.801 286.092 24.614 285.785 24.614 285.488 24.614 285.254 24.703 285.083 24.88 284.911 25.058 284.784 25.425 284.702 25.982L284.044 25.982 284.044 17.722 284.702 17.722C285.009 19.451 285.423 20.744 285.945 21.603 286.465 22.462 287.261 23.175 288.333 23.744 289.406 24.313 290.581 24.596 291.86 24.596 293.34 24.596 294.509 24.207 295.369 23.424 296.227 22.642 296.657 21.719 296.657 20.653 296.657 20.06 296.494 19.462 296.168 18.859 295.841 18.254 295.335 17.692 294.649 17.171 294.187 16.816 292.926 16.061 290.866 14.906 288.805 13.752 287.339 12.832 286.468 12.144 285.599 11.458 284.938 10.7 284.489 9.87 284.037 9.042 283.813 8.129 283.813 7.133 283.813 5.406 284.476 3.917 285.802 2.667 287.128 1.418 288.816.793 290.866.793 292.144.793 293.5 1.107 294.933 1.734 295.596 2.03 296.064 2.178 296.336 2.178 296.644 2.178 296.896 2.087 297.091 1.903 297.286 1.719 297.444 1.35 297.563.793L298.219.793M7.551 13.05C7.775 13.05 7.971 13.053 8.136 13.058 8.302 13.065 8.438 13.068 8.545 13.068 10.842 13.068 12.575 12.57 13.741 11.575 14.907 10.581 15.491 9.313 15.491 7.774 15.491 6.27 15.02 5.047 14.078 4.105 13.137 3.165 11.891 2.693 10.339 2.693 9.653 2.693 8.722 2.806 7.551 3.031L7.551 13.05zM24.658 25.431L18.227 25.431 10.072 14.169C9.469 14.193 8.977 14.205 8.599 14.205 8.444 14.205 8.278 14.202 8.1 14.196 7.923 14.189 7.74 14.181 7.551 14.169L7.551 21.168C7.551 22.684 7.716 23.625 8.047 23.993 8.497 24.514 9.173 24.774 10.072 24.774L11.015 24.774 11.015 25.431.694 25.431.694 24.774 1.599 24.774C2.617 24.774 3.346 24.443 3.784 23.78 4.033 23.412 4.157 22.543 4.157 21.168L4.157 5.607C4.157 4.091 3.992 3.149 3.659 2.782 3.199 2.26 2.511 2.001 1.599 2.001L.694 2.001.694 1.343 9.469 1.343C12.028 1.343 13.913 1.529 15.127 1.903 16.34 2.276 17.371 2.963 18.217 3.963 19.064 4.963 19.488 6.158 19.488 7.543 19.488 9.023 19.005 10.309 18.039 11.397 17.074 12.487 15.58 13.256 13.555 13.707L18.529 20.617C19.665 22.205 20.643 23.258 21.459 23.78 22.277 24.3 23.342 24.631 24.658 24.774L24.658 25.431zM47.331.793L47.883 8.982 47.331 8.982C46.598 6.531 45.549 4.765 44.187 3.688 42.825 2.611 41.191 2.072 39.285 2.072 37.685 2.072 36.241 2.478 34.95 3.289 33.659 4.1 32.644 5.393 31.904 7.17 31.163 8.947 30.794 11.155 30.794 13.795 30.794 15.975 31.142 17.863 31.841 19.462 32.54 21.061 33.591 22.287 34.994 23.139 36.397 23.993 38 24.419 39.799 24.419 41.363 24.419 42.743 24.085 43.938 23.415 45.134 22.746 46.45 21.417 47.883 19.427L48.432 19.783C47.225 21.925 45.815 23.495 44.204 24.489 42.594 25.485 40.683 25.982 38.467 25.982 34.476 25.982 31.386 24.502 29.194 21.542 27.56 19.338 26.743 16.745 26.743 13.76 26.743 11.356 27.281 9.148 28.36 7.133 29.437 5.121 30.921 3.561 32.809 2.454 34.699 1.346 36.762.793 39 .793 40.741.793 42.458 1.219 44.151 2.072 44.649 2.332 45.004 2.463 45.218 2.463 45.537 2.463 45.815 2.349 46.053 2.126 46.361 1.805 46.579 1.361 46.709.793L47.331.793" mask="url(#logo-color-d)"/>
    </g>
    <path fill="#1A1919" d="M121.933 121.051L117.847 111.318 113.654 121.051 121.933 121.051zM122.43 122.367L113.105 122.367 111.469 126.168C111.067 127.103 110.867 127.802 110.867 128.264 110.867 128.631 111.04 128.955 111.39 129.232 111.739 129.511 112.494 129.692 113.654 129.774L113.654 130.431 106.07 130.431 106.07 129.774C107.076 129.596 107.727 129.365 108.024 129.082 108.628 128.513 109.297 127.358 110.031 125.617L118.504 105.793 119.126 105.793 127.511 125.831C128.186 127.441 128.799 128.486 129.349 128.965 129.899 129.446 130.666 129.714 131.649 129.774L131.649 130.431 122.145 130.431 122.145 129.774C123.105 129.727 123.753 129.567 124.091 129.295 124.429 129.021 124.597 128.691 124.597 128.299 124.597 127.779 124.36 126.956 123.887 125.831L122.43 122.367zM140.646 128.691C142.149 129.021 143.411 129.188 144.43 129.188 147.177 129.188 149.457 128.223 151.269 126.293 153.081 124.362 153.986 121.745 153.986 118.441 153.986 115.113 153.081 112.49 151.269 110.571 149.457 108.653 147.13 107.693 144.287 107.693 143.221 107.693 142.007 107.865 140.646 108.209L140.646 128.691zM133.771 130.431L133.771 129.774 134.677 129.774C135.695 129.774 136.417 129.448 136.844 128.797 137.105 128.406 137.235 127.53 137.235 126.168L137.235 110.607C137.235 109.102 137.07 108.162 136.737 107.782 136.277 107.26 135.589 107.001 134.677 107.001L133.771 107.001 133.771 106.343 143.577 106.343C147.177 106.343 149.915 106.753 151.793 107.57 153.67 108.386 155.18 109.748 156.323 111.655 157.466 113.561 158.037 115.764 158.037 118.263 158.037 121.615 157.019 124.415 154.981 126.666 152.695 129.176 149.214 130.431 144.536 130.431L133.771 130.431zM171.741 129.774L171.741 130.431 161.42 130.431 161.42 129.774 162.272 129.774C163.267 129.774 163.989 129.484 164.439 128.904 164.723 128.525 164.866 127.613 164.866 126.168L164.866 110.607C164.866 109.387 164.789 108.582 164.635 108.191 164.515 107.895 164.274 107.639 163.906 107.427 163.385 107.143 162.841 107.001 162.272 107.001L161.42 107.001 161.42 106.343 171.741 106.343 171.741 107.001 170.869 107.001C169.887 107.001 169.17 107.291 168.72 107.871 168.425 108.251 168.276 109.163 168.276 110.607L168.276 126.168C168.276 127.387 168.354 128.193 168.507 128.584 168.626 128.879 168.875 129.135 169.253 129.347 169.762 129.631 170.302 129.774 170.869 129.774L171.741 129.774M189.869 121.051L185.782 111.318 181.589 121.051 189.869 121.051zM190.365 122.367L181.039 122.367 179.404 126.168C179.002 127.103 178.801 127.802 178.801 128.264 178.801 128.631 178.975 128.955 179.325 129.232 179.674 129.511 180.429 129.692 181.589 129.774L181.589 130.431 174.005 130.431 174.005 129.774C175.011 129.596 175.662 129.365 175.959 129.082 176.563 128.513 177.232 127.358 177.966 125.617L186.439 105.793 187.061 105.793 195.446 125.831C196.121 127.441 196.734 128.486 197.285 128.965 197.834 129.446 198.602 129.714 199.584 129.774L199.584 130.431 190.08 130.431 190.08 129.774C191.04 129.727 191.688 129.567 192.026 129.295 192.364 129.021 192.532 128.691 192.532 128.299 192.532 127.779 192.295 126.956 191.823 125.831L190.365 122.367z"/>
  </g>
</svg>
