<svg xmlns="http://www.w3.org/2000/svg" viewBox="0 0 376.88 130.82"><defs><style>.cls-1{fill:#fff;}</style></defs><title>logo-white</title><g id="Layer_2" data-name="Layer 2"><g id="Layer_1-2" data-name="Layer 1"><path class="cls-1" d="M161.11,82.59l-3.85,0C160.13,83.06,161.11,82.59,161.11,82.59Z"/><path class="cls-1" d="M272.32,44.57C258.31,54.63,247.77,61.74,239,67c-8.14-4.42-48.12-25.53-78.28-30.21-32.54-5-54.54-.23-66.72,10.34-47-27.62-94-5-94-5S49.9,26.51,96.48,55.5c41.83,26,49.93,27.16,60.78,27.11-6.28-1-21.63-6.3-55.55-30.44-2.45-1.74-4.91-3.33-7.37-4.79C100.4,44,123,33.6,159.21,41.24S227.06,64.47,235.73,69c-14,8.11-23.55,11.54-36.6,15.52,0,0,26.61,4.75,70.34-29.94s77-33.27,107.41-23.29C376.88,31.26,331.33,2.19,272.32,44.57Z"/><path class="cls-1" d="M242.28,0S256,1.79,252.94,10.47c0,0,2.83-4.05,6.32-3.58s9.34,2.26,13.11-1.23c0,0-2.55,1.7-9.05-.19-5.28-1.53-8.38,0-8.3.85C255,6.32,259.06,0,242.28,0Z"/><path class="cls-1" d="M236.55,40.31s-.75-2.73,1.41-4.05,7.45-3.21,7.17-5.56c0,0-1.7,2-6.41,2.36s-4.62,3.21-4.62,3.21-4.9-1.41-7.83.28a15,15,0,0,1-6.6,2.07,7.43,7.43,0,0,0,5.19-.19C227.78,37.3,234.1,36.82,236.55,40.31Z"/><path class="cls-1" d="M177.07,22.32s2.69,2.69,8.08,1.58,8.4,1.74,8.4,1.74S192,22,198,20.73s5.86-4.91,5.86-4.91-2.38,2.85-8.87,3.49S191.33,22,191.33,22a14.15,14.15,0,0,0-8.24,0C179.13,23.43,177.07,22.32,177.07,22.32Z"/><path class="cls-1" d="M211.64,53.59C224.78,59.46,235.25,65,239,67c5.88-3.55,12.57-7.93,20.55-13.45Z"/><path class="cls-1" d="M41.39,120.73h-11l-1.93,4.49a7.11,7.11,0,0,0-.71,2.48,1.44,1.44,0,0,0,.62,1.14,5.39,5.39,0,0,0,2.68.64v.78h-9v-.78a4.84,4.84,0,0,0,2.31-.82,12.89,12.89,0,0,0,2.37-4.09l10-23.42h.73l9.91,23.67a10.8,10.8,0,0,0,2.17,3.7,4.43,4.43,0,0,0,2.72,1v.78H41.05v-.78a4.22,4.22,0,0,0,2.3-.57,1.46,1.46,0,0,0,.6-1.18,8.71,8.71,0,0,0-.84-2.92Zm-.59-1.55L36,107.67l-5,11.5Z"/><path class="cls-1" d="M233.46,115.73a9.14,9.14,0,0,1,4.43,2,6.26,6.26,0,0,1,2,4.72,7,7,0,0,1-1.34,4.06,7.68,7.68,0,0,1-3.68,2.83,21.36,21.36,0,0,1-7.15.89H214.32v-.78h1.07a2.88,2.88,0,0,0,2.56-1.13,6.53,6.53,0,0,0,.48-3.13V106.83q0-2.64-.61-3.34a3.08,3.08,0,0,0-2.43-.92h-1.07v-.78h12.3a24.34,24.34,0,0,1,5.52.5,8.87,8.87,0,0,1,4.81,2.68,6.56,6.56,0,0,1,1.66,4.42,6.11,6.11,0,0,1-1.3,3.83A7.62,7.62,0,0,1,233.46,115.73Zm-11-1.13a15.56,15.56,0,0,0,1.77.22q1,.07,2.19.07a12.28,12.28,0,0,0,4.61-.66,4.94,4.94,0,0,0,2.36-2,5.69,5.69,0,0,0,.82-3,5.44,5.44,0,0,0-2-4.26,8.83,8.83,0,0,0-5.94-1.76,14.27,14.27,0,0,0-3.78.46Zm0,13.6a21.17,21.17,0,0,0,4.81.57,8.66,8.66,0,0,0,5.79-1.71,5.35,5.35,0,0,0,2-4.23,6.2,6.2,0,0,0-.9-3.19,6,6,0,0,0-2.94-2.41,12.68,12.68,0,0,0-5-.88q-1.3,0-2.22,0a11.28,11.28,0,0,0-1.49.15Z"/><path class="cls-1" d="M264.07,123.59l.59.12-2.06,6.54H243.94v-.66h.91a2.42,2.42,0,0,0,2.18-1,5.73,5.73,0,0,0,.37-2.63V110.43a5,5,0,0,0-.5-2.82,2.61,2.61,0,0,0-2.06-.78h-.91v-.66h10.91v.66a6.65,6.65,0,0,0-2.69.36,2.17,2.17,0,0,0-1.06.94,7.78,7.78,0,0,0-.28,2.72V126a4.94,4.94,0,0,0,.28,2,1.27,1.27,0,0,0,.66.55,11.57,11.57,0,0,0,2.77.18h1.76a12.74,12.74,0,0,0,3.89-.41,5.05,5.05,0,0,0,2-1.45A11.84,11.84,0,0,0,264.07,123.59Z"/><path class="cls-1" d="M283.88,106.82v-.66h8.53v.66h-.91a2.44,2.44,0,0,0-2.18,1.19,5.43,5.43,0,0,0-.37,2.56v9.77a17.29,17.29,0,0,1-.72,5.62,7.06,7.06,0,0,1-2.82,3.43,10.07,10.07,0,0,1-5.73,1.43,10.78,10.78,0,0,1-6-1.37,7.4,7.4,0,0,1-2.9-3.68,20.41,20.41,0,0,1-.57-5.93v-9.42a4.72,4.72,0,0,0-.61-2.91,2.53,2.53,0,0,0-2-.69h-.91v-.66h10.41v.66h-.92a2.39,2.39,0,0,0-2.13.94,5.25,5.25,0,0,0-.44,2.66v10.5a23,23,0,0,0,.26,3.22,6.86,6.86,0,0,0,.93,2.82,5.08,5.08,0,0,0,1.95,1.67,6.73,6.73,0,0,0,3.12.66,8.6,8.6,0,0,0,4.23-1,5.52,5.52,0,0,0,2.55-2.64,15.27,15.27,0,0,0,.68-5.44v-9.75a5,5,0,0,0-.5-2.82,2.61,2.61,0,0,0-2.06-.78Z"/><path class="cls-1" d="M301.33,107.48v9.47h4.39a3.12,3.12,0,0,0,2.21-.67,4.41,4.41,0,0,0,.93-2.64h.66v8.15h-.66a4.77,4.77,0,0,0-.36-2.06,2.31,2.31,0,0,0-1-1,4,4,0,0,0-1.82-.33h-4.39V126a8,8,0,0,0,.23,2.42,1.59,1.59,0,0,0,.75.76,3.37,3.37,0,0,0,1.63.43h.87v.66H294.48v-.66h.85a2.57,2.57,0,0,0,2.17-.87,5.41,5.41,0,0,0,.43-2.74V110.43a8,8,0,0,0-.23-2.42,1.59,1.59,0,0,0-.73-.76,3.3,3.3,0,0,0-1.64-.43h-.85v-.66H312.4l.23,5.29H312a7.33,7.33,0,0,0-1.07-2.48,3.54,3.54,0,0,0-1.51-1.15,8.07,8.07,0,0,0-2.78-.36Z"/><path class="cls-1" d="M322.66,107.48v9.47H327a3.12,3.12,0,0,0,2.21-.67,4.41,4.41,0,0,0,.93-2.64h.66v8.15h-.66a4.77,4.77,0,0,0-.36-2.06,2.31,2.31,0,0,0-1-1,4,4,0,0,0-1.82-.33h-4.39V126a8,8,0,0,0,.23,2.42,1.59,1.59,0,0,0,.75.76,3.37,3.37,0,0,0,1.63.43h.87v.66H315.8v-.66h.85a2.57,2.57,0,0,0,2.17-.87,5.41,5.41,0,0,0,.43-2.74V110.43A8,8,0,0,0,319,108a1.59,1.59,0,0,0-.73-.76,3.3,3.3,0,0,0-1.64-.43h-.85v-.66h17.92l.23,5.29h-.62a7.33,7.33,0,0,0-1.07-2.48,3.54,3.54,0,0,0-1.51-1.15,8.07,8.07,0,0,0-2.78-.36Z"/><path class="cls-1" d="M353.22,105.62v8.33h-.66a10.4,10.4,0,0,0-1.15-3.82,6,6,0,0,0-2.35-2.26,6.51,6.51,0,0,0-3.16-.83,4.3,4.3,0,0,0-3.06,1.13,3.43,3.43,0,0,0-1.21,2.57,3,3,0,0,0,.76,2q1.1,1.33,5.24,3.55a36.33,36.33,0,0,1,4.61,2.78,6.76,6.76,0,0,1,1.9,2.28,6,6,0,0,1,.67,2.75,6.24,6.24,0,0,1-2.12,4.72,7.69,7.69,0,0,1-5.46,2,11.55,11.55,0,0,1-2-.16A20.5,20.5,0,0,1,343,130a10.27,10.27,0,0,0-2.19-.56.93.93,0,0,0-.7.27,2.11,2.11,0,0,0-.38,1.1H339v-8.26h.66a11.67,11.67,0,0,0,1.24,3.88,6,6,0,0,0,2.39,2.14,7.41,7.41,0,0,0,3.53.85,5,5,0,0,0,3.51-1.17,3.63,3.63,0,0,0,1.29-2.77,3.76,3.76,0,0,0-.49-1.79,5.36,5.36,0,0,0-1.52-1.69,43.65,43.65,0,0,0-3.78-2.27,36.59,36.59,0,0,1-4.4-2.76,7.44,7.44,0,0,1-2-2.27,5.63,5.63,0,0,1-.68-2.74,5.93,5.93,0,0,1,2-4.47,7.09,7.09,0,0,1,5.06-1.87,10.16,10.16,0,0,1,4.07.94,4.21,4.21,0,0,0,1.4.44,1.05,1.05,0,0,0,.75-.28,2.19,2.19,0,0,0,.47-1.11Z"/><path class="cls-1" d="M79.66,130.25H73.23L65.07,119c-.6,0-1.1,0-1.47,0h-.5l-.55,0v7a4.93,4.93,0,0,0,.5,2.82,2.53,2.53,0,0,0,2,.78H66v.66H55.69v-.66h.91a2.42,2.42,0,0,0,2.18-1,5.61,5.61,0,0,0,.37-2.61V110.43q0-2.27-.5-2.82a2.61,2.61,0,0,0-2.06-.78h-.91v-.66h8.78a20.86,20.86,0,0,1,5.66.56,6.48,6.48,0,0,1,3.09,2.06,5.37,5.37,0,0,1,1.27,3.58A5.62,5.62,0,0,1,73,116.22a8.17,8.17,0,0,1-4.48,2.31l5,6.91a12.36,12.36,0,0,0,2.93,3.16,7.39,7.39,0,0,0,3.2,1ZM62.55,117.87h1a7.82,7.82,0,0,0,5.2-1.49,4.77,4.77,0,0,0,1.75-3.8,5,5,0,0,0-1.41-3.67,5.06,5.06,0,0,0-3.74-1.41,15.74,15.74,0,0,0-2.79.34Z"/><path class="cls-1" d="M102.33,105.62l.55,8.19h-.55a10.31,10.31,0,0,0-3.14-5.29,7.66,7.66,0,0,0-4.9-1.62A7.6,7.6,0,0,0,86.9,112a17.28,17.28,0,0,0-1.11,6.63,14.08,14.08,0,0,0,1,5.67A7.86,7.86,0,0,0,90,128a9.06,9.06,0,0,0,4.8,1.28,8.32,8.32,0,0,0,4.14-1,13.63,13.63,0,0,0,3.94-4l.55.36a12.64,12.64,0,0,1-4.23,4.71,10.69,10.69,0,0,1-5.74,1.49,10.86,10.86,0,0,1-9.27-4.44,12.7,12.7,0,0,1-2.45-7.78A13.81,13.81,0,0,1,83.36,112a11.7,11.7,0,0,1,4.45-4.68A12,12,0,0,1,94,105.62a11.34,11.34,0,0,1,5.15,1.28,2.81,2.81,0,0,0,1.07.39,1.18,1.18,0,0,0,.84-.34,2.77,2.77,0,0,0,.66-1.33Z"/><path class="cls-1" d="M122.43,122.19H113.1l-1.64,3.8a6,6,0,0,0-.6,2.1,1.21,1.21,0,0,0,.52,1,4.56,4.56,0,0,0,2.26.54v.66h-7.58v-.66a4.11,4.11,0,0,0,2-.69,10.89,10.89,0,0,0,2-3.46l8.47-19.82h.62l8.38,20a9.14,9.14,0,0,0,1.84,3.14,3.74,3.74,0,0,0,2.3.81v.66h-9.5v-.66a3.56,3.56,0,0,0,1.95-.48,1.24,1.24,0,0,0,.51-1,7.38,7.38,0,0,0-.71-2.47Zm-.5-1.32-4.09-9.73-4.19,9.73Z"/><path class="cls-1" d="M133.77,130.25v-.66h.91a2.39,2.39,0,0,0,2.17-1,5.56,5.56,0,0,0,.39-2.63V110.43a5,5,0,0,0-.5-2.82,2.61,2.61,0,0,0-2.06-.78h-.91v-.66h9.81a21.4,21.4,0,0,1,8.22,1.23,9.77,9.77,0,0,1,4.53,4.09,12.6,12.6,0,0,1,1.71,6.61,12.05,12.05,0,0,1-3.06,8.4q-3.43,3.77-10.44,3.77Zm6.87-1.74a18.18,18.18,0,0,0,3.78.5,9,9,0,0,0,6.84-2.9,11,11,0,0,0,2.72-7.85,11,11,0,0,0-2.72-7.87,9.18,9.18,0,0,0-7-2.88,15.08,15.08,0,0,0-3.64.52Z"/><path class="cls-1" d="M171.74,129.6v.66H161.42v-.66h.85a2.57,2.57,0,0,0,2.17-.87,5.41,5.41,0,0,0,.43-2.74V110.43a8,8,0,0,0-.23-2.42,1.6,1.6,0,0,0-.73-.76,3.36,3.36,0,0,0-1.63-.43h-.85v-.66h10.32v.66h-.87a2.55,2.55,0,0,0-2.15.87,5.23,5.23,0,0,0-.44,2.74V126a8,8,0,0,0,.23,2.42,1.59,1.59,0,0,0,.75.76,3.27,3.27,0,0,0,1.62.43Z"/><path class="cls-1" d="M190.36,122.19H181L179.4,126a6,6,0,0,0-.6,2.1,1.21,1.21,0,0,0,.52,1,4.56,4.56,0,0,0,2.26.54v.66H174v-.66a4.11,4.11,0,0,0,2-.69,10.89,10.89,0,0,0,2-3.46l8.47-19.82h.62l8.38,20a9.14,9.14,0,0,0,1.84,3.14,3.74,3.74,0,0,0,2.3.81v.66h-9.5v-.66a3.56,3.56,0,0,0,1.95-.48,1.24,1.24,0,0,0,.51-1,7.38,7.38,0,0,0-.71-2.47Zm-.5-1.32-4.09-9.73-4.19,9.73Z"/></g></g></svg>