<?xml version="1.0" encoding="UTF-8"?>
<svg width="1680px" height="130px" viewBox="0 0 1680 130" version="1.1" xmlns="http://www.w3.org/2000/svg" xmlns:xlink="http://www.w3.org/1999/xlink">
    <!-- Generator: Sketch 42 (36781) - http://www.bohemiancoding.com/sketch -->
    <title>full nav bg</title>
    <desc>Created with Sketch.</desc>
    <defs>
        <linearGradient x1="23.7725539%" y1="50%" x2="61.1746652%" y2="50%" id="linearGradient-1">
            <stop stop-color="#FFFFFF" offset="0%"></stop>
            <stop stop-color="#FAFAFA" offset="100%"></stop>
        </linearGradient>
        <rect id="path-2" x="0" y="0" width="1680" height="130"></rect>
        <filter x="-50%" y="-50%" width="200%" height="200%" filterUnits="objectBoundingBox" id="filter-4">
            <feOffset dx="0" dy="1" in="SourceAlpha" result="shadowOffsetOuter1"></feOffset>
            <feGaussianBlur stdDeviation="7" in="shadowOffsetOuter1" result="shadowBlurOuter1"></feGaussianBlur>
            <feColorMatrix values="0 0 0 0 0.386399872   0 0 0 0 0.386399872   0 0 0 0 0.386399872  0 0 0 0.5 0" type="matrix" in="shadowBlurOuter1"></feColorMatrix>
        </filter>
        <linearGradient x1="19.4798732%" y1="45.7916647%" x2="59.0589059%" y2="45.7916647%" id="linearGradient-5">
            <stop stop-color="#F4F4F4" stop-opacity="0" offset="0%"></stop>
            <stop stop-color="#D8D8D8" offset="100%"></stop>
        </linearGradient>
    </defs>
    <g id="Symbols" stroke="none" stroke-width="1" fill="none" fill-rule="evenodd">
        <g id="full-nav-bg">
            <mask id="mask-3" fill="white">
                <use xlink:href="#path-2"></use>
            </mask>
            <g id="Rectangle-4">
                <use fill="black" fill-opacity="1" filter="url(#filter-4)" xlink:href="#path-2"></use>
                <use fill="url(#linearGradient-1)" fill-rule="evenodd" xlink:href="#path-2"></use>
            </g>
            <g id="Bagpipe-Lines" opacity="0.8" mask="url(#mask-3)" fill="url(#linearGradient-5)">
                <g transform="translate(-11.000000, -4.000000)" id="Combined-Shape" opacity="0.334692029">
                    <path d="M11,98.5 L11,46.5 L10.5,46.5 L10.5,45.5 L11,45.5 L11,39.5 L10.5,39.5 L10.5,38.5 L11,38.5 L11,32.5 L10.5,32.5 L10.5,31.5 L11,31.5 L11,0.595370918 L11,0.171052632 L12,0.171052632 L12,0.595370918 L12,31.5 L23,31.5 L23,0.595370918 L23,0.171052632 L24,0.171052632 L24,0.595370918 L24,31.5 L36,31.5 L36,0.595370918 L36,0.171052632 L37,0.171052632 L37,0.595370918 L37,31.5 L132,31.5 L132,0.595370918 L132,0.171052632 L133,0.171052632 L133,0.595370918 L133,31.5 L143,31.5 L143,0.595370918 L143,0.171052632 L144,0.171052632 L144,0.595370918 L144,31.5 L155,31.5 L155,0.595370918 L155,0.171052632 L156,0.171052632 L156,0.595370918 L156,31.5 L168,31.5 L168,0.595370918 L168,0.171052632 L169,0.171052632 L169,0.595370918 L169,31.5 L264,31.5 L264,0.595370918 L264,0.171052632 L265,0.171052632 L265,0.595370918 L265,31.5 L275,31.5 L275,0.595370918 L275,0.171052632 L276,0.171052632 L276,0.595370918 L276,31.5 L287,31.5 L287,0.595370918 L287,0.171052632 L288,0.171052632 L288,0.595370918 L288,31.5 L300,31.5 L300,0.595370918 L300,0.171052632 L301,0.171052632 L301,0.595370918 L301,31.5 L396,31.5 L396,0.595370918 L396,0.171052632 L397,0.171052632 L397,0.595370918 L397,31.5 L407,31.5 L407,0.595370918 L407,0.171052632 L408,0.171052632 L408,0.595370918 L408,31.5 L419,31.5 L419,0.595370918 L419,0.171052632 L420,0.171052632 L420,0.595370918 L420,31.5 L432,31.5 L432,0.595370918 L432,0.171052632 L433,0.171052632 L433,0.595370918 L433,31.5 L528,31.5 L528,0.595370918 L528,0.171052632 L529,0.171052632 L529,0.595370918 L529,31.5 L539,31.5 L539,0.595370918 L539,0.171052632 L540,0.171052632 L540,0.595370918 L540,31.5 L551,31.5 L551,0.595370918 L551,0.171052632 L552,0.171052632 L552,0.595370918 L552,31.5 L564,31.5 L564,0.595370918 L564,0.171052632 L565,0.171052632 L565,0.595370918 L565,31.5 L660,31.5 L660,0.595370918 L660,0.171052632 L661,0.171052632 L661,0.595370918 L661,31.5 L671,31.5 L671,0.595370918 L671,0.171052632 L672,0.171052632 L672,0.595370918 L672,31.5 L683,31.5 L683,0.595370918 L683,0.171052632 L684,0.171052632 L684,0.595370918 L684,31.5 L696,31.5 L696,0.595370918 L696,0.171052632 L697,0.171052632 L697,0.595370918 L697,31.5 L792,31.5 L792,0.595370918 L792,0.171052632 L793,0.171052632 L793,0.595370918 L793,31.5 L803,31.5 L803,0.595370918 L803,0.171052632 L804,0.171052632 L804,0.595370918 L804,31.5 L815,31.5 L815,0.595370918 L815,0.171052632 L816,0.171052632 L816,0.595370918 L816,31.5 L827,31.5 L827,0.595370918 L827,0.171052632 L828,0.171052632 L828,0.595370918 L828,31.5 L923,31.5 L923,0.595370918 L923,0.171052632 L924,0.171052632 L924,0.595370918 L924,31.5 L934,31.5 L934,0.595370918 L934,0.171052632 L935,0.171052632 L935,0.595370918 L935,31.5 L946,31.5 L946,0.595370918 L946,0.171052632 L947,0.171052632 L947,0.595370918 L947,31.5 L959,31.5 L959,0.595370918 L959,0.171052632 L960,0.171052632 L960,0.595370918 L960,31.5 L1055,31.5 L1055,0.595370918 L1055,0.171052632 L1056,0.171052632 L1056,0.595370918 L1056,31.5 L1066,31.5 L1066,0.595370918 L1066,0.171052632 L1067,0.171052632 L1067,0.595370918 L1067,31.5 L1078,31.5 L1078,0.595370918 L1078,0.171052632 L1079,0.171052632 L1079,0.595370918 L1079,31.5 L1091,31.5 L1091,0.595370918 L1091,0.171052632 L1092,0.171052632 L1092,0.595370918 L1092,31.5 L1188,31.5 L1188,0.595370918 L1188,0.171052632 L1189,0.171052632 L1189,0.595370918 L1189,31.5 L1199,31.5 L1199,0.595370918 L1199,0.171052632 L1200,0.171052632 L1200,0.595370918 L1200,31.5 L1211,31.5 L1211,0.595370918 L1211,0.171052632 L1212,0.171052632 L1212,0.595370918 L1212,31.5 L1223,31.5 L1223,0.595370918 L1223,0.171052632 L1224,0.171052632 L1224,0.595370918 L1224,31.5 L1330,31.5 L1330,0.595370918 L1330,0.171052632 L1331,0.171052632 L1331,0.595370918 L1331,31.5 L1341,31.5 L1341,0.595370918 L1341,0.171052632 L1342,0.171052632 L1342,0.595370918 L1342,31.5 L1353,31.5 L1353,0.595370918 L1353,0.171052632 L1354,0.171052632 L1354,0.595370918 L1354,31.5 L1365,31.5 L1365,0.595370918 L1365,0.171052632 L1366,0.171052632 L1366,0.595370918 L1366,31.5 L1473,31.5 L1473,0.595370918 L1473,0.171052632 L1474,0.171052632 L1474,0.595370918 L1474,31.5 L1484,31.5 L1484,0.595370918 L1484,0.171052632 L1485,0.171052632 L1485,0.595370918 L1485,31.5 L1496,31.5 L1496,0.595370918 L1496,0.171052632 L1497,0.171052632 L1497,0.595370918 L1497,31.5 L1508,31.5 L1508,0.595370918 L1508,0.171052632 L1509,0.171052632 L1509,0.595370918 L1509,31.5 L1615,31.5 L1615,0.595370918 L1615,0.171052632 L1616,0.171052632 L1616,0.595370918 L1616,31.5 L1626,31.5 L1626,0.595370918 L1626,0.171052632 L1627,0.171052632 L1627,0.595370918 L1627,31.5 L1638,31.5 L1638,0.595370918 L1638,0.171052632 L1639,0.171052632 L1639,0.595370918 L1639,31.5 L1650,31.5 L1650,0.595370918 L1650,0.171052632 L1651,0.171052632 L1651,0.595370918 L1651,31.5 L1695,31.5 L1695.5,31.5 L1695.5,32.5 L1695,32.5 L1651,32.5 L1651,38.5 L1695,38.5 L1695.5,38.5 L1695.5,39.5 L1695,39.5 L1651,39.5 L1651,45.5 L1695,45.5 L1695.5,45.5 L1695.5,46.5 L1695,46.5 L1651,46.5 L1651,98.5 L1695,98.5 L1695.5,98.5 L1695.5,99.5 L1695,99.5 L1651,99.5 L1651,104.5 L1695,104.5 L1695.5,104.5 L1695.5,105.5 L1695,105.5 L1651,105.5 L1651,111.5 L1695,111.5 L1695.5,111.5 L1695.5,112.5 L1695,112.5 L1651,112.5 L1651,129.378416 L1651,129.802734 L1650,129.802734 L1650,129.378416 L1650,112.5 L1639,112.5 L1639,129.378416 L1639,129.802734 L1638,129.802734 L1638,129.378416 L1638,112.5 L1627,112.5 L1627,129.378416 L1627,129.802734 L1626,129.802734 L1626,129.378416 L1626,112.5 L1616,112.5 L1616,129.378416 L1616,129.802734 L1615,129.802734 L1615,129.378416 L1615,112.5 L1509,112.5 L1509,129.378416 L1509,129.802734 L1508,129.802734 L1508,129.378416 L1508,112.5 L1497,112.5 L1497,129.378416 L1497,129.802734 L1496,129.802734 L1496,129.378416 L1496,112.5 L1485,112.5 L1485,129.378416 L1485,129.802734 L1484,129.802734 L1484,129.378416 L1484,112.5 L1474,112.5 L1474,129.378416 L1474,129.802734 L1473,129.802734 L1473,129.378416 L1473,112.5 L1366,112.5 L1366,129.378416 L1366,129.802734 L1365,129.802734 L1365,129.378416 L1365,112.5 L1354,112.5 L1354,129.378416 L1354,129.802734 L1353,129.802734 L1353,129.378416 L1353,112.5 L1342,112.5 L1342,129.378416 L1342,129.802734 L1341,129.802734 L1341,129.378416 L1341,112.5 L1331,112.5 L1331,129.378416 L1331,129.802734 L1330,129.802734 L1330,129.378416 L1330,112.5 L1224,112.5 L1224,129.378416 L1224,129.802734 L1223,129.802734 L1223,129.378416 L1223,112.5 L1212,112.5 L1212,129.378416 L1212,129.802734 L1211,129.802734 L1211,129.378416 L1211,112.5 L1200,112.5 L1200,129.378416 L1200,129.802734 L1199,129.802734 L1199,129.378416 L1199,112.5 L1189,112.5 L1189,129.378416 L1189,129.802734 L1188,129.802734 L1188,129.378416 L1188,112.5 L1092,112.5 L1092,129.378416 L1092,129.802734 L1091,129.802734 L1091,129.378416 L1091,112.5 L1079,112.5 L1079,129.378416 L1079,129.802734 L1078,129.802734 L1078,129.378416 L1078,112.5 L1067,112.5 L1067,129.378416 L1067,129.802734 L1066,129.802734 L1066,129.378416 L1066,112.5 L1056,112.5 L1056,129.378416 L1056,129.802734 L1055,129.802734 L1055,129.378416 L1055,112.5 L960,112.5 L960,129.378416 L960,129.802734 L959,129.802734 L959,129.378416 L959,112.5 L947,112.5 L947,129.378416 L947,129.802734 L946,129.802734 L946,129.378416 L946,112.5 L935,112.5 L935,129.378416 L935,129.802734 L934,129.802734 L934,129.378416 L934,112.5 L924,112.5 L924,129.378416 L924,129.802734 L923,129.802734 L923,129.378416 L923,112.5 L828,112.5 L828,129.378416 L828,129.802734 L827,129.802734 L827,129.378416 L827,112.5 L816,112.5 L816,129.378416 L816,129.802734 L815,129.802734 L815,129.378416 L815,112.5 L804,112.5 L804,129.378416 L804,129.802734 L803,129.802734 L803,129.378416 L803,112.5 L793,112.5 L793,129.378416 L793,129.802734 L792,129.802734 L792,129.378416 L792,112.5 L697,112.5 L697,129.378416 L697,129.802734 L696,129.802734 L696,129.378416 L696,112.5 L684,112.5 L684,129.378416 L684,129.802734 L683,129.802734 L683,129.378416 L683,112.5 L672,112.5 L672,129.378416 L672,129.802734 L671,129.802734 L671,129.378416 L671,112.5 L661,112.5 L661,129.378416 L661,129.802734 L660,129.802734 L660,129.378416 L660,112.5 L565,112.5 L565,129.378416 L565,129.802734 L564,129.802734 L564,129.378416 L564,112.5 L552,112.5 L552,129.378416 L552,129.802734 L551,129.802734 L551,129.378416 L551,112.5 L540,112.5 L540,129.378416 L540,129.802734 L539,129.802734 L539,129.378416 L539,112.5 L529,112.5 L529,129.378416 L529,129.802734 L528,129.802734 L528,129.378416 L528,112.5 L433,112.5 L433,129.378416 L433,129.802734 L432,129.802734 L432,129.378416 L432,112.5 L420,112.5 L420,129.378416 L420,129.802734 L419,129.802734 L419,129.378416 L419,112.5 L408,112.5 L408,129.378416 L408,129.802734 L407,129.802734 L407,129.378416 L407,112.5 L397,112.5 L397,129.378416 L397,129.802734 L396,129.802734 L396,129.378416 L396,112.5 L301,112.5 L301,129.378416 L301,129.802734 L300,129.802734 L300,129.378416 L300,112.5 L288,112.5 L288,129.378416 L288,129.802734 L287,129.802734 L287,129.378416 L287,112.5 L276,112.5 L276,129.378416 L276,129.802734 L275,129.802734 L275,129.378416 L275,112.5 L265,112.5 L265,129.378416 L265,129.802734 L264,129.802734 L264,129.378416 L264,112.5 L169,112.5 L169,129.378416 L169,129.802734 L168,129.802734 L168,129.378416 L168,112.5 L156,112.5 L156,129.378416 L156,129.802734 L155,129.802734 L155,129.378416 L155,112.5 L144,112.5 L144,129.378416 L144,129.802734 L143,129.802734 L143,129.378416 L143,112.5 L133,112.5 L133,129.378416 L133,129.802734 L132,129.802734 L132,129.378416 L132,112.5 L37,112.5 L37,129.378416 L37,129.802734 L36,129.802734 L36,129.378416 L36,112.5 L24,112.5 L24,129.378416 L24,129.802734 L23,129.802734 L23,129.378416 L23,112.5 L12,112.5 L12,129.378416 L12,129.802734 L11,129.802734 L11,129.378416 L11,112.5 L10.5,112.5 L10.5,111.5 L11,111.5 L11,105.5 L10.5,105.5 L10.5,104.5 L11,104.5 L11,99.5 L10.5,99.5 L10.5,98.5 L11,98.5 Z M12,98.5 L23,98.5 L23,46.5 L12,46.5 L12,98.5 Z M12,99.5 L12,104.5 L23,104.5 L23,99.5 L12,99.5 Z M24,98.5 L36,98.5 L36,46.5 L24,46.5 L24,98.5 Z M24,99.5 L24,104.5 L36,104.5 L36,99.5 L24,99.5 Z M37,98.5 L132,98.5 L132,46.5 L37,46.5 L37,98.5 Z M37,99.5 L37,104.5 L132,104.5 L132,99.5 L37,99.5 Z M133,98.5 L143,98.5 L143,46.5 L133,46.5 L133,98.5 Z M133,99.5 L133,104.5 L143,104.5 L143,99.5 L133,99.5 Z M144,98.5 L155,98.5 L155,46.5 L144,46.5 L144,98.5 Z M144,99.5 L144,104.5 L155,104.5 L155,99.5 L144,99.5 Z M156,98.5 L168,98.5 L168,46.5 L156,46.5 L156,98.5 Z M156,99.5 L156,104.5 L168,104.5 L168,99.5 L156,99.5 Z M169,98.5 L264,98.5 L264,46.5 L169,46.5 L169,98.5 Z M169,99.5 L169,104.5 L264,104.5 L264,99.5 L169,99.5 Z M265,98.5 L275,98.5 L275,46.5 L265,46.5 L265,98.5 Z M265,99.5 L265,104.5 L275,104.5 L275,99.5 L265,99.5 Z M276,98.5 L287,98.5 L287,46.5 L276,46.5 L276,98.5 Z M276,99.5 L276,104.5 L287,104.5 L287,99.5 L276,99.5 Z M288,98.5 L300,98.5 L300,46.5 L288,46.5 L288,98.5 Z M288,99.5 L288,104.5 L300,104.5 L300,99.5 L288,99.5 Z M301,98.5 L396,98.5 L396,46.5 L301,46.5 L301,98.5 Z M301,99.5 L301,104.5 L396,104.5 L396,99.5 L301,99.5 Z M397,98.5 L407,98.5 L407,46.5 L397,46.5 L397,98.5 Z M397,99.5 L397,104.5 L407,104.5 L407,99.5 L397,99.5 Z M408,98.5 L419,98.5 L419,46.5 L408,46.5 L408,98.5 Z M408,99.5 L408,104.5 L419,104.5 L419,99.5 L408,99.5 Z M420,98.5 L432,98.5 L432,46.5 L420,46.5 L420,98.5 Z M420,99.5 L420,104.5 L432,104.5 L432,99.5 L420,99.5 Z M433,98.5 L528,98.5 L528,46.5 L433,46.5 L433,98.5 Z M433,99.5 L433,104.5 L528,104.5 L528,99.5 L433,99.5 Z M529,98.5 L539,98.5 L539,46.5 L529,46.5 L529,98.5 Z M529,99.5 L529,104.5 L539,104.5 L539,99.5 L529,99.5 Z M540,98.5 L551,98.5 L551,46.5 L540,46.5 L540,98.5 Z M540,99.5 L540,104.5 L551,104.5 L551,99.5 L540,99.5 Z M552,98.5 L564,98.5 L564,46.5 L552,46.5 L552,98.5 Z M552,99.5 L552,104.5 L564,104.5 L564,99.5 L552,99.5 Z M565,98.5 L660,98.5 L660,46.5 L565,46.5 L565,98.5 Z M565,99.5 L565,104.5 L660,104.5 L660,99.5 L565,99.5 Z M661,98.5 L671,98.5 L671,46.5 L661,46.5 L661,98.5 Z M661,99.5 L661,104.5 L671,104.5 L671,99.5 L661,99.5 Z M672,98.5 L683,98.5 L683,46.5 L672,46.5 L672,98.5 Z M672,99.5 L672,104.5 L683,104.5 L683,99.5 L672,99.5 Z M684,98.5 L696,98.5 L696,46.5 L684,46.5 L684,98.5 Z M684,99.5 L684,104.5 L696,104.5 L696,99.5 L684,99.5 Z M697,98.5 L792,98.5 L792,46.5 L697,46.5 L697,98.5 Z M697,99.5 L697,104.5 L792,104.5 L792,99.5 L697,99.5 Z M793,98.5 L803,98.5 L803,46.5 L793,46.5 L793,98.5 Z M793,99.5 L793,104.5 L803,104.5 L803,99.5 L793,99.5 Z M804,98.5 L815,98.5 L815,46.5 L804,46.5 L804,98.5 Z M804,99.5 L804,104.5 L815,104.5 L815,99.5 L804,99.5 Z M816,98.5 L827,98.5 L827,46.5 L816,46.5 L816,98.5 Z M816,99.5 L816,104.5 L827,104.5 L827,99.5 L816,99.5 Z M828,98.5 L923,98.5 L923,46.5 L828,46.5 L828,98.5 Z M828,99.5 L828,104.5 L923,104.5 L923,99.5 L828,99.5 Z M924,98.5 L934,98.5 L934,46.5 L924,46.5 L924,98.5 Z M924,99.5 L924,104.5 L934,104.5 L934,99.5 L924,99.5 Z M935,98.5 L946,98.5 L946,46.5 L935,46.5 L935,98.5 Z M935,99.5 L935,104.5 L946,104.5 L946,99.5 L935,99.5 Z M947,98.5 L959,98.5 L959,46.5 L947,46.5 L947,98.5 Z M947,99.5 L947,104.5 L959,104.5 L959,99.5 L947,99.5 Z M960,98.5 L1055,98.5 L1055,46.5 L960,46.5 L960,98.5 Z M960,99.5 L960,104.5 L1055,104.5 L1055,99.5 L960,99.5 Z M1056,98.5 L1066,98.5 L1066,46.5 L1056,46.5 L1056,98.5 Z M1056,99.5 L1056,104.5 L1066,104.5 L1066,99.5 L1056,99.5 Z M1067,98.5 L1078,98.5 L1078,46.5 L1067,46.5 L1067,98.5 Z M1067,99.5 L1067,104.5 L1078,104.5 L1078,99.5 L1067,99.5 Z M1079,98.5 L1091,98.5 L1091,46.5 L1079,46.5 L1079,98.5 Z M1079,99.5 L1079,104.5 L1091,104.5 L1091,99.5 L1079,99.5 Z M1092,98.5 L1188,98.5 L1188,46.5 L1092,46.5 L1092,98.5 Z M1092,99.5 L1092,104.5 L1188,104.5 L1188,99.5 L1092,99.5 Z M1189,98.5 L1199,98.5 L1199,46.5 L1189,46.5 L1189,98.5 Z M1189,99.5 L1189,104.5 L1199,104.5 L1199,99.5 L1189,99.5 Z M1200,98.5 L1211,98.5 L1211,46.5 L1200,46.5 L1200,98.5 Z M1200,99.5 L1200,104.5 L1211,104.5 L1211,99.5 L1200,99.5 Z M1212,98.5 L1223,98.5 L1223,46.5 L1212,46.5 L1212,98.5 Z M1212,99.5 L1212,104.5 L1223,104.5 L1223,99.5 L1212,99.5 Z M1224,98.5 L1330,98.5 L1330,46.5 L1224,46.5 L1224,98.5 Z M1224,99.5 L1224,104.5 L1330,104.5 L1330,99.5 L1224,99.5 Z M1331,98.5 L1341,98.5 L1341,46.5 L1331,46.5 L1331,98.5 Z M1331,99.5 L1331,104.5 L1341,104.5 L1341,99.5 L1331,99.5 Z M1342,98.5 L1353,98.5 L1353,46.5 L1342,46.5 L1342,98.5 Z M1342,99.5 L1342,104.5 L1353,104.5 L1353,99.5 L1342,99.5 Z M1354,98.5 L1365,98.5 L1365,46.5 L1354,46.5 L1354,98.5 Z M1354,99.5 L1354,104.5 L1365,104.5 L1365,99.5 L1354,99.5 Z M1366,98.5 L1473,98.5 L1473,46.5 L1366,46.5 L1366,98.5 Z M1366,99.5 L1366,104.5 L1473,104.5 L1473,99.5 L1366,99.5 Z M1474,98.5 L1484,98.5 L1484,46.5 L1474,46.5 L1474,98.5 Z M1474,99.5 L1474,104.5 L1484,104.5 L1484,99.5 L1474,99.5 Z M1485,98.5 L1496,98.5 L1496,46.5 L1485,46.5 L1485,98.5 Z M1485,99.5 L1485,104.5 L1496,104.5 L1496,99.5 L1485,99.5 Z M1497,98.5 L1508,98.5 L1508,46.5 L1497,46.5 L1497,98.5 Z M1497,99.5 L1497,104.5 L1508,104.5 L1508,99.5 L1497,99.5 Z M1509,98.5 L1615,98.5 L1615,46.5 L1509,46.5 L1509,98.5 Z M1509,99.5 L1509,104.5 L1615,104.5 L1615,99.5 L1509,99.5 Z M1616,98.5 L1626,98.5 L1626,46.5 L1616,46.5 L1616,98.5 Z M1616,99.5 L1616,104.5 L1626,104.5 L1626,99.5 L1616,99.5 Z M1627,98.5 L1638,98.5 L1638,46.5 L1627,46.5 L1627,98.5 Z M1627,99.5 L1627,104.5 L1638,104.5 L1638,99.5 L1627,99.5 Z M1639,98.5 L1650,98.5 L1650,46.5 L1639,46.5 L1639,98.5 Z M1639,99.5 L1639,104.5 L1650,104.5 L1650,99.5 L1639,99.5 Z M12,32.5 L12,38.5 L23,38.5 L23,32.5 L12,32.5 Z M24,32.5 L24,38.5 L36,38.5 L36,32.5 L24,32.5 Z M37,32.5 L37,38.5 L132,38.5 L132,32.5 L37,32.5 Z M133,32.5 L133,38.5 L143,38.5 L143,32.5 L133,32.5 Z M144,32.5 L144,38.5 L155,38.5 L155,32.5 L144,32.5 Z M156,32.5 L156,38.5 L168,38.5 L168,32.5 L156,32.5 Z M169,32.5 L169,38.5 L264,38.5 L264,32.5 L169,32.5 Z M265,32.5 L265,38.5 L275,38.5 L275,32.5 L265,32.5 Z M276,32.5 L276,38.5 L287,38.5 L287,32.5 L276,32.5 Z M288,32.5 L288,38.5 L300,38.5 L300,32.5 L288,32.5 Z M301,32.5 L301,38.5 L396,38.5 L396,32.5 L301,32.5 Z M397,32.5 L397,38.5 L407,38.5 L407,32.5 L397,32.5 Z M408,32.5 L408,38.5 L419,38.5 L419,32.5 L408,32.5 Z M420,32.5 L420,38.5 L432,38.5 L432,32.5 L420,32.5 Z M433,32.5 L433,38.5 L528,38.5 L528,32.5 L433,32.5 Z M529,32.5 L529,38.5 L539,38.5 L539,32.5 L529,32.5 Z M540,32.5 L540,38.5 L551,38.5 L551,32.5 L540,32.5 Z M552,32.5 L552,38.5 L564,38.5 L564,32.5 L552,32.5 Z M565,32.5 L565,38.5 L660,38.5 L660,32.5 L565,32.5 Z M661,32.5 L661,38.5 L671,38.5 L671,32.5 L661,32.5 Z M672,32.5 L672,38.5 L683,38.5 L683,32.5 L672,32.5 Z M684,32.5 L684,38.5 L696,38.5 L696,32.5 L684,32.5 Z M697,32.5 L697,38.5 L792,38.5 L792,32.5 L697,32.5 Z M793,32.5 L793,38.5 L803,38.5 L803,32.5 L793,32.5 Z M804,32.5 L804,38.5 L815,38.5 L815,32.5 L804,32.5 Z M816,32.5 L816,38.5 L827,38.5 L827,32.5 L816,32.5 Z M828,32.5 L828,38.5 L923,38.5 L923,32.5 L828,32.5 Z M924,32.5 L924,38.5 L934,38.5 L934,32.5 L924,32.5 Z M935,32.5 L935,38.5 L946,38.5 L946,32.5 L935,32.5 Z M947,32.5 L947,38.5 L959,38.5 L959,32.5 L947,32.5 Z M960,32.5 L960,38.5 L1055,38.5 L1055,32.5 L960,32.5 Z M1056,32.5 L1056,38.5 L1066,38.5 L1066,32.5 L1056,32.5 Z M1067,32.5 L1067,38.5 L1078,38.5 L1078,32.5 L1067,32.5 Z M1079,32.5 L1079,38.5 L1091,38.5 L1091,32.5 L1079,32.5 Z M1092,32.5 L1092,38.5 L1188,38.5 L1188,32.5 L1092,32.5 Z M1189,32.5 L1189,38.5 L1199,38.5 L1199,32.5 L1189,32.5 Z M1200,32.5 L1200,38.5 L1211,38.5 L1211,32.5 L1200,32.5 Z M1212,32.5 L1212,38.5 L1223,38.5 L1223,32.5 L1212,32.5 Z M1224,32.5 L1224,38.5 L1330,38.5 L1330,32.5 L1224,32.5 Z M1331,32.5 L1331,38.5 L1341,38.5 L1341,32.5 L1331,32.5 Z M1342,32.5 L1342,38.5 L1353,38.5 L1353,32.5 L1342,32.5 Z M1354,32.5 L1354,38.5 L1365,38.5 L1365,32.5 L1354,32.5 Z M1366,32.5 L1366,38.5 L1473,38.5 L1473,32.5 L1366,32.5 Z M1474,32.5 L1474,38.5 L1484,38.5 L1484,32.5 L1474,32.5 Z M1485,32.5 L1485,38.5 L1496,38.5 L1496,32.5 L1485,32.5 Z M1497,32.5 L1497,38.5 L1508,38.5 L1508,32.5 L1497,32.5 Z M1509,32.5 L1509,38.5 L1615,38.5 L1615,32.5 L1509,32.5 Z M1616,32.5 L1616,38.5 L1626,38.5 L1626,32.5 L1616,32.5 Z M1627,32.5 L1627,38.5 L1638,38.5 L1638,32.5 L1627,32.5 Z M1639,32.5 L1639,38.5 L1650,38.5 L1650,32.5 L1639,32.5 Z M12,111.5 L23,111.5 L23,105.5 L12,105.5 L12,111.5 Z M24,111.5 L36,111.5 L36,105.5 L24,105.5 L24,111.5 Z M37,111.5 L132,111.5 L132,105.5 L37,105.5 L37,111.5 Z M133,111.5 L143,111.5 L143,105.5 L133,105.5 L133,111.5 Z M144,111.5 L155,111.5 L155,105.5 L144,105.5 L144,111.5 Z M156,111.5 L168,111.5 L168,105.5 L156,105.5 L156,111.5 Z M169,111.5 L264,111.5 L264,105.5 L169,105.5 L169,111.5 Z M265,111.5 L275,111.5 L275,105.5 L265,105.5 L265,111.5 Z M276,111.5 L287,111.5 L287,105.5 L276,105.5 L276,111.5 Z M288,111.5 L300,111.5 L300,105.5 L288,105.5 L288,111.5 Z M301,111.5 L396,111.5 L396,105.5 L301,105.5 L301,111.5 Z M397,111.5 L407,111.5 L407,105.5 L397,105.5 L397,111.5 Z M408,111.5 L419,111.5 L419,105.5 L408,105.5 L408,111.5 Z M420,111.5 L432,111.5 L432,105.5 L420,105.5 L420,111.5 Z M433,111.5 L528,111.5 L528,105.5 L433,105.5 L433,111.5 Z M529,111.5 L539,111.5 L539,105.5 L529,105.5 L529,111.5 Z M540,111.5 L551,111.5 L551,105.5 L540,105.5 L540,111.5 Z M552,111.5 L564,111.5 L564,105.5 L552,105.5 L552,111.5 Z M565,111.5 L660,111.5 L660,105.5 L565,105.5 L565,111.5 Z M661,111.5 L671,111.5 L671,105.5 L661,105.5 L661,111.5 Z M672,111.5 L683,111.5 L683,105.5 L672,105.5 L672,111.5 Z M684,111.5 L696,111.5 L696,105.5 L684,105.5 L684,111.5 Z M697,111.5 L792,111.5 L792,105.5 L697,105.5 L697,111.5 Z M793,111.5 L803,111.5 L803,105.5 L793,105.5 L793,111.5 Z M804,111.5 L815,111.5 L815,105.5 L804,105.5 L804,111.5 Z M816,111.5 L827,111.5 L827,105.5 L816,105.5 L816,111.5 Z M828,111.5 L923,111.5 L923,105.5 L828,105.5 L828,111.5 Z M924,111.5 L934,111.5 L934,105.5 L924,105.5 L924,111.5 Z M935,111.5 L946,111.5 L946,105.5 L935,105.5 L935,111.5 Z M947,111.5 L959,111.5 L959,105.5 L947,105.5 L947,111.5 Z M960,111.5 L1055,111.5 L1055,105.5 L960,105.5 L960,111.5 Z M1056,111.5 L1066,111.5 L1066,105.5 L1056,105.5 L1056,111.5 Z M1067,111.5 L1078,111.5 L1078,105.5 L1067,105.5 L1067,111.5 Z M1079,111.5 L1091,111.5 L1091,105.5 L1079,105.5 L1079,111.5 Z M1092,111.5 L1188,111.5 L1188,105.5 L1092,105.5 L1092,111.5 Z M1189,111.5 L1199,111.5 L1199,105.5 L1189,105.5 L1189,111.5 Z M1200,111.5 L1211,111.5 L1211,105.5 L1200,105.5 L1200,111.5 Z M1212,111.5 L1223,111.5 L1223,105.5 L1212,105.5 L1212,111.5 Z M1224,111.5 L1330,111.5 L1330,105.5 L1224,105.5 L1224,111.5 Z M1331,111.5 L1341,111.5 L1341,105.5 L1331,105.5 L1331,111.5 Z M1342,111.5 L1353,111.5 L1353,105.5 L1342,105.5 L1342,111.5 Z M1354,111.5 L1365,111.5 L1365,105.5 L1354,105.5 L1354,111.5 Z M1366,111.5 L1473,111.5 L1473,105.5 L1366,105.5 L1366,111.5 Z M1474,111.5 L1484,111.5 L1484,105.5 L1474,105.5 L1474,111.5 Z M1485,111.5 L1496,111.5 L1496,105.5 L1485,105.5 L1485,111.5 Z M1497,111.5 L1508,111.5 L1508,105.5 L1497,105.5 L1497,111.5 Z M1509,111.5 L1615,111.5 L1615,105.5 L1509,105.5 L1509,111.5 Z M1616,111.5 L1626,111.5 L1626,105.5 L1616,105.5 L1616,111.5 Z M1627,111.5 L1638,111.5 L1638,105.5 L1627,105.5 L1627,111.5 Z M1639,111.5 L1650,111.5 L1650,105.5 L1639,105.5 L1639,111.5 Z M12,45.5 L23,45.5 L23,39.5 L12,39.5 L12,45.5 Z M24,45.5 L36,45.5 L36,39.5 L24,39.5 L24,45.5 Z M37,45.5 L132,45.5 L132,39.5 L37,39.5 L37,45.5 Z M133,45.5 L143,45.5 L143,39.5 L133,39.5 L133,45.5 Z M144,45.5 L155,45.5 L155,39.5 L144,39.5 L144,45.5 Z M156,45.5 L168,45.5 L168,39.5 L156,39.5 L156,45.5 Z M169,45.5 L264,45.5 L264,39.5 L169,39.5 L169,45.5 Z M265,45.5 L275,45.5 L275,39.5 L265,39.5 L265,45.5 Z M276,45.5 L287,45.5 L287,39.5 L276,39.5 L276,45.5 Z M288,45.5 L300,45.5 L300,39.5 L288,39.5 L288,45.5 Z M301,45.5 L396,45.5 L396,39.5 L301,39.5 L301,45.5 Z M397,45.5 L407,45.5 L407,39.5 L397,39.5 L397,45.5 Z M408,45.5 L419,45.5 L419,39.5 L408,39.5 L408,45.5 Z M420,45.5 L432,45.5 L432,39.5 L420,39.5 L420,45.5 Z M433,45.5 L528,45.5 L528,39.5 L433,39.5 L433,45.5 Z M529,45.5 L539,45.5 L539,39.5 L529,39.5 L529,45.5 Z M540,45.5 L551,45.5 L551,39.5 L540,39.5 L540,45.5 Z M552,45.5 L564,45.5 L564,39.5 L552,39.5 L552,45.5 Z M565,45.5 L660,45.5 L660,39.5 L565,39.5 L565,45.5 Z M661,45.5 L671,45.5 L671,39.5 L661,39.5 L661,45.5 Z M672,45.5 L683,45.5 L683,39.5 L672,39.5 L672,45.5 Z M684,45.5 L696,45.5 L696,39.5 L684,39.5 L684,45.5 Z M697,45.5 L792,45.5 L792,39.5 L697,39.5 L697,45.5 Z M793,45.5 L803,45.5 L803,39.5 L793,39.5 L793,45.5 Z M804,45.5 L815,45.5 L815,39.5 L804,39.5 L804,45.5 Z M816,45.5 L827,45.5 L827,39.5 L816,39.5 L816,45.5 Z M828,45.5 L923,45.5 L923,39.5 L828,39.5 L828,45.5 Z M924,45.5 L934,45.5 L934,39.5 L924,39.5 L924,45.5 Z M935,45.5 L946,45.5 L946,39.5 L935,39.5 L935,45.5 Z M947,45.5 L959,45.5 L959,39.5 L947,39.5 L947,45.5 Z M960,45.5 L1055,45.5 L1055,39.5 L960,39.5 L960,45.5 Z M1056,45.5 L1066,45.5 L1066,39.5 L1056,39.5 L1056,45.5 Z M1067,45.5 L1078,45.5 L1078,39.5 L1067,39.5 L1067,45.5 Z M1079,45.5 L1091,45.5 L1091,39.5 L1079,39.5 L1079,45.5 Z M1092,45.5 L1188,45.5 L1188,39.5 L1092,39.5 L1092,45.5 Z M1189,45.5 L1199,45.5 L1199,39.5 L1189,39.5 L1189,45.5 Z M1200,45.5 L1211,45.5 L1211,39.5 L1200,39.5 L1200,45.5 Z M1212,45.5 L1223,45.5 L1223,39.5 L1212,39.5 L1212,45.5 Z M1224,45.5 L1330,45.5 L1330,39.5 L1224,39.5 L1224,45.5 Z M1331,45.5 L1341,45.5 L1341,39.5 L1331,39.5 L1331,45.5 Z M1342,45.5 L1353,45.5 L1353,39.5 L1342,39.5 L1342,45.5 Z M1354,45.5 L1365,45.5 L1365,39.5 L1354,39.5 L1354,45.5 Z M1366,45.5 L1473,45.5 L1473,39.5 L1366,39.5 L1366,45.5 Z M1474,45.5 L1484,45.5 L1484,39.5 L1474,39.5 L1474,45.5 Z M1485,45.5 L1496,45.5 L1496,39.5 L1485,39.5 L1485,45.5 Z M1497,45.5 L1508,45.5 L1508,39.5 L1497,39.5 L1497,45.5 Z M1509,45.5 L1615,45.5 L1615,39.5 L1509,39.5 L1509,45.5 Z M1616,45.5 L1626,45.5 L1626,39.5 L1616,39.5 L1616,45.5 Z M1627,45.5 L1638,45.5 L1638,39.5 L1627,39.5 L1627,45.5 Z M1639,45.5 L1650,45.5 L1650,39.5 L1639,39.5 L1639,45.5 Z M-1.0352341e-16,0.595370918 L-1.11022302e-16,0.171052632 L1,0.171052632 L1,0.595370918 L1,129.378416 L1,129.802734 L2.17993268e-15,129.802734 L2.17243379e-15,129.378416 L-1.0352341e-16,0.595370918 Z"></path>
                </g>
            </g>
            <rect id="Rectangle-3-Copy-2" fill="#CBCBC1" x="0" y="0" width="1680" height="7"></rect>
        </g>
    </g>
</svg>