<?xml version="1.0" encoding="UTF-8"?>
<svg width="1150px" height="130px" viewBox="0 0 1150 130" version="1.1" xmlns="http://www.w3.org/2000/svg" xmlns:xlink="http://www.w3.org/1999/xlink">
    <!-- Generator: Sketch 42 (36781) - http://www.bohemiancoding.com/sketch -->
    <title>nav bg</title>
    <desc>Created with Sketch.</desc>
    <defs>
        <linearGradient x1="23.7725539%" y1="50%" x2="61.1746652%" y2="50%" id="linearGradient-1">
            <stop stop-color="#FFFFFF" offset="0%"></stop>
            <stop stop-color="#FAFAFA" offset="100%"></stop>
        </linearGradient>
        <path d="M0,0 L1150,0 L1150,130 L210.957035,130 C66.3327282,130 0,0 0,0 Z" id="path-2"></path>
        <linearGradient x1="19.4798732%" y1="45.7916647%" x2="59.0589059%" y2="45.7916647%" id="linearGradient-4">
            <stop stop-color="#F4F4F4" stop-opacity="0" offset="0%"></stop>
            <stop stop-color="#D8D8D8" offset="100%"></stop>
        </linearGradient>
    </defs>
    <g id="Symbols" stroke="none" stroke-width="1" fill="none" fill-rule="evenodd">
        <g id="nav-bg">
            <mask id="mask-3" fill="white">
                <use xlink:href="#path-2"></use>
            </mask>
            <use id="Rectangle-4" fill="url(#linearGradient-1)" xlink:href="#path-2"></use>
            <rect id="Rectangle-3-Copy-2" fill="#CBCBC1" mask="url(#mask-3)" x="-7" y="0" width="1157" height="7"></rect>
            <g id="Bagpipe-Lines" opacity="0.8" mask="url(#mask-3)" fill="url(#linearGradient-4)">
                <g transform="translate(-653.000000, 4.000000)" id="Combined-Shape" opacity="0.334692029">
                    <path d="M11.7298732,98.3289474 L11.7298732,46.3289474 L11.1966971,46.3289474 L11.1966971,45.3289474 L11.7298732,45.3289474 L11.7298732,39.3289474 L11.1966971,39.3289474 L11.1966971,38.3289474 L11.7298732,38.3289474 L11.7298732,32.3289474 L11.1966971,32.3289474 L11.1966971,31.3289474 L11.7298732,31.3289474 L11.7298732,0.424318287 L11.7298732,0 L12.7962253,0 L12.7962253,0.424318287 L12.7962253,31.3289474 L24.5260985,31.3289474 L24.5260985,0.424318287 L24.5260985,0 L25.5924506,0 L25.5924506,0.424318287 L25.5924506,31.3289474 L38.3886759,31.3289474 L38.3886759,0.424318287 L38.3886759,0 L39.455028,0 L39.455028,0.424318287 L39.455028,31.3289474 L140.758478,31.3289474 L140.758478,0.424318287 L140.758478,0 L141.82483,0 L141.82483,0.424318287 L141.82483,31.3289474 L152.488352,31.3289474 L152.488352,0.424318287 L152.488352,0 L153.554704,0 L153.554704,0.424318287 L153.554704,31.3289474 L165.284577,31.3289474 L165.284577,0.424318287 L165.284577,0 L166.350929,0 L166.350929,0.424318287 L166.350929,31.3289474 L179.147154,31.3289474 L179.147154,0.424318287 L179.147154,0 L180.213506,0 L180.213506,0.424318287 L180.213506,31.3289474 L281.516957,31.3289474 L281.516957,0.424318287 L281.516957,0 L282.583309,0 L282.583309,0.424318287 L282.583309,31.3289474 L293.24683,31.3289474 L293.24683,0.424318287 L293.24683,0 L294.313182,0 L294.313182,0.424318287 L294.313182,31.3289474 L306.043055,31.3289474 L306.043055,0.424318287 L306.043055,0 L307.109407,0 L307.109407,0.424318287 L307.109407,31.3289474 L319.905633,31.3289474 L319.905633,0.424318287 L319.905633,0 L320.971985,0 L320.971985,0.424318287 L320.971985,31.3289474 L422.275435,31.3289474 L422.275435,0.424318287 L422.275435,0 L423.341787,0 L423.341787,0.424318287 L423.341787,31.3289474 L434.005308,31.3289474 L434.005308,0.424318287 L434.005308,0 L435.07166,0 L435.07166,0.424318287 L435.07166,31.3289474 L446.801533,31.3289474 L446.801533,0.424318287 L446.801533,0 L447.867886,0 L447.867886,0.424318287 L447.867886,31.3289474 L460.664111,31.3289474 L460.664111,0.424318287 L460.664111,0 L461.730463,0 L461.730463,0.424318287 L461.730463,31.3289474 L563.033913,31.3289474 L563.033913,0.424318287 L563.033913,0 L564.100265,0 L564.100265,0.424318287 L564.100265,31.3289474 L574.763786,31.3289474 L574.763786,0.424318287 L574.763786,0 L575.830139,0 L575.830139,0.424318287 L575.830139,31.3289474 L587.560012,31.3289474 L587.560012,0.424318287 L587.560012,0 L588.626364,0 L588.626364,0.424318287 L588.626364,31.3289474 L601.422589,31.3289474 L601.422589,0.424318287 L601.422589,0 L602.488941,0 L602.488941,0.424318287 L602.488941,31.3289474 L703.792392,31.3289474 L703.792392,0.424318287 L703.792392,0 L704.858744,0 L704.858744,0.424318287 L704.858744,31.3289474 L715.522265,31.3289474 L715.522265,0.424318287 L715.522265,0 L716.588617,0 L716.588617,0.424318287 L716.588617,31.3289474 L728.31849,31.3289474 L728.31849,0.424318287 L728.31849,0 L729.384842,0 L729.384842,0.424318287 L729.384842,31.3289474 L742.181068,31.3289474 L742.181068,0.424318287 L742.181068,0 L743.24742,0 L743.24742,0.424318287 L743.24742,31.3289474 L844.55087,31.3289474 L844.55087,0.424318287 L844.55087,0 L845.617222,0 L845.617222,0.424318287 L845.617222,31.3289474 L856.280743,31.3289474 L856.280743,0.424318287 L856.280743,0 L857.347095,0 L857.347095,0.424318287 L857.347095,31.3289474 L869.076968,31.3289474 L869.076968,0.424318287 L869.076968,0 L870.143321,0 L870.143321,0.424318287 L870.143321,31.3289474 L881.873194,31.3289474 L881.873194,0.424318287 L881.873194,0 L882.939546,0 L882.939546,0.424318287 L882.939546,31.3289474 L984.242996,31.3289474 L984.242996,0.424318287 L984.242996,0 L985.309348,0 L985.309348,0.424318287 L985.309348,31.3289474 L995.972869,31.3289474 L995.972869,0.424318287 L995.972869,0 L997.039221,0 L997.039221,0.424318287 L997.039221,31.3289474 L1008.76909,31.3289474 L1008.76909,0.424318287 L1008.76909,0 L1009.83545,0 L1009.83545,0.424318287 L1009.83545,31.3289474 L1022.63167,31.3289474 L1022.63167,0.424318287 L1022.63167,0 L1023.69802,0 L1023.69802,0.424318287 L1023.69802,31.3289474 L1125.00147,31.3289474 L1125.00147,0.424318287 L1125.00147,0 L1126.06783,0 L1126.06783,0.424318287 L1126.06783,31.3289474 L1136.73135,31.3289474 L1136.73135,0.424318287 L1136.73135,0 L1137.7977,0 L1137.7977,0.424318287 L1137.7977,31.3289474 L1149.52757,31.3289474 L1149.52757,0.424318287 L1149.52757,0 L1150.59393,0 L1150.59393,0.424318287 L1150.59393,31.3289474 L1163.39015,31.3289474 L1163.39015,0.424318287 L1163.39015,0 L1164.4565,0 L1164.4565,0.424318287 L1164.4565,31.3289474 L1266.8263,31.3289474 L1266.8263,0.424318287 L1266.8263,0 L1267.89266,0 L1267.89266,0.424318287 L1267.89266,31.3289474 L1278.55618,31.3289474 L1278.55618,0.424318287 L1278.55618,0 L1279.62253,0 L1279.62253,0.424318287 L1279.62253,31.3289474 L1291.3524,31.3289474 L1291.3524,0.424318287 L1291.3524,0 L1292.41876,0 L1292.41876,0.424318287 L1292.41876,31.3289474 L1304.14863,31.3289474 L1304.14863,0.424318287 L1304.14863,0 L1305.21498,0 L1305.21498,0.424318287 L1305.21498,31.3289474 L1418.2483,31.3289474 L1418.2483,0.424318287 L1418.2483,0 L1419.31466,0 L1419.31466,0.424318287 L1419.31466,31.3289474 L1429.97818,31.3289474 L1429.97818,0.424318287 L1429.97818,0 L1431.04453,0 L1431.04453,0.424318287 L1431.04453,31.3289474 L1442.7744,31.3289474 L1442.7744,0.424318287 L1442.7744,0 L1443.84075,0 L1443.84075,0.424318287 L1443.84075,31.3289474 L1455.57063,31.3289474 L1455.57063,0.424318287 L1455.57063,0 L1456.63698,0 L1456.63698,0.424318287 L1456.63698,31.3289474 L1570.73666,31.3289474 L1570.73666,0.424318287 L1570.73666,0 L1571.80301,0 L1571.80301,0.424318287 L1571.80301,31.3289474 L1582.46653,31.3289474 L1582.46653,0.424318287 L1582.46653,0 L1583.53288,0 L1583.53288,0.424318287 L1583.53288,31.3289474 L1595.26275,31.3289474 L1595.26275,0.424318287 L1595.26275,0 L1596.32911,0 L1596.32911,0.424318287 L1596.32911,31.3289474 L1608.05898,31.3289474 L1608.05898,0.424318287 L1608.05898,0 L1609.12533,0 L1609.12533,0.424318287 L1609.12533,31.3289474 L1722.15866,31.3289474 L1722.15866,0.424318287 L1722.15866,0 L1723.22501,0 L1723.22501,0.424318287 L1723.22501,31.3289474 L1733.88853,31.3289474 L1733.88853,0.424318287 L1733.88853,0 L1734.95488,0 L1734.95488,0.424318287 L1734.95488,31.3289474 L1746.68475,31.3289474 L1746.68475,0.424318287 L1746.68475,0 L1747.75111,0 L1747.75111,0.424318287 L1747.75111,31.3289474 L1759.48098,31.3289474 L1759.48098,0.424318287 L1759.48098,0 L1760.54733,0 L1760.54733,0.424318287 L1760.54733,31.3289474 L1807.46682,31.3289474 L1808,31.3289474 L1808,32.3289474 L1807.46682,32.3289474 L1760.54733,32.3289474 L1760.54733,38.3289474 L1807.46682,38.3289474 L1808,38.3289474 L1808,39.3289474 L1807.46682,39.3289474 L1760.54733,39.3289474 L1760.54733,45.3289474 L1807.46682,45.3289474 L1808,45.3289474 L1808,46.3289474 L1807.46682,46.3289474 L1760.54733,46.3289474 L1760.54733,98.3289474 L1807.46682,98.3289474 L1808,98.3289474 L1808,99.3289474 L1807.46682,99.3289474 L1760.54733,99.3289474 L1760.54733,104.328947 L1807.46682,104.328947 L1808,104.328947 L1808,105.328947 L1807.46682,105.328947 L1760.54733,105.328947 L1760.54733,111.328947 L1807.46682,111.328947 L1808,111.328947 L1808,112.328947 L1807.46682,112.328947 L1760.54733,112.328947 L1760.54733,129.207363 L1760.54733,129.631682 L1759.48098,129.631682 L1759.48098,129.207363 L1759.48098,112.328947 L1747.75111,112.328947 L1747.75111,129.207363 L1747.75111,129.631682 L1746.68475,129.631682 L1746.68475,129.207363 L1746.68475,112.328947 L1734.95488,112.328947 L1734.95488,129.207363 L1734.95488,129.631682 L1733.88853,129.631682 L1733.88853,129.207363 L1733.88853,112.328947 L1723.22501,112.328947 L1723.22501,129.207363 L1723.22501,129.631682 L1722.15866,129.631682 L1722.15866,129.207363 L1722.15866,112.328947 L1609.12533,112.328947 L1609.12533,129.207363 L1609.12533,129.631682 L1608.05898,129.631682 L1608.05898,129.207363 L1608.05898,112.328947 L1596.32911,112.328947 L1596.32911,129.207363 L1596.32911,129.631682 L1595.26275,129.631682 L1595.26275,129.207363 L1595.26275,112.328947 L1583.53288,112.328947 L1583.53288,129.207363 L1583.53288,129.631682 L1582.46653,129.631682 L1582.46653,129.207363 L1582.46653,112.328947 L1571.80301,112.328947 L1571.80301,129.207363 L1571.80301,129.631682 L1570.73666,129.631682 L1570.73666,129.207363 L1570.73666,112.328947 L1456.63698,112.328947 L1456.63698,129.207363 L1456.63698,129.631682 L1455.57063,129.631682 L1455.57063,129.207363 L1455.57063,112.328947 L1443.84075,112.328947 L1443.84075,129.207363 L1443.84075,129.631682 L1442.7744,129.631682 L1442.7744,129.207363 L1442.7744,112.328947 L1431.04453,112.328947 L1431.04453,129.207363 L1431.04453,129.631682 L1429.97818,129.631682 L1429.97818,129.207363 L1429.97818,112.328947 L1419.31466,112.328947 L1419.31466,129.207363 L1419.31466,129.631682 L1418.2483,129.631682 L1418.2483,129.207363 L1418.2483,112.328947 L1305.21498,112.328947 L1305.21498,129.207363 L1305.21498,129.631682 L1304.14863,129.631682 L1304.14863,129.207363 L1304.14863,112.328947 L1292.41876,112.328947 L1292.41876,129.207363 L1292.41876,129.631682 L1291.3524,129.631682 L1291.3524,129.207363 L1291.3524,112.328947 L1279.62253,112.328947 L1279.62253,129.207363 L1279.62253,129.631682 L1278.55618,129.631682 L1278.55618,129.207363 L1278.55618,112.328947 L1267.89266,112.328947 L1267.89266,129.207363 L1267.89266,129.631682 L1266.8263,129.631682 L1266.8263,129.207363 L1266.8263,112.328947 L1164.4565,112.328947 L1164.4565,129.207363 L1164.4565,129.631682 L1163.39015,129.631682 L1163.39015,129.207363 L1163.39015,112.328947 L1150.59393,112.328947 L1150.59393,129.207363 L1150.59393,129.631682 L1149.52757,129.631682 L1149.52757,129.207363 L1149.52757,112.328947 L1137.7977,112.328947 L1137.7977,129.207363 L1137.7977,129.631682 L1136.73135,129.631682 L1136.73135,129.207363 L1136.73135,112.328947 L1126.06783,112.328947 L1126.06783,129.207363 L1126.06783,129.631682 L1125.00147,129.631682 L1125.00147,129.207363 L1125.00147,112.328947 L1023.69802,112.328947 L1023.69802,129.207363 L1023.69802,129.631682 L1022.63167,129.631682 L1022.63167,129.207363 L1022.63167,112.328947 L1009.83545,112.328947 L1009.83545,129.207363 L1009.83545,129.631682 L1008.76909,129.631682 L1008.76909,129.207363 L1008.76909,112.328947 L997.039221,112.328947 L997.039221,129.207363 L997.039221,129.631682 L995.972869,129.631682 L995.972869,129.207363 L995.972869,112.328947 L985.309348,112.328947 L985.309348,129.207363 L985.309348,129.631682 L984.242996,129.631682 L984.242996,129.207363 L984.242996,112.328947 L882.939546,112.328947 L882.939546,129.207363 L882.939546,129.631682 L881.873194,129.631682 L881.873194,129.207363 L881.873194,112.328947 L870.143321,112.328947 L870.143321,129.207363 L870.143321,129.631682 L869.076968,129.631682 L869.076968,129.207363 L869.076968,112.328947 L857.347095,112.328947 L857.347095,129.207363 L857.347095,129.631682 L856.280743,129.631682 L856.280743,129.207363 L856.280743,112.328947 L845.617222,112.328947 L845.617222,129.207363 L845.617222,129.631682 L844.55087,129.631682 L844.55087,129.207363 L844.55087,112.328947 L743.24742,112.328947 L743.24742,129.207363 L743.24742,129.631682 L742.181068,129.631682 L742.181068,129.207363 L742.181068,112.328947 L729.384842,112.328947 L729.384842,129.207363 L729.384842,129.631682 L728.31849,129.631682 L728.31849,129.207363 L728.31849,112.328947 L716.588617,112.328947 L716.588617,129.207363 L716.588617,129.631682 L715.522265,129.631682 L715.522265,129.207363 L715.522265,112.328947 L704.858744,112.328947 L704.858744,129.207363 L704.858744,129.631682 L703.792392,129.631682 L703.792392,129.207363 L703.792392,112.328947 L602.488941,112.328947 L602.488941,129.207363 L602.488941,129.631682 L601.422589,129.631682 L601.422589,129.207363 L601.422589,112.328947 L588.626364,112.328947 L588.626364,129.207363 L588.626364,129.631682 L587.560012,129.631682 L587.560012,129.207363 L587.560012,112.328947 L575.830139,112.328947 L575.830139,129.207363 L575.830139,129.631682 L574.763786,129.631682 L574.763786,129.207363 L574.763786,112.328947 L564.100265,112.328947 L564.100265,129.207363 L564.100265,129.631682 L563.033913,129.631682 L563.033913,129.207363 L563.033913,112.328947 L461.730463,112.328947 L461.730463,129.207363 L461.730463,129.631682 L460.664111,129.631682 L460.664111,129.207363 L460.664111,112.328947 L447.867886,112.328947 L447.867886,129.207363 L447.867886,129.631682 L446.801533,129.631682 L446.801533,129.207363 L446.801533,112.328947 L435.07166,112.328947 L435.07166,129.207363 L435.07166,129.631682 L434.005308,129.631682 L434.005308,129.207363 L434.005308,112.328947 L423.341787,112.328947 L423.341787,129.207363 L423.341787,129.631682 L422.275435,129.631682 L422.275435,129.207363 L422.275435,112.328947 L320.971985,112.328947 L320.971985,129.207363 L320.971985,129.631682 L319.905633,129.631682 L319.905633,129.207363 L319.905633,112.328947 L307.109407,112.328947 L307.109407,129.207363 L307.109407,129.631682 L306.043055,129.631682 L306.043055,129.207363 L306.043055,112.328947 L294.313182,112.328947 L294.313182,129.207363 L294.313182,129.631682 L293.24683,129.631682 L293.24683,129.207363 L293.24683,112.328947 L282.583309,112.328947 L282.583309,129.207363 L282.583309,129.631682 L281.516957,129.631682 L281.516957,129.207363 L281.516957,112.328947 L180.213506,112.328947 L180.213506,129.207363 L180.213506,129.631682 L179.147154,129.631682 L179.147154,129.207363 L179.147154,112.328947 L166.350929,112.328947 L166.350929,129.207363 L166.350929,129.631682 L165.284577,129.631682 L165.284577,129.207363 L165.284577,112.328947 L153.554704,112.328947 L153.554704,129.207363 L153.554704,129.631682 L152.488352,129.631682 L152.488352,129.207363 L152.488352,112.328947 L141.82483,112.328947 L141.82483,129.207363 L141.82483,129.631682 L140.758478,129.631682 L140.758478,129.207363 L140.758478,112.328947 L39.455028,112.328947 L39.455028,129.207363 L39.455028,129.631682 L38.3886759,129.631682 L38.3886759,129.207363 L38.3886759,112.328947 L25.5924506,112.328947 L25.5924506,129.207363 L25.5924506,129.631682 L24.5260985,129.631682 L24.5260985,129.207363 L24.5260985,112.328947 L12.7962253,112.328947 L12.7962253,129.207363 L12.7962253,129.631682 L11.7298732,129.631682 L11.7298732,129.207363 L11.7298732,112.328947 L11.1966971,112.328947 L11.1966971,111.328947 L11.7298732,111.328947 L11.7298732,105.328947 L11.1966971,105.328947 L11.1966971,104.328947 L11.7298732,104.328947 L11.7298732,99.3289474 L11.1966971,99.3289474 L11.1966971,98.3289474 L11.7298732,98.3289474 Z M12.7962253,98.3289474 L24.5260985,98.3289474 L24.5260985,46.3289474 L12.7962253,46.3289474 L12.7962253,98.3289474 Z M12.7962253,99.3289474 L12.7962253,104.328947 L24.5260985,104.328947 L24.5260985,99.3289474 L12.7962253,99.3289474 Z M25.5924506,98.3289474 L38.3886759,98.3289474 L38.3886759,46.3289474 L25.5924506,46.3289474 L25.5924506,98.3289474 Z M25.5924506,99.3289474 L25.5924506,104.328947 L38.3886759,104.328947 L38.3886759,99.3289474 L25.5924506,99.3289474 Z M39.455028,98.3289474 L140.758478,98.3289474 L140.758478,46.3289474 L39.455028,46.3289474 L39.455028,98.3289474 Z M39.455028,99.3289474 L39.455028,104.328947 L140.758478,104.328947 L140.758478,99.3289474 L39.455028,99.3289474 Z M141.82483,98.3289474 L152.488352,98.3289474 L152.488352,46.3289474 L141.82483,46.3289474 L141.82483,98.3289474 Z M141.82483,99.3289474 L141.82483,104.328947 L152.488352,104.328947 L152.488352,99.3289474 L141.82483,99.3289474 Z M153.554704,98.3289474 L165.284577,98.3289474 L165.284577,46.3289474 L153.554704,46.3289474 L153.554704,98.3289474 Z M153.554704,99.3289474 L153.554704,104.328947 L165.284577,104.328947 L165.284577,99.3289474 L153.554704,99.3289474 Z M166.350929,98.3289474 L179.147154,98.3289474 L179.147154,46.3289474 L166.350929,46.3289474 L166.350929,98.3289474 Z M166.350929,99.3289474 L166.350929,104.328947 L179.147154,104.328947 L179.147154,99.3289474 L166.350929,99.3289474 Z M180.213506,98.3289474 L281.516957,98.3289474 L281.516957,46.3289474 L180.213506,46.3289474 L180.213506,98.3289474 Z M180.213506,99.3289474 L180.213506,104.328947 L281.516957,104.328947 L281.516957,99.3289474 L180.213506,99.3289474 Z M282.583309,98.3289474 L293.24683,98.3289474 L293.24683,46.3289474 L282.583309,46.3289474 L282.583309,98.3289474 Z M282.583309,99.3289474 L282.583309,104.328947 L293.24683,104.328947 L293.24683,99.3289474 L282.583309,99.3289474 Z M294.313182,98.3289474 L306.043055,98.3289474 L306.043055,46.3289474 L294.313182,46.3289474 L294.313182,98.3289474 Z M294.313182,99.3289474 L294.313182,104.328947 L306.043055,104.328947 L306.043055,99.3289474 L294.313182,99.3289474 Z M307.109407,98.3289474 L319.905633,98.3289474 L319.905633,46.3289474 L307.109407,46.3289474 L307.109407,98.3289474 Z M307.109407,99.3289474 L307.109407,104.328947 L319.905633,104.328947 L319.905633,99.3289474 L307.109407,99.3289474 Z M320.971985,98.3289474 L422.275435,98.3289474 L422.275435,46.3289474 L320.971985,46.3289474 L320.971985,98.3289474 Z M320.971985,99.3289474 L320.971985,104.328947 L422.275435,104.328947 L422.275435,99.3289474 L320.971985,99.3289474 Z M423.341787,98.3289474 L434.005308,98.3289474 L434.005308,46.3289474 L423.341787,46.3289474 L423.341787,98.3289474 Z M423.341787,99.3289474 L423.341787,104.328947 L434.005308,104.328947 L434.005308,99.3289474 L423.341787,99.3289474 Z M435.07166,98.3289474 L446.801533,98.3289474 L446.801533,46.3289474 L435.07166,46.3289474 L435.07166,98.3289474 Z M435.07166,99.3289474 L435.07166,104.328947 L446.801533,104.328947 L446.801533,99.3289474 L435.07166,99.3289474 Z M447.867886,98.3289474 L460.664111,98.3289474 L460.664111,46.3289474 L447.867886,46.3289474 L447.867886,98.3289474 Z M447.867886,99.3289474 L447.867886,104.328947 L460.664111,104.328947 L460.664111,99.3289474 L447.867886,99.3289474 Z M461.730463,98.3289474 L563.033913,98.3289474 L563.033913,46.3289474 L461.730463,46.3289474 L461.730463,98.3289474 Z M461.730463,99.3289474 L461.730463,104.328947 L563.033913,104.328947 L563.033913,99.3289474 L461.730463,99.3289474 Z M564.100265,98.3289474 L574.763786,98.3289474 L574.763786,46.3289474 L564.100265,46.3289474 L564.100265,98.3289474 Z M564.100265,99.3289474 L564.100265,104.328947 L574.763786,104.328947 L574.763786,99.3289474 L564.100265,99.3289474 Z M575.830139,98.3289474 L587.560012,98.3289474 L587.560012,46.3289474 L575.830139,46.3289474 L575.830139,98.3289474 Z M575.830139,99.3289474 L575.830139,104.328947 L587.560012,104.328947 L587.560012,99.3289474 L575.830139,99.3289474 Z M588.626364,98.3289474 L601.422589,98.3289474 L601.422589,46.3289474 L588.626364,46.3289474 L588.626364,98.3289474 Z M588.626364,99.3289474 L588.626364,104.328947 L601.422589,104.328947 L601.422589,99.3289474 L588.626364,99.3289474 Z M602.488941,98.3289474 L703.792392,98.3289474 L703.792392,46.3289474 L602.488941,46.3289474 L602.488941,98.3289474 Z M602.488941,99.3289474 L602.488941,104.328947 L703.792392,104.328947 L703.792392,99.3289474 L602.488941,99.3289474 Z M704.858744,98.3289474 L715.522265,98.3289474 L715.522265,46.3289474 L704.858744,46.3289474 L704.858744,98.3289474 Z M704.858744,99.3289474 L704.858744,104.328947 L715.522265,104.328947 L715.522265,99.3289474 L704.858744,99.3289474 Z M716.588617,98.3289474 L728.31849,98.3289474 L728.31849,46.3289474 L716.588617,46.3289474 L716.588617,98.3289474 Z M716.588617,99.3289474 L716.588617,104.328947 L728.31849,104.328947 L728.31849,99.3289474 L716.588617,99.3289474 Z M729.384842,98.3289474 L742.181068,98.3289474 L742.181068,46.3289474 L729.384842,46.3289474 L729.384842,98.3289474 Z M729.384842,99.3289474 L729.384842,104.328947 L742.181068,104.328947 L742.181068,99.3289474 L729.384842,99.3289474 Z M743.24742,98.3289474 L844.55087,98.3289474 L844.55087,46.3289474 L743.24742,46.3289474 L743.24742,98.3289474 Z M743.24742,99.3289474 L743.24742,104.328947 L844.55087,104.328947 L844.55087,99.3289474 L743.24742,99.3289474 Z M845.617222,98.3289474 L856.280743,98.3289474 L856.280743,46.3289474 L845.617222,46.3289474 L845.617222,98.3289474 Z M845.617222,99.3289474 L845.617222,104.328947 L856.280743,104.328947 L856.280743,99.3289474 L845.617222,99.3289474 Z M857.347095,98.3289474 L869.076968,98.3289474 L869.076968,46.3289474 L857.347095,46.3289474 L857.347095,98.3289474 Z M857.347095,99.3289474 L857.347095,104.328947 L869.076968,104.328947 L869.076968,99.3289474 L857.347095,99.3289474 Z M870.143321,98.3289474 L881.873194,98.3289474 L881.873194,46.3289474 L870.143321,46.3289474 L870.143321,98.3289474 Z M870.143321,99.3289474 L870.143321,104.328947 L881.873194,104.328947 L881.873194,99.3289474 L870.143321,99.3289474 Z M882.939546,98.3289474 L984.242996,98.3289474 L984.242996,46.3289474 L882.939546,46.3289474 L882.939546,98.3289474 Z M882.939546,99.3289474 L882.939546,104.328947 L984.242996,104.328947 L984.242996,99.3289474 L882.939546,99.3289474 Z M985.309348,98.3289474 L995.972869,98.3289474 L995.972869,46.3289474 L985.309348,46.3289474 L985.309348,98.3289474 Z M985.309348,99.3289474 L985.309348,104.328947 L995.972869,104.328947 L995.972869,99.3289474 L985.309348,99.3289474 Z M997.039221,98.3289474 L1008.76909,98.3289474 L1008.76909,46.3289474 L997.039221,46.3289474 L997.039221,98.3289474 Z M997.039221,99.3289474 L997.039221,104.328947 L1008.76909,104.328947 L1008.76909,99.3289474 L997.039221,99.3289474 Z M1009.83545,98.3289474 L1022.63167,98.3289474 L1022.63167,46.3289474 L1009.83545,46.3289474 L1009.83545,98.3289474 Z M1009.83545,99.3289474 L1009.83545,104.328947 L1022.63167,104.328947 L1022.63167,99.3289474 L1009.83545,99.3289474 Z M1023.69802,98.3289474 L1125.00147,98.3289474 L1125.00147,46.3289474 L1023.69802,46.3289474 L1023.69802,98.3289474 Z M1023.69802,99.3289474 L1023.69802,104.328947 L1125.00147,104.328947 L1125.00147,99.3289474 L1023.69802,99.3289474 Z M1126.06783,98.3289474 L1136.73135,98.3289474 L1136.73135,46.3289474 L1126.06783,46.3289474 L1126.06783,98.3289474 Z M1126.06783,99.3289474 L1126.06783,104.328947 L1136.73135,104.328947 L1136.73135,99.3289474 L1126.06783,99.3289474 Z M1137.7977,98.3289474 L1149.52757,98.3289474 L1149.52757,46.3289474 L1137.7977,46.3289474 L1137.7977,98.3289474 Z M1137.7977,99.3289474 L1137.7977,104.328947 L1149.52757,104.328947 L1149.52757,99.3289474 L1137.7977,99.3289474 Z M1150.59393,98.3289474 L1163.39015,98.3289474 L1163.39015,46.3289474 L1150.59393,46.3289474 L1150.59393,98.3289474 Z M1150.59393,99.3289474 L1150.59393,104.328947 L1163.39015,104.328947 L1163.39015,99.3289474 L1150.59393,99.3289474 Z M1164.4565,98.3289474 L1266.8263,98.3289474 L1266.8263,46.3289474 L1164.4565,46.3289474 L1164.4565,98.3289474 Z M1164.4565,99.3289474 L1164.4565,104.328947 L1266.8263,104.328947 L1266.8263,99.3289474 L1164.4565,99.3289474 Z M1267.89266,98.3289474 L1278.55618,98.3289474 L1278.55618,46.3289474 L1267.89266,46.3289474 L1267.89266,98.3289474 Z M1267.89266,99.3289474 L1267.89266,104.328947 L1278.55618,104.328947 L1278.55618,99.3289474 L1267.89266,99.3289474 Z M1279.62253,98.3289474 L1291.3524,98.3289474 L1291.3524,46.3289474 L1279.62253,46.3289474 L1279.62253,98.3289474 Z M1279.62253,99.3289474 L1279.62253,104.328947 L1291.3524,104.328947 L1291.3524,99.3289474 L1279.62253,99.3289474 Z M1292.41876,98.3289474 L1304.14863,98.3289474 L1304.14863,46.3289474 L1292.41876,46.3289474 L1292.41876,98.3289474 Z M1292.41876,99.3289474 L1292.41876,104.328947 L1304.14863,104.328947 L1304.14863,99.3289474 L1292.41876,99.3289474 Z M1305.21498,98.3289474 L1418.2483,98.3289474 L1418.2483,46.3289474 L1305.21498,46.3289474 L1305.21498,98.3289474 Z M1305.21498,99.3289474 L1305.21498,104.328947 L1418.2483,104.328947 L1418.2483,99.3289474 L1305.21498,99.3289474 Z M1419.31466,98.3289474 L1429.97818,98.3289474 L1429.97818,46.3289474 L1419.31466,46.3289474 L1419.31466,98.3289474 Z M1419.31466,99.3289474 L1419.31466,104.328947 L1429.97818,104.328947 L1429.97818,99.3289474 L1419.31466,99.3289474 Z M1431.04453,98.3289474 L1442.7744,98.3289474 L1442.7744,46.3289474 L1431.04453,46.3289474 L1431.04453,98.3289474 Z M1431.04453,99.3289474 L1431.04453,104.328947 L1442.7744,104.328947 L1442.7744,99.3289474 L1431.04453,99.3289474 Z M1443.84075,98.3289474 L1455.57063,98.3289474 L1455.57063,46.3289474 L1443.84075,46.3289474 L1443.84075,98.3289474 Z M1443.84075,99.3289474 L1443.84075,104.328947 L1455.57063,104.328947 L1455.57063,99.3289474 L1443.84075,99.3289474 Z M1456.63698,98.3289474 L1570.73666,98.3289474 L1570.73666,46.3289474 L1456.63698,46.3289474 L1456.63698,98.3289474 Z M1456.63698,99.3289474 L1456.63698,104.328947 L1570.73666,104.328947 L1570.73666,99.3289474 L1456.63698,99.3289474 Z M1571.80301,98.3289474 L1582.46653,98.3289474 L1582.46653,46.3289474 L1571.80301,46.3289474 L1571.80301,98.3289474 Z M1571.80301,99.3289474 L1571.80301,104.328947 L1582.46653,104.328947 L1582.46653,99.3289474 L1571.80301,99.3289474 Z M1583.53288,98.3289474 L1595.26275,98.3289474 L1595.26275,46.3289474 L1583.53288,46.3289474 L1583.53288,98.3289474 Z M1583.53288,99.3289474 L1583.53288,104.328947 L1595.26275,104.328947 L1595.26275,99.3289474 L1583.53288,99.3289474 Z M1596.32911,98.3289474 L1608.05898,98.3289474 L1608.05898,46.3289474 L1596.32911,46.3289474 L1596.32911,98.3289474 Z M1596.32911,99.3289474 L1596.32911,104.328947 L1608.05898,104.328947 L1608.05898,99.3289474 L1596.32911,99.3289474 Z M1609.12533,98.3289474 L1722.15866,98.3289474 L1722.15866,46.3289474 L1609.12533,46.3289474 L1609.12533,98.3289474 Z M1609.12533,99.3289474 L1609.12533,104.328947 L1722.15866,104.328947 L1722.15866,99.3289474 L1609.12533,99.3289474 Z M1723.22501,98.3289474 L1733.88853,98.3289474 L1733.88853,46.3289474 L1723.22501,46.3289474 L1723.22501,98.3289474 Z M1723.22501,99.3289474 L1723.22501,104.328947 L1733.88853,104.328947 L1733.88853,99.3289474 L1723.22501,99.3289474 Z M1734.95488,98.3289474 L1746.68475,98.3289474 L1746.68475,46.3289474 L1734.95488,46.3289474 L1734.95488,98.3289474 Z M1734.95488,99.3289474 L1734.95488,104.328947 L1746.68475,104.328947 L1746.68475,99.3289474 L1734.95488,99.3289474 Z M1747.75111,98.3289474 L1759.48098,98.3289474 L1759.48098,46.3289474 L1747.75111,46.3289474 L1747.75111,98.3289474 Z M1747.75111,99.3289474 L1747.75111,104.328947 L1759.48098,104.328947 L1759.48098,99.3289474 L1747.75111,99.3289474 Z M12.7962253,32.3289474 L12.7962253,38.3289474 L24.5260985,38.3289474 L24.5260985,32.3289474 L12.7962253,32.3289474 Z M25.5924506,32.3289474 L25.5924506,38.3289474 L38.3886759,38.3289474 L38.3886759,32.3289474 L25.5924506,32.3289474 Z M39.455028,32.3289474 L39.455028,38.3289474 L140.758478,38.3289474 L140.758478,32.3289474 L39.455028,32.3289474 Z M141.82483,32.3289474 L141.82483,38.3289474 L152.488352,38.3289474 L152.488352,32.3289474 L141.82483,32.3289474 Z M153.554704,32.3289474 L153.554704,38.3289474 L165.284577,38.3289474 L165.284577,32.3289474 L153.554704,32.3289474 Z M166.350929,32.3289474 L166.350929,38.3289474 L179.147154,38.3289474 L179.147154,32.3289474 L166.350929,32.3289474 Z M180.213506,32.3289474 L180.213506,38.3289474 L281.516957,38.3289474 L281.516957,32.3289474 L180.213506,32.3289474 Z M282.583309,32.3289474 L282.583309,38.3289474 L293.24683,38.3289474 L293.24683,32.3289474 L282.583309,32.3289474 Z M294.313182,32.3289474 L294.313182,38.3289474 L306.043055,38.3289474 L306.043055,32.3289474 L294.313182,32.3289474 Z M307.109407,32.3289474 L307.109407,38.3289474 L319.905633,38.3289474 L319.905633,32.3289474 L307.109407,32.3289474 Z M320.971985,32.3289474 L320.971985,38.3289474 L422.275435,38.3289474 L422.275435,32.3289474 L320.971985,32.3289474 Z M423.341787,32.3289474 L423.341787,38.3289474 L434.005308,38.3289474 L434.005308,32.3289474 L423.341787,32.3289474 Z M435.07166,32.3289474 L435.07166,38.3289474 L446.801533,38.3289474 L446.801533,32.3289474 L435.07166,32.3289474 Z M447.867886,32.3289474 L447.867886,38.3289474 L460.664111,38.3289474 L460.664111,32.3289474 L447.867886,32.3289474 Z M461.730463,32.3289474 L461.730463,38.3289474 L563.033913,38.3289474 L563.033913,32.3289474 L461.730463,32.3289474 Z M564.100265,32.3289474 L564.100265,38.3289474 L574.763786,38.3289474 L574.763786,32.3289474 L564.100265,32.3289474 Z M575.830139,32.3289474 L575.830139,38.3289474 L587.560012,38.3289474 L587.560012,32.3289474 L575.830139,32.3289474 Z M588.626364,32.3289474 L588.626364,38.3289474 L601.422589,38.3289474 L601.422589,32.3289474 L588.626364,32.3289474 Z M602.488941,32.3289474 L602.488941,38.3289474 L703.792392,38.3289474 L703.792392,32.3289474 L602.488941,32.3289474 Z M704.858744,32.3289474 L704.858744,38.3289474 L715.522265,38.3289474 L715.522265,32.3289474 L704.858744,32.3289474 Z M716.588617,32.3289474 L716.588617,38.3289474 L728.31849,38.3289474 L728.31849,32.3289474 L716.588617,32.3289474 Z M729.384842,32.3289474 L729.384842,38.3289474 L742.181068,38.3289474 L742.181068,32.3289474 L729.384842,32.3289474 Z M743.24742,32.3289474 L743.24742,38.3289474 L844.55087,38.3289474 L844.55087,32.3289474 L743.24742,32.3289474 Z M845.617222,32.3289474 L845.617222,38.3289474 L856.280743,38.3289474 L856.280743,32.3289474 L845.617222,32.3289474 Z M857.347095,32.3289474 L857.347095,38.3289474 L869.076968,38.3289474 L869.076968,32.3289474 L857.347095,32.3289474 Z M870.143321,32.3289474 L870.143321,38.3289474 L881.873194,38.3289474 L881.873194,32.3289474 L870.143321,32.3289474 Z M882.939546,32.3289474 L882.939546,38.3289474 L984.242996,38.3289474 L984.242996,32.3289474 L882.939546,32.3289474 Z M985.309348,32.3289474 L985.309348,38.3289474 L995.972869,38.3289474 L995.972869,32.3289474 L985.309348,32.3289474 Z M997.039221,32.3289474 L997.039221,38.3289474 L1008.76909,38.3289474 L1008.76909,32.3289474 L997.039221,32.3289474 Z M1009.83545,32.3289474 L1009.83545,38.3289474 L1022.63167,38.3289474 L1022.63167,32.3289474 L1009.83545,32.3289474 Z M1023.69802,32.3289474 L1023.69802,38.3289474 L1125.00147,38.3289474 L1125.00147,32.3289474 L1023.69802,32.3289474 Z M1126.06783,32.3289474 L1126.06783,38.3289474 L1136.73135,38.3289474 L1136.73135,32.3289474 L1126.06783,32.3289474 Z M1137.7977,32.3289474 L1137.7977,38.3289474 L1149.52757,38.3289474 L1149.52757,32.3289474 L1137.7977,32.3289474 Z M1150.59393,32.3289474 L1150.59393,38.3289474 L1163.39015,38.3289474 L1163.39015,32.3289474 L1150.59393,32.3289474 Z M1164.4565,32.3289474 L1164.4565,38.3289474 L1266.8263,38.3289474 L1266.8263,32.3289474 L1164.4565,32.3289474 Z M1267.89266,32.3289474 L1267.89266,38.3289474 L1278.55618,38.3289474 L1278.55618,32.3289474 L1267.89266,32.3289474 Z M1279.62253,32.3289474 L1279.62253,38.3289474 L1291.3524,38.3289474 L1291.3524,32.3289474 L1279.62253,32.3289474 Z M1292.41876,32.3289474 L1292.41876,38.3289474 L1304.14863,38.3289474 L1304.14863,32.3289474 L1292.41876,32.3289474 Z M1305.21498,32.3289474 L1305.21498,38.3289474 L1418.2483,38.3289474 L1418.2483,32.3289474 L1305.21498,32.3289474 Z M1419.31466,32.3289474 L1419.31466,38.3289474 L1429.97818,38.3289474 L1429.97818,32.3289474 L1419.31466,32.3289474 Z M1431.04453,32.3289474 L1431.04453,38.3289474 L1442.7744,38.3289474 L1442.7744,32.3289474 L1431.04453,32.3289474 Z M1443.84075,32.3289474 L1443.84075,38.3289474 L1455.57063,38.3289474 L1455.57063,32.3289474 L1443.84075,32.3289474 Z M1456.63698,32.3289474 L1456.63698,38.3289474 L1570.73666,38.3289474 L1570.73666,32.3289474 L1456.63698,32.3289474 Z M1571.80301,32.3289474 L1571.80301,38.3289474 L1582.46653,38.3289474 L1582.46653,32.3289474 L1571.80301,32.3289474 Z M1583.53288,32.3289474 L1583.53288,38.3289474 L1595.26275,38.3289474 L1595.26275,32.3289474 L1583.53288,32.3289474 Z M1596.32911,32.3289474 L1596.32911,38.3289474 L1608.05898,38.3289474 L1608.05898,32.3289474 L1596.32911,32.3289474 Z M1609.12533,32.3289474 L1609.12533,38.3289474 L1722.15866,38.3289474 L1722.15866,32.3289474 L1609.12533,32.3289474 Z M1723.22501,32.3289474 L1723.22501,38.3289474 L1733.88853,38.3289474 L1733.88853,32.3289474 L1723.22501,32.3289474 Z M1734.95488,32.3289474 L1734.95488,38.3289474 L1746.68475,38.3289474 L1746.68475,32.3289474 L1734.95488,32.3289474 Z M1747.75111,32.3289474 L1747.75111,38.3289474 L1759.48098,38.3289474 L1759.48098,32.3289474 L1747.75111,32.3289474 Z M12.7962253,111.328947 L24.5260985,111.328947 L24.5260985,105.328947 L12.7962253,105.328947 L12.7962253,111.328947 Z M25.5924506,111.328947 L38.3886759,111.328947 L38.3886759,105.328947 L25.5924506,105.328947 L25.5924506,111.328947 Z M39.455028,111.328947 L140.758478,111.328947 L140.758478,105.328947 L39.455028,105.328947 L39.455028,111.328947 Z M141.82483,111.328947 L152.488352,111.328947 L152.488352,105.328947 L141.82483,105.328947 L141.82483,111.328947 Z M153.554704,111.328947 L165.284577,111.328947 L165.284577,105.328947 L153.554704,105.328947 L153.554704,111.328947 Z M166.350929,111.328947 L179.147154,111.328947 L179.147154,105.328947 L166.350929,105.328947 L166.350929,111.328947 Z M180.213506,111.328947 L281.516957,111.328947 L281.516957,105.328947 L180.213506,105.328947 L180.213506,111.328947 Z M282.583309,111.328947 L293.24683,111.328947 L293.24683,105.328947 L282.583309,105.328947 L282.583309,111.328947 Z M294.313182,111.328947 L306.043055,111.328947 L306.043055,105.328947 L294.313182,105.328947 L294.313182,111.328947 Z M307.109407,111.328947 L319.905633,111.328947 L319.905633,105.328947 L307.109407,105.328947 L307.109407,111.328947 Z M320.971985,111.328947 L422.275435,111.328947 L422.275435,105.328947 L320.971985,105.328947 L320.971985,111.328947 Z M423.341787,111.328947 L434.005308,111.328947 L434.005308,105.328947 L423.341787,105.328947 L423.341787,111.328947 Z M435.07166,111.328947 L446.801533,111.328947 L446.801533,105.328947 L435.07166,105.328947 L435.07166,111.328947 Z M447.867886,111.328947 L460.664111,111.328947 L460.664111,105.328947 L447.867886,105.328947 L447.867886,111.328947 Z M461.730463,111.328947 L563.033913,111.328947 L563.033913,105.328947 L461.730463,105.328947 L461.730463,111.328947 Z M564.100265,111.328947 L574.763786,111.328947 L574.763786,105.328947 L564.100265,105.328947 L564.100265,111.328947 Z M575.830139,111.328947 L587.560012,111.328947 L587.560012,105.328947 L575.830139,105.328947 L575.830139,111.328947 Z M588.626364,111.328947 L601.422589,111.328947 L601.422589,105.328947 L588.626364,105.328947 L588.626364,111.328947 Z M602.488941,111.328947 L703.792392,111.328947 L703.792392,105.328947 L602.488941,105.328947 L602.488941,111.328947 Z M704.858744,111.328947 L715.522265,111.328947 L715.522265,105.328947 L704.858744,105.328947 L704.858744,111.328947 Z M716.588617,111.328947 L728.31849,111.328947 L728.31849,105.328947 L716.588617,105.328947 L716.588617,111.328947 Z M729.384842,111.328947 L742.181068,111.328947 L742.181068,105.328947 L729.384842,105.328947 L729.384842,111.328947 Z M743.24742,111.328947 L844.55087,111.328947 L844.55087,105.328947 L743.24742,105.328947 L743.24742,111.328947 Z M845.617222,111.328947 L856.280743,111.328947 L856.280743,105.328947 L845.617222,105.328947 L845.617222,111.328947 Z M857.347095,111.328947 L869.076968,111.328947 L869.076968,105.328947 L857.347095,105.328947 L857.347095,111.328947 Z M870.143321,111.328947 L881.873194,111.328947 L881.873194,105.328947 L870.143321,105.328947 L870.143321,111.328947 Z M882.939546,111.328947 L984.242996,111.328947 L984.242996,105.328947 L882.939546,105.328947 L882.939546,111.328947 Z M985.309348,111.328947 L995.972869,111.328947 L995.972869,105.328947 L985.309348,105.328947 L985.309348,111.328947 Z M997.039221,111.328947 L1008.76909,111.328947 L1008.76909,105.328947 L997.039221,105.328947 L997.039221,111.328947 Z M1009.83545,111.328947 L1022.63167,111.328947 L1022.63167,105.328947 L1009.83545,105.328947 L1009.83545,111.328947 Z M1023.69802,111.328947 L1125.00147,111.328947 L1125.00147,105.328947 L1023.69802,105.328947 L1023.69802,111.328947 Z M1126.06783,111.328947 L1136.73135,111.328947 L1136.73135,105.328947 L1126.06783,105.328947 L1126.06783,111.328947 Z M1137.7977,111.328947 L1149.52757,111.328947 L1149.52757,105.328947 L1137.7977,105.328947 L1137.7977,111.328947 Z M1150.59393,111.328947 L1163.39015,111.328947 L1163.39015,105.328947 L1150.59393,105.328947 L1150.59393,111.328947 Z M1164.4565,111.328947 L1266.8263,111.328947 L1266.8263,105.328947 L1164.4565,105.328947 L1164.4565,111.328947 Z M1267.89266,111.328947 L1278.55618,111.328947 L1278.55618,105.328947 L1267.89266,105.328947 L1267.89266,111.328947 Z M1279.62253,111.328947 L1291.3524,111.328947 L1291.3524,105.328947 L1279.62253,105.328947 L1279.62253,111.328947 Z M1292.41876,111.328947 L1304.14863,111.328947 L1304.14863,105.328947 L1292.41876,105.328947 L1292.41876,111.328947 Z M1305.21498,111.328947 L1418.2483,111.328947 L1418.2483,105.328947 L1305.21498,105.328947 L1305.21498,111.328947 Z M1419.31466,111.328947 L1429.97818,111.328947 L1429.97818,105.328947 L1419.31466,105.328947 L1419.31466,111.328947 Z M1431.04453,111.328947 L1442.7744,111.328947 L1442.7744,105.328947 L1431.04453,105.328947 L1431.04453,111.328947 Z M1443.84075,111.328947 L1455.57063,111.328947 L1455.57063,105.328947 L1443.84075,105.328947 L1443.84075,111.328947 Z M1456.63698,111.328947 L1570.73666,111.328947 L1570.73666,105.328947 L1456.63698,105.328947 L1456.63698,111.328947 Z M1571.80301,111.328947 L1582.46653,111.328947 L1582.46653,105.328947 L1571.80301,105.328947 L1571.80301,111.328947 Z M1583.53288,111.328947 L1595.26275,111.328947 L1595.26275,105.328947 L1583.53288,105.328947 L1583.53288,111.328947 Z M1596.32911,111.328947 L1608.05898,111.328947 L1608.05898,105.328947 L1596.32911,105.328947 L1596.32911,111.328947 Z M1609.12533,111.328947 L1722.15866,111.328947 L1722.15866,105.328947 L1609.12533,105.328947 L1609.12533,111.328947 Z M1723.22501,111.328947 L1733.88853,111.328947 L1733.88853,105.328947 L1723.22501,105.328947 L1723.22501,111.328947 Z M1734.95488,111.328947 L1746.68475,111.328947 L1746.68475,105.328947 L1734.95488,105.328947 L1734.95488,111.328947 Z M1747.75111,111.328947 L1759.48098,111.328947 L1759.48098,105.328947 L1747.75111,105.328947 L1747.75111,111.328947 Z M12.7962253,45.3289474 L24.5260985,45.3289474 L24.5260985,39.3289474 L12.7962253,39.3289474 L12.7962253,45.3289474 Z M25.5924506,45.3289474 L38.3886759,45.3289474 L38.3886759,39.3289474 L25.5924506,39.3289474 L25.5924506,45.3289474 Z M39.455028,45.3289474 L140.758478,45.3289474 L140.758478,39.3289474 L39.455028,39.3289474 L39.455028,45.3289474 Z M141.82483,45.3289474 L152.488352,45.3289474 L152.488352,39.3289474 L141.82483,39.3289474 L141.82483,45.3289474 Z M153.554704,45.3289474 L165.284577,45.3289474 L165.284577,39.3289474 L153.554704,39.3289474 L153.554704,45.3289474 Z M166.350929,45.3289474 L179.147154,45.3289474 L179.147154,39.3289474 L166.350929,39.3289474 L166.350929,45.3289474 Z M180.213506,45.3289474 L281.516957,45.3289474 L281.516957,39.3289474 L180.213506,39.3289474 L180.213506,45.3289474 Z M282.583309,45.3289474 L293.24683,45.3289474 L293.24683,39.3289474 L282.583309,39.3289474 L282.583309,45.3289474 Z M294.313182,45.3289474 L306.043055,45.3289474 L306.043055,39.3289474 L294.313182,39.3289474 L294.313182,45.3289474 Z M307.109407,45.3289474 L319.905633,45.3289474 L319.905633,39.3289474 L307.109407,39.3289474 L307.109407,45.3289474 Z M320.971985,45.3289474 L422.275435,45.3289474 L422.275435,39.3289474 L320.971985,39.3289474 L320.971985,45.3289474 Z M423.341787,45.3289474 L434.005308,45.3289474 L434.005308,39.3289474 L423.341787,39.3289474 L423.341787,45.3289474 Z M435.07166,45.3289474 L446.801533,45.3289474 L446.801533,39.3289474 L435.07166,39.3289474 L435.07166,45.3289474 Z M447.867886,45.3289474 L460.664111,45.3289474 L460.664111,39.3289474 L447.867886,39.3289474 L447.867886,45.3289474 Z M461.730463,45.3289474 L563.033913,45.3289474 L563.033913,39.3289474 L461.730463,39.3289474 L461.730463,45.3289474 Z M564.100265,45.3289474 L574.763786,45.3289474 L574.763786,39.3289474 L564.100265,39.3289474 L564.100265,45.3289474 Z M575.830139,45.3289474 L587.560012,45.3289474 L587.560012,39.3289474 L575.830139,39.3289474 L575.830139,45.3289474 Z M588.626364,45.3289474 L601.422589,45.3289474 L601.422589,39.3289474 L588.626364,39.3289474 L588.626364,45.3289474 Z M602.488941,45.3289474 L703.792392,45.3289474 L703.792392,39.3289474 L602.488941,39.3289474 L602.488941,45.3289474 Z M704.858744,45.3289474 L715.522265,45.3289474 L715.522265,39.3289474 L704.858744,39.3289474 L704.858744,45.3289474 Z M716.588617,45.3289474 L728.31849,45.3289474 L728.31849,39.3289474 L716.588617,39.3289474 L716.588617,45.3289474 Z M729.384842,45.3289474 L742.181068,45.3289474 L742.181068,39.3289474 L729.384842,39.3289474 L729.384842,45.3289474 Z M743.24742,45.3289474 L844.55087,45.3289474 L844.55087,39.3289474 L743.24742,39.3289474 L743.24742,45.3289474 Z M845.617222,45.3289474 L856.280743,45.3289474 L856.280743,39.3289474 L845.617222,39.3289474 L845.617222,45.3289474 Z M857.347095,45.3289474 L869.076968,45.3289474 L869.076968,39.3289474 L857.347095,39.3289474 L857.347095,45.3289474 Z M870.143321,45.3289474 L881.873194,45.3289474 L881.873194,39.3289474 L870.143321,39.3289474 L870.143321,45.3289474 Z M882.939546,45.3289474 L984.242996,45.3289474 L984.242996,39.3289474 L882.939546,39.3289474 L882.939546,45.3289474 Z M985.309348,45.3289474 L995.972869,45.3289474 L995.972869,39.3289474 L985.309348,39.3289474 L985.309348,45.3289474 Z M997.039221,45.3289474 L1008.76909,45.3289474 L1008.76909,39.3289474 L997.039221,39.3289474 L997.039221,45.3289474 Z M1009.83545,45.3289474 L1022.63167,45.3289474 L1022.63167,39.3289474 L1009.83545,39.3289474 L1009.83545,45.3289474 Z M1023.69802,45.3289474 L1125.00147,45.3289474 L1125.00147,39.3289474 L1023.69802,39.3289474 L1023.69802,45.3289474 Z M1126.06783,45.3289474 L1136.73135,45.3289474 L1136.73135,39.3289474 L1126.06783,39.3289474 L1126.06783,45.3289474 Z M1137.7977,45.3289474 L1149.52757,45.3289474 L1149.52757,39.3289474 L1137.7977,39.3289474 L1137.7977,45.3289474 Z M1150.59393,45.3289474 L1163.39015,45.3289474 L1163.39015,39.3289474 L1150.59393,39.3289474 L1150.59393,45.3289474 Z M1164.4565,45.3289474 L1266.8263,45.3289474 L1266.8263,39.3289474 L1164.4565,39.3289474 L1164.4565,45.3289474 Z M1267.89266,45.3289474 L1278.55618,45.3289474 L1278.55618,39.3289474 L1267.89266,39.3289474 L1267.89266,45.3289474 Z M1279.62253,45.3289474 L1291.3524,45.3289474 L1291.3524,39.3289474 L1279.62253,39.3289474 L1279.62253,45.3289474 Z M1292.41876,45.3289474 L1304.14863,45.3289474 L1304.14863,39.3289474 L1292.41876,39.3289474 L1292.41876,45.3289474 Z M1305.21498,45.3289474 L1418.2483,45.3289474 L1418.2483,39.3289474 L1305.21498,39.3289474 L1305.21498,45.3289474 Z M1419.31466,45.3289474 L1429.97818,45.3289474 L1429.97818,39.3289474 L1419.31466,39.3289474 L1419.31466,45.3289474 Z M1431.04453,45.3289474 L1442.7744,45.3289474 L1442.7744,39.3289474 L1431.04453,39.3289474 L1431.04453,45.3289474 Z M1443.84075,45.3289474 L1455.57063,45.3289474 L1455.57063,39.3289474 L1443.84075,39.3289474 L1443.84075,45.3289474 Z M1456.63698,45.3289474 L1570.73666,45.3289474 L1570.73666,39.3289474 L1456.63698,39.3289474 L1456.63698,45.3289474 Z M1571.80301,45.3289474 L1582.46653,45.3289474 L1582.46653,39.3289474 L1571.80301,39.3289474 L1571.80301,45.3289474 Z M1583.53288,45.3289474 L1595.26275,45.3289474 L1595.26275,39.3289474 L1583.53288,39.3289474 L1583.53288,45.3289474 Z M1596.32911,45.3289474 L1608.05898,45.3289474 L1608.05898,39.3289474 L1596.32911,39.3289474 L1596.32911,45.3289474 Z M1609.12533,45.3289474 L1722.15866,45.3289474 L1722.15866,39.3289474 L1609.12533,39.3289474 L1609.12533,45.3289474 Z M1723.22501,45.3289474 L1733.88853,45.3289474 L1733.88853,39.3289474 L1723.22501,39.3289474 L1723.22501,45.3289474 Z M1734.95488,45.3289474 L1746.68475,45.3289474 L1746.68475,39.3289474 L1734.95488,39.3289474 L1734.95488,45.3289474 Z M1747.75111,45.3289474 L1759.48098,45.3289474 L1759.48098,39.3289474 L1747.75111,39.3289474 L1747.75111,45.3289474 Z M-1.03025842e-16,0.424318287 L-1.11022302e-16,0 L1.06635211,0 L1.06635211,0.424318287 L1.06635211,129.207363 L1.06635211,129.631682 L2.33194238e-15,129.631682 L2.32394592e-15,129.207363 L-1.03025842e-16,0.424318287 Z"></path>
                </g>
            </g>
        </g>
    </g>
</svg>