<?xml version="1.0" encoding="UTF-8"?>
<svg width="230px" height="124px" viewBox="0 0 230 124" version="1.1" xmlns="http://www.w3.org/2000/svg" xmlns:xlink="http://www.w3.org/1999/xlink">
    <!-- Generator: Sketch 42 (36781) - http://www.bohemiancoding.com/sketch -->
    <title>Combined Shape</title>
    <desc>Created with Sketch.</desc>
    <defs>
        <linearGradient x1="19.4798732%" y1="45.7916647%" x2="59.0589059%" y2="45.7916647%" id="linearGradient-1">
            <stop stop-color="#F4F4F4" stop-opacity="0" offset="0%"></stop>
            <stop stop-color="#D8D8D8" offset="100%"></stop>
        </linearGradient>
    </defs>
    <g id="1-Home" stroke="none" stroke-width="1" fill="none" fill-rule="evenodd" opacity="0.334692029">
        <g id="Artboard" fill="url(#linearGradient-1)">
            <path d="M-882,90.4350565 L-882,34.677082 L-882.5,34.677082 L-882.5,33.6048133 L-882,33.6048133 L-882,27.1712008 L-882.5,27.1712008 L-882.5,26.0989321 L-882,26.0989321 L-882,19.6653196 L-882.5,19.6653196 L-882.5,18.5930509 L-882,18.5930509 L-882,-14.5450168 L-882,-15 L-881,-15 L-881,-14.5450168 L-881,18.5930509 L-870,18.5930509 L-870,-14.5450168 L-870,-15 L-869,-15 L-869,-14.5450168 L-869,18.5930509 L-857,18.5930509 L-857,-14.5450168 L-857,-15 L-856,-15 L-856,-14.5450168 L-856,18.5930509 L-761,18.5930509 L-761,-14.5450168 L-761,-15 L-760,-15 L-760,-14.5450168 L-760,18.5930509 L-750,18.5930509 L-750,-14.5450168 L-750,-15 L-749,-15 L-749,-14.5450168 L-749,18.5930509 L-738,18.5930509 L-738,-14.5450168 L-738,-15 L-737,-15 L-737,-14.5450168 L-737,18.5930509 L-725,18.5930509 L-725,-14.5450168 L-725,-15 L-724,-15 L-724,-14.5450168 L-724,18.5930509 L-629,18.5930509 L-629,-14.5450168 L-629,-15 L-628,-15 L-628,-14.5450168 L-628,18.5930509 L-618,18.5930509 L-618,-14.5450168 L-618,-15 L-617,-15 L-617,-14.5450168 L-617,18.5930509 L-606,18.5930509 L-606,-14.5450168 L-606,-15 L-605,-15 L-605,-14.5450168 L-605,18.5930509 L-593,18.5930509 L-593,-14.5450168 L-593,-15 L-592,-15 L-592,-14.5450168 L-592,18.5930509 L-497,18.5930509 L-497,-14.5450168 L-497,-15 L-496,-15 L-496,-14.5450168 L-496,18.5930509 L-486,18.5930509 L-486,-14.5450168 L-486,-15 L-485,-15 L-485,-14.5450168 L-485,18.5930509 L-474,18.5930509 L-474,-14.5450168 L-474,-15 L-473,-15 L-473,-14.5450168 L-473,18.5930509 L-461,18.5930509 L-461,-14.5450168 L-461,-15 L-460,-15 L-460,-14.5450168 L-460,18.5930509 L-365,18.5930509 L-365,-14.5450168 L-365,-15 L-364,-15 L-364,-14.5450168 L-364,18.5930509 L-354,18.5930509 L-354,-14.5450168 L-354,-15 L-353,-15 L-353,-14.5450168 L-353,18.5930509 L-342,18.5930509 L-342,-14.5450168 L-342,-15 L-341,-15 L-341,-14.5450168 L-341,18.5930509 L-329,18.5930509 L-329,-14.5450168 L-329,-15 L-328,-15 L-328,-14.5450168 L-328,18.5930509 L-233,18.5930509 L-233,-14.5450168 L-233,-15 L-232,-15 L-232,-14.5450168 L-232,18.5930509 L-222,18.5930509 L-222,-14.5450168 L-222,-15 L-221,-15 L-221,-14.5450168 L-221,18.5930509 L-210,18.5930509 L-210,-14.5450168 L-210,-15 L-209,-15 L-209,-14.5450168 L-209,18.5930509 L-197,18.5930509 L-197,-14.5450168 L-197,-15 L-196,-15 L-196,-14.5450168 L-196,18.5930509 L-101,18.5930509 L-101,-14.5450168 L-101,-15 L-100,-15 L-100,-14.5450168 L-100,18.5930509 L-90,18.5930509 L-90,-14.5450168 L-90,-15 L-89,-15 L-89,-14.5450168 L-89,18.5930509 L-78,18.5930509 L-78,-14.5450168 L-78,-15 L-77,-15 L-77,-14.5450168 L-77,18.5930509 L-66,18.5930509 L-66,-14.5450168 L-66,-15 L-65,-15 L-65,-14.5450168 L-65,18.5930509 L30,18.5930509 L30,-14.5450168 L30,-15 L31,-15 L31,-14.5450168 L31,18.5930509 L41,18.5930509 L41,-14.5450168 L41,-15 L42,-15 L42,-14.5450168 L42,18.5930509 L53,18.5930509 L53,-14.5450168 L53,-15 L54,-15 L54,-14.5450168 L54,18.5930509 L66,18.5930509 L66,-14.5450168 L66,-15 L67,-15 L67,-14.5450168 L67,18.5930509 L162,18.5930509 L162,-14.5450168 L162,-15 L163,-15 L163,-14.5450168 L163,18.5930509 L173,18.5930509 L173,-14.5450168 L173,-15 L174,-15 L174,-14.5450168 L174,18.5930509 L185,18.5930509 L185,-14.5450168 L185,-15 L186,-15 L186,-14.5450168 L186,18.5930509 L198,18.5930509 L198,-14.5450168 L198,-15 L199,-15 L199,-14.5450168 L199,18.5930509 L295,18.5930509 L295,-14.5450168 L295,-15 L296,-15 L296,-14.5450168 L296,18.5930509 L306,18.5930509 L306,-14.5450168 L306,-15 L307,-15 L307,-14.5450168 L307,18.5930509 L318,18.5930509 L318,-14.5450168 L318,-15 L319,-15 L319,-14.5450168 L319,18.5930509 L330,18.5930509 L330,-14.5450168 L330,-15 L331,-15 L331,-14.5450168 L331,18.5930509 L437,18.5930509 L437,-14.5450168 L437,-15 L438,-15 L438,-14.5450168 L438,18.5930509 L448,18.5930509 L448,-14.5450168 L448,-15 L449,-15 L449,-14.5450168 L449,18.5930509 L460,18.5930509 L460,-14.5450168 L460,-15 L461,-15 L461,-14.5450168 L461,18.5930509 L472,18.5930509 L472,-14.5450168 L472,-15 L473,-15 L473,-14.5450168 L473,18.5930509 L580,18.5930509 L580,-14.5450168 L580,-15 L581,-15 L581,-14.5450168 L581,18.5930509 L591,18.5930509 L591,-14.5450168 L591,-15 L592,-15 L592,-14.5450168 L592,18.5930509 L603,18.5930509 L603,-14.5450168 L603,-15 L604,-15 L604,-14.5450168 L604,18.5930509 L615,18.5930509 L615,-14.5450168 L615,-15 L616,-15 L616,-14.5450168 L616,18.5930509 L722,18.5930509 L722,-14.5450168 L722,-15 L723,-15 L723,-14.5450168 L723,18.5930509 L733,18.5930509 L733,-14.5450168 L733,-15 L734,-15 L734,-14.5450168 L734,18.5930509 L745,18.5930509 L745,-14.5450168 L745,-15 L746,-15 L746,-14.5450168 L746,18.5930509 L757,18.5930509 L757,-14.5450168 L757,-15 L758,-15 L758,-14.5450168 L758,18.5930509 L802,18.5930509 L802.5,18.5930509 L802.5,19.6653196 L802,19.6653196 L758,19.6653196 L758,26.0989321 L802,26.0989321 L802.5,26.0989321 L802.5,27.1712008 L802,27.1712008 L758,27.1712008 L758,33.6048133 L802,33.6048133 L802.5,33.6048133 L802.5,34.677082 L802,34.677082 L758,34.677082 L758,90.4350565 L802,90.4350565 L802.5,90.4350565 L802.5,91.5073252 L802,91.5073252 L758,91.5073252 L758,96.8686689 L802.5,96.8686689 L802,97.9409376 L758,97.9409376 L758,104.37455 L802,104.37455 L802.5,104.37455 L802.5,105.446819 L802,105.446819 L758,105.446819 L758,123.545017 L758,124 L757,124 L757,123.545017 L757,105.446819 L746,105.446819 L746,123.545017 L746,124 L745,124 L745,123.545017 L745,105.446819 L734,105.446819 L734,123.545017 L734,124 L733,124 L733,123.545017 L733,105.446819 L723,105.446819 L723,123.545017 L723,124 L722,124 L722,123.545017 L722,105.446819 L616,105.446819 L616,123.545017 L616,124 L615,124 L615,123.545017 L615,105.446819 L604,105.446819 L604,123.545017 L604,124 L603,124 L603,123.545017 L603,105.446819 L592,105.446819 L592,123.545017 L592,124 L591,124 L591,123.545017 L591,105.446819 L581,105.446819 L581,123.545017 L581,124 L580,124 L580,123.545017 L580,105.446819 L473,105.446819 L473,123.545017 L473,124 L472,124 L472,123.545017 L472,105.446819 L461,105.446819 L461,123.545017 L461,124 L460,124 L460,123.545017 L460,105.446819 L449,105.446819 L449,123.545017 L449,124 L448,124 L448,123.545017 L448,105.446819 L438,105.446819 L438,123.545017 L438,124 L437,124 L437,123.545017 L437,105.446819 L331,105.446819 L331,123.545017 L331,124 L330,124 L330,123.545017 L330,105.446819 L319,105.446819 L319,123.545017 L319,124 L318,124 L318,123.545017 L318,105.446819 L307,105.446819 L307,123.545017 L307,124 L306,124 L306,123.545017 L306,105.446819 L296,105.446819 L296,123.545017 L296,124 L295,124 L295,123.545017 L295,105.446819 L199,105.446819 L199,123.545017 L199,124 L198,124 L198,123.545017 L198,105.446819 L186,105.446819 L186,123.545017 L186,124 L185,124 L185,123.545017 L185,105.446819 L174,105.446819 L174,123.545017 L174,124 L173,124 L173,123.545017 L173,105.446819 L163,105.446819 L163,123.545017 L163,124 L162,124 L162,123.545017 L162,105.446819 L67,105.446819 L67,123.545017 L67,124 L66,124 L66,123.545017 L66,105.446819 L54,105.446819 L54,123.545017 L54,124 L53,124 L53,123.545017 L53,105.446819 L42,105.446819 L42,123.545017 L42,124 L41,124 L41,123.545017 L41,105.446819 L31,105.446819 L31,123.545017 L31,124 L30,124 L30,123.545017 L30,105.446819 L-65,105.446819 L-65,123.545017 L-65,124 L-66,124 L-66,123.545017 L-66,105.446819 L-77,105.446819 L-77,123.545017 L-77,124 L-78,124 L-78,123.545017 L-78,105.446819 L-89,105.446819 L-89,123.545017 L-89,124 L-90,124 L-90,123.545017 L-90,105.446819 L-100,105.446819 L-100,123.545017 L-100,124 L-101,124 L-101,123.545017 L-101,105.446819 L-196,105.446819 L-196,123.545017 L-196,124 L-197,124 L-197,123.545017 L-197,105.446819 L-209,105.446819 L-209,123.545017 L-209,124 L-210,124 L-210,123.545017 L-210,105.446819 L-221,105.446819 L-221,123.545017 L-221,124 L-222,124 L-222,123.545017 L-222,105.446819 L-232,105.446819 L-232,123.545017 L-232,124 L-233,124 L-233,123.545017 L-233,105.446819 L-328,105.446819 L-328,123.545017 L-328,124 L-329,124 L-329,123.545017 L-329,105.446819 L-341,105.446819 L-341,123.545017 L-341,124 L-342,124 L-342,123.545017 L-342,105.446819 L-353,105.446819 L-353,123.545017 L-353,124 L-354,124 L-354,123.545017 L-354,105.446819 L-364,105.446819 L-364,123.545017 L-364,124 L-365,124 L-365,123.545017 L-365,105.446819 L-460,105.446819 L-460,123.545017 L-460,124 L-461,124 L-461,123.545017 L-461,105.446819 L-473,105.446819 L-473,123.545017 L-473,124 L-474,124 L-474,123.545017 L-474,105.446819 L-485,105.446819 L-485,123.545017 L-485,124 L-486,124 L-486,123.545017 L-486,105.446819 L-496,105.446819 L-496,123.545017 L-496,124 L-497,124 L-497,123.545017 L-497,105.446819 L-592,105.446819 L-592,123.545017 L-592,124 L-593,124 L-593,123.545017 L-593,105.446819 L-605,105.446819 L-605,123.545017 L-605,124 L-606,124 L-606,123.545017 L-606,105.446819 L-617,105.446819 L-617,123.545017 L-617,124 L-618,124 L-618,123.545017 L-618,105.446819 L-628,105.446819 L-628,123.545017 L-628,124 L-629,124 L-629,123.545017 L-629,105.446819 L-724,105.446819 L-724,123.545017 L-724,124 L-725,124 L-725,123.545017 L-725,105.446819 L-737,105.446819 L-737,123.545017 L-737,124 L-738,124 L-738,123.545017 L-738,105.446819 L-749,105.446819 L-749,123.545017 L-749,124 L-750,124 L-750,123.545017 L-750,105.446819 L-760,105.446819 L-760,123.545017 L-760,124 L-761,124 L-761,123.545017 L-761,105.446819 L-856,105.446819 L-856,123.545017 L-856,124 L-857,124 L-857,123.545017 L-857,105.446819 L-869,105.446819 L-869,123.545017 L-869,124 L-870,124 L-870,123.545017 L-870,105.446819 L-881,105.446819 L-881,123.545017 L-881,124 L-882,124 L-882,123.545017 L-882,105.446819 L-882.5,105.446819 L-882.5,104.37455 L-882,104.37455 L-882,97.9409376 L-882.5,102.230013 L-882,96.8686689 L-882,91.5073252 L-882.5,91.5073252 L-882.5,90.4350565 L-882,90.4350565 Z M-881,90.4350565 L-870,90.4350565 L-870,34.677082 L-881,34.677082 L-881,90.4350565 Z M-881,91.5073252 L-881,96.8686689 L-870,96.8686689 L-870,91.5073252 L-881,91.5073252 Z M-869,90.4350565 L-857,90.4350565 L-857,34.677082 L-869,34.677082 L-869,90.4350565 Z M-869,91.5073252 L-869,96.8686689 L-857,96.8686689 L-857,91.5073252 L-869,91.5073252 Z M-856,90.4350565 L-761,90.4350565 L-761,34.677082 L-856,34.677082 L-856,90.4350565 Z M-856,91.5073252 L-856,96.8686689 L-761,96.8686689 L-761,91.5073252 L-856,91.5073252 Z M-760,90.4350565 L-750,90.4350565 L-750,34.677082 L-760,34.677082 L-760,90.4350565 Z M-760,91.5073252 L-760,96.8686689 L-750,96.8686689 L-750,91.5073252 L-760,91.5073252 Z M-749,90.4350565 L-738,90.4350565 L-738,34.677082 L-749,34.677082 L-749,90.4350565 Z M-749,91.5073252 L-749,96.8686689 L-738,96.8686689 L-738,91.5073252 L-749,91.5073252 Z M-737,90.4350565 L-725,90.4350565 L-725,34.677082 L-737,34.677082 L-737,90.4350565 Z M-737,91.5073252 L-737,96.8686689 L-725,96.8686689 L-725,91.5073252 L-737,91.5073252 Z M-724,90.4350565 L-629,90.4350565 L-629,34.677082 L-724,34.677082 L-724,90.4350565 Z M-724,91.5073252 L-724,96.8686689 L-629,96.8686689 L-629,91.5073252 L-724,91.5073252 Z M-628,90.4350565 L-618,90.4350565 L-618,34.677082 L-628,34.677082 L-628,90.4350565 Z M-628,91.5073252 L-628,96.8686689 L-618,96.8686689 L-618,91.5073252 L-628,91.5073252 Z M-617,90.4350565 L-606,90.4350565 L-606,34.677082 L-617,34.677082 L-617,90.4350565 Z M-617,91.5073252 L-617,96.8686689 L-606,96.8686689 L-606,91.5073252 L-617,91.5073252 Z M-605,90.4350565 L-593,90.4350565 L-593,34.677082 L-605,34.677082 L-605,90.4350565 Z M-605,91.5073252 L-605,96.8686689 L-593,96.8686689 L-593,91.5073252 L-605,91.5073252 Z M-592,90.4350565 L-497,90.4350565 L-497,34.677082 L-592,34.677082 L-592,90.4350565 Z M-592,91.5073252 L-592,96.8686689 L-497,96.8686689 L-497,91.5073252 L-592,91.5073252 Z M-496,90.4350565 L-486,90.4350565 L-486,34.677082 L-496,34.677082 L-496,90.4350565 Z M-496,91.5073252 L-496,96.8686689 L-486,96.8686689 L-486,91.5073252 L-496,91.5073252 Z M-485,90.4350565 L-474,90.4350565 L-474,34.677082 L-485,34.677082 L-485,90.4350565 Z M-485,91.5073252 L-485,96.8686689 L-474,96.8686689 L-474,91.5073252 L-485,91.5073252 Z M-473,90.4350565 L-461,90.4350565 L-461,34.677082 L-473,34.677082 L-473,90.4350565 Z M-473,91.5073252 L-473,96.8686689 L-461,96.8686689 L-461,91.5073252 L-473,91.5073252 Z M-460,90.4350565 L-365,90.4350565 L-365,34.677082 L-460,34.677082 L-460,90.4350565 Z M-460,91.5073252 L-460,96.8686689 L-365,96.8686689 L-365,91.5073252 L-460,91.5073252 Z M-364,90.4350565 L-354,90.4350565 L-354,34.677082 L-364,34.677082 L-364,90.4350565 Z M-364,91.5073252 L-364,96.8686689 L-354,96.8686689 L-354,91.5073252 L-364,91.5073252 Z M-353,90.4350565 L-342,90.4350565 L-342,34.677082 L-353,34.677082 L-353,90.4350565 Z M-353,91.5073252 L-353,96.8686689 L-342,96.8686689 L-342,91.5073252 L-353,91.5073252 Z M-341,90.4350565 L-329,90.4350565 L-329,34.677082 L-341,34.677082 L-341,90.4350565 Z M-341,91.5073252 L-341,96.8686689 L-329,96.8686689 L-329,91.5073252 L-341,91.5073252 Z M-328,90.4350565 L-233,90.4350565 L-233,34.677082 L-328,34.677082 L-328,90.4350565 Z M-328,91.5073252 L-328,96.8686689 L-233,96.8686689 L-233,91.5073252 L-328,91.5073252 Z M-232,90.4350565 L-222,90.4350565 L-222,34.677082 L-232,34.677082 L-232,90.4350565 Z M-232,91.5073252 L-232,96.8686689 L-222,96.8686689 L-222,91.5073252 L-232,91.5073252 Z M-221,90.4350565 L-210,90.4350565 L-210,34.677082 L-221,34.677082 L-221,90.4350565 Z M-221,91.5073252 L-221,96.8686689 L-210,96.8686689 L-210,91.5073252 L-221,91.5073252 Z M-209,90.4350565 L-197,90.4350565 L-197,34.677082 L-209,34.677082 L-209,90.4350565 Z M-209,91.5073252 L-209,96.8686689 L-197,96.8686689 L-197,91.5073252 L-209,91.5073252 Z M-196,90.4350565 L-101,90.4350565 L-101,34.677082 L-196,34.677082 L-196,90.4350565 Z M-196,91.5073252 L-196,96.8686689 L-101,96.8686689 L-101,91.5073252 L-196,91.5073252 Z M-100,90.4350565 L-90,90.4350565 L-90,34.677082 L-100,34.677082 L-100,90.4350565 Z M-100,91.5073252 L-100,96.8686689 L-90,96.8686689 L-90,91.5073252 L-100,91.5073252 Z M-89,90.4350565 L-78,90.4350565 L-78,34.677082 L-89,34.677082 L-89,90.4350565 Z M-89,91.5073252 L-89,96.8686689 L-78,96.8686689 L-78,91.5073252 L-89,91.5073252 Z M-77,90.4350565 L-66,90.4350565 L-66,34.677082 L-77,34.677082 L-77,90.4350565 Z M-77,91.5073252 L-77,96.8686689 L-66,96.8686689 L-66,91.5073252 L-77,91.5073252 Z M-65,90.4350565 L30,90.4350565 L30,34.677082 L-65,34.677082 L-65,90.4350565 Z M-65,91.5073252 L-65,96.8686689 L30,96.8686689 L30,91.5073252 L-65,91.5073252 Z M31,90.4350565 L41,90.4350565 L41,34.677082 L31,34.677082 L31,90.4350565 Z M31,91.5073252 L31,96.8686689 L41,96.8686689 L41,91.5073252 L31,91.5073252 Z M42,90.4350565 L53,90.4350565 L53,34.677082 L42,34.677082 L42,90.4350565 Z M42,91.5073252 L42,96.8686689 L53,96.8686689 L53,91.5073252 L42,91.5073252 Z M54,90.4350565 L66,90.4350565 L66,34.677082 L54,34.677082 L54,90.4350565 Z M54,91.5073252 L54,96.8686689 L66,96.8686689 L66,91.5073252 L54,91.5073252 Z M67,90.4350565 L162,90.4350565 L162,34.677082 L67,34.677082 L67,90.4350565 Z M67,91.5073252 L67,96.8686689 L86.2011719,96.8686689 L162,96.8686689 L162,91.5073252 L67,91.5073252 Z M163,90.4350565 L173,90.4350565 L173,34.677082 L163,34.677082 L163,90.4350565 Z M163,91.5073252 L163,96.8686689 L173,96.8686689 L173,91.5073252 L163,91.5073252 Z M174,90.4350565 L185,90.4350565 L185,34.677082 L174,34.677082 L174,90.4350565 Z M174,91.5073252 L174,96.8686689 L185,96.8686689 L185,91.5073252 L174,91.5073252 Z M186,90.4350565 L198,90.4350565 L198,34.677082 L186,34.677082 L186,90.4350565 Z M186,91.5073252 L186,96.8686689 L198,96.8686689 L198,91.5073252 L186,91.5073252 Z M199,90.4350565 L295,90.4350565 L295,34.677082 L199,34.677082 L199,90.4350565 Z M199,91.5073252 L199,96.8686689 L295,96.8686689 L295,91.5073252 L199,91.5073252 Z M296,90.4350565 L306,90.4350565 L306,34.677082 L296,34.677082 L296,90.4350565 Z M296,91.5073252 L296,96.8686689 L306,96.8686689 L306,91.5073252 L296,91.5073252 Z M307,90.4350565 L318,90.4350565 L318,34.677082 L307,34.677082 L307,90.4350565 Z M307,91.5073252 L307,96.8686689 L318,96.8686689 L318,91.5073252 L307,91.5073252 Z M319,90.4350565 L330,90.4350565 L330,34.677082 L319,34.677082 L319,90.4350565 Z M319,91.5073252 L319,96.8686689 L330,96.8686689 L330,91.5073252 L319,91.5073252 Z M331,90.4350565 L437,90.4350565 L437,34.677082 L331,34.677082 L331,90.4350565 Z M331,91.5073252 L331,96.8686689 L437,96.8686689 L437,91.5073252 L331,91.5073252 Z M438,90.4350565 L448,90.4350565 L448,34.677082 L438,34.677082 L438,90.4350565 Z M438,91.5073252 L438,96.8686689 L448,96.8686689 L448,91.5073252 L438,91.5073252 Z M449,90.4350565 L460,90.4350565 L460,34.677082 L449,34.677082 L449,90.4350565 Z M449,91.5073252 L449,96.8686689 L460,96.8686689 L460,91.5073252 L449,91.5073252 Z M461,90.4350565 L472,90.4350565 L472,34.677082 L461,34.677082 L461,90.4350565 Z M461,91.5073252 L461,96.8686689 L472,96.8686689 L472,91.5073252 L461,91.5073252 Z M473,90.4350565 L580,90.4350565 L580,34.677082 L473,34.677082 L473,90.4350565 Z M473,91.5073252 L473,96.8686689 L580,96.8686689 L580,91.5073252 L473,91.5073252 Z M581,90.4350565 L591,90.4350565 L591,34.677082 L581,34.677082 L581,90.4350565 Z M581,91.5073252 L581,96.8686689 L591,96.8686689 L591,91.5073252 L581,91.5073252 Z M592,90.4350565 L603,90.4350565 L603,34.677082 L592,34.677082 L592,90.4350565 Z M592,91.5073252 L592,96.8686689 L603,96.8686689 L603,91.5073252 L592,91.5073252 Z M604,90.4350565 L615,90.4350565 L615,34.677082 L604,34.677082 L604,90.4350565 Z M604,91.5073252 L604,96.8686689 L615,96.8686689 L615,91.5073252 L604,91.5073252 Z M616,90.4350565 L722,90.4350565 L722,34.677082 L616,34.677082 L616,90.4350565 Z M616,91.5073252 L616,96.8686689 L722,96.8686689 L722,91.5073252 L616,91.5073252 Z M723,90.4350565 L733,90.4350565 L733,34.677082 L723,34.677082 L723,90.4350565 Z M723,91.5073252 L723,96.8686689 L733,96.8686689 L733,91.5073252 L723,91.5073252 Z M734,90.4350565 L745,90.4350565 L745,34.677082 L734,34.677082 L734,90.4350565 Z M734,91.5073252 L734,96.8686689 L745,96.8686689 L745,91.5073252 L734,91.5073252 Z M746,90.4350565 L757,90.4350565 L757,34.677082 L746,34.677082 L746,90.4350565 Z M746,91.5073252 L746,96.8686689 L757,96.8686689 L757,91.5073252 L746,91.5073252 Z M-881,19.6653196 L-881,26.0989321 L-870,26.0989321 L-870,19.6653196 L-881,19.6653196 Z M-869,19.6653196 L-869,26.0989321 L-857,26.0989321 L-857,19.6653196 L-869,19.6653196 Z M-856,19.6653196 L-856,26.0989321 L-761,26.0989321 L-761,19.6653196 L-856,19.6653196 Z M-760,19.6653196 L-760,26.0989321 L-750,26.0989321 L-750,19.6653196 L-760,19.6653196 Z M-749,19.6653196 L-749,26.0989321 L-738,26.0989321 L-738,19.6653196 L-749,19.6653196 Z M-737,19.6653196 L-737,26.0989321 L-725,26.0989321 L-725,19.6653196 L-737,19.6653196 Z M-724,19.6653196 L-724,26.0989321 L-629,26.0989321 L-629,19.6653196 L-724,19.6653196 Z M-628,19.6653196 L-628,26.0989321 L-618,26.0989321 L-618,19.6653196 L-628,19.6653196 Z M-617,19.6653196 L-617,26.0989321 L-606,26.0989321 L-606,19.6653196 L-617,19.6653196 Z M-605,19.6653196 L-605,26.0989321 L-593,26.0989321 L-593,19.6653196 L-605,19.6653196 Z M-592,19.6653196 L-592,26.0989321 L-497,26.0989321 L-497,19.6653196 L-592,19.6653196 Z M-496,19.6653196 L-496,26.0989321 L-486,26.0989321 L-486,19.6653196 L-496,19.6653196 Z M-485,19.6653196 L-485,26.0989321 L-474,26.0989321 L-474,19.6653196 L-485,19.6653196 Z M-473,19.6653196 L-473,26.0989321 L-461,26.0989321 L-461,19.6653196 L-473,19.6653196 Z M-460,19.6653196 L-460,26.0989321 L-365,26.0989321 L-365,19.6653196 L-460,19.6653196 Z M-364,19.6653196 L-364,26.0989321 L-354,26.0989321 L-354,19.6653196 L-364,19.6653196 Z M-353,19.6653196 L-353,26.0989321 L-342,26.0989321 L-342,19.6653196 L-353,19.6653196 Z M-341,19.6653196 L-341,26.0989321 L-329,26.0989321 L-329,19.6653196 L-341,19.6653196 Z M-328,19.6653196 L-328,26.0989321 L-233,26.0989321 L-233,19.6653196 L-328,19.6653196 Z M-232,19.6653196 L-232,26.0989321 L-222,26.0989321 L-222,19.6653196 L-232,19.6653196 Z M-221,19.6653196 L-221,26.0989321 L-210,26.0989321 L-210,19.6653196 L-221,19.6653196 Z M-209,19.6653196 L-209,26.0989321 L-197,26.0989321 L-197,19.6653196 L-209,19.6653196 Z M-196,19.6653196 L-196,26.0989321 L-101,26.0989321 L-101,19.6653196 L-196,19.6653196 Z M-100,19.6653196 L-100,26.0989321 L-90,26.0989321 L-90,19.6653196 L-100,19.6653196 Z M-89,19.6653196 L-89,26.0989321 L-78,26.0989321 L-78,19.6653196 L-89,19.6653196 Z M-77,19.6653196 L-77,26.0989321 L-66,26.0989321 L-66,19.6653196 L-77,19.6653196 Z M-65,19.6653196 L-65,26.0989321 L30,26.0989321 L30,19.6653196 L-65,19.6653196 Z M31,19.6653196 L31,26.0989321 L41,26.0989321 L41,19.6653196 L31,19.6653196 Z M42,19.6653196 L42,26.0989321 L53,26.0989321 L53,19.6653196 L42,19.6653196 Z M54,19.6653196 L54,26.0989321 L66,26.0989321 L66,19.6653196 L54,19.6653196 Z M67,19.6653196 L67,26.0989321 L162,26.0989321 L162,19.6653196 L67,19.6653196 Z M163,19.6653196 L163,26.0989321 L173,26.0989321 L173,19.6653196 L163,19.6653196 Z M174,19.6653196 L174,26.0989321 L185,26.0989321 L185,19.6653196 L174,19.6653196 Z M186,19.6653196 L186,26.0989321 L198,26.0989321 L198,19.6653196 L186,19.6653196 Z M199,19.6653196 L199,26.0989321 L295,26.0989321 L295,19.6653196 L199,19.6653196 Z M296,19.6653196 L296,26.0989321 L306,26.0989321 L306,19.6653196 L296,19.6653196 Z M307,19.6653196 L307,26.0989321 L318,26.0989321 L318,19.6653196 L307,19.6653196 Z M319,19.6653196 L319,26.0989321 L330,26.0989321 L330,19.6653196 L319,19.6653196 Z M331,19.6653196 L331,26.0989321 L437,26.0989321 L437,19.6653196 L331,19.6653196 Z M438,19.6653196 L438,26.0989321 L448,26.0989321 L448,19.6653196 L438,19.6653196 Z M449,19.6653196 L449,26.0989321 L460,26.0989321 L460,19.6653196 L449,19.6653196 Z M461,19.6653196 L461,26.0989321 L472,26.0989321 L472,19.6653196 L461,19.6653196 Z M473,19.6653196 L473,26.0989321 L580,26.0989321 L580,19.6653196 L473,19.6653196 Z M581,19.6653196 L581,26.0989321 L591,26.0989321 L591,19.6653196 L581,19.6653196 Z M592,19.6653196 L592,26.0989321 L603,26.0989321 L603,19.6653196 L592,19.6653196 Z M604,19.6653196 L604,26.0989321 L615,26.0989321 L615,19.6653196 L604,19.6653196 Z M616,19.6653196 L616,26.0989321 L722,26.0989321 L722,19.6653196 L616,19.6653196 Z M723,19.6653196 L723,26.0989321 L733,26.0989321 L733,19.6653196 L723,19.6653196 Z M734,19.6653196 L734,26.0989321 L745,26.0989321 L745,19.6653196 L734,19.6653196 Z M746,19.6653196 L746,26.0989321 L757,26.0989321 L757,19.6653196 L746,19.6653196 Z M-881,104.37455 L-870,104.37455 L-870,97.9409376 L-881,97.9409376 L-881,104.37455 Z M-869,104.37455 L-857,104.37455 L-857,97.9409376 L-869,97.9409376 L-869,104.37455 Z M-856,104.37455 L-761,104.37455 L-761,97.9409376 L-856,97.9409376 L-856,104.37455 Z M-760,104.37455 L-750,104.37455 L-750,97.9409376 L-760,97.9409376 L-760,104.37455 Z M-749,104.37455 L-738,104.37455 L-738,97.9409376 L-749,97.9409376 L-749,104.37455 Z M-737,104.37455 L-725,104.37455 L-725,97.9409376 L-737,97.9409376 L-737,104.37455 Z M-724,104.37455 L-629,104.37455 L-629,97.9409376 L-724,97.9409376 L-724,104.37455 Z M-628,104.37455 L-618,104.37455 L-618,97.9409376 L-628,97.9409376 L-628,104.37455 Z M-617,104.37455 L-606,104.37455 L-606,97.9409376 L-617,97.9409376 L-617,104.37455 Z M-605,104.37455 L-593,104.37455 L-593,97.9409376 L-605,97.9409376 L-605,104.37455 Z M-592,104.37455 L-497,104.37455 L-497,97.9409376 L-592,97.9409376 L-592,104.37455 Z M-496,104.37455 L-486,104.37455 L-486,97.9409376 L-496,97.9409376 L-496,104.37455 Z M-485,104.37455 L-474,104.37455 L-474,97.9409376 L-485,97.9409376 L-485,104.37455 Z M-473,104.37455 L-461,104.37455 L-461,97.9409376 L-473,97.9409376 L-473,104.37455 Z M-460,104.37455 L-365,104.37455 L-365,97.9409376 L-460,97.9409376 L-460,104.37455 Z M-364,104.37455 L-354,104.37455 L-354,97.9409376 L-364,97.9409376 L-364,104.37455 Z M-353,104.37455 L-342,104.37455 L-342,97.9409376 L-353,97.9409376 L-353,104.37455 Z M-341,104.37455 L-329,104.37455 L-329,97.9409376 L-341,97.9409376 L-341,104.37455 Z M-328,104.37455 L-233,104.37455 L-233,97.9409376 L-328,97.9409376 L-328,104.37455 Z M-232,104.37455 L-222,104.37455 L-222,97.9409376 L-232,97.9409376 L-232,104.37455 Z M-221,104.37455 L-210,104.37455 L-210,97.9409376 L-221,97.9409376 L-221,104.37455 Z M-209,104.37455 L-197,104.37455 L-197,97.9409376 L-209,97.9409376 L-209,104.37455 Z M-196,104.37455 L-101,104.37455 L-101,97.9409376 L-196,97.9409376 L-196,104.37455 Z M-100,104.37455 L-90,104.37455 L-90,97.9409376 L-100,97.9409376 L-100,104.37455 Z M-89,104.37455 L-78,104.37455 L-78,97.9409376 L-89,97.9409376 L-89,104.37455 Z M-77,104.37455 L-66,104.37455 L-66,97.9409376 L-77,97.9409376 L-77,104.37455 Z M-65,104.37455 L30,104.37455 L30,97.9409376 L-65,97.9409376 L-65,104.37455 Z M31,104.37455 L41,104.37455 L41,97.9409376 L31,97.9409376 L31,104.37455 Z M42,104.37455 L53,104.37455 L53,97.9409376 L42,97.9409376 L42,104.37455 Z M54,104.37455 L66,104.37455 L66,97.9409376 L54,97.9409376 L54,104.37455 Z M67,104.37455 L162,104.37455 L162,97.9409376 L67,97.9409376 L67,104.37455 Z M163,104.37455 L173,104.37455 L173,97.9409376 L163,97.9409376 L163,104.37455 Z M174,104.37455 L185,104.37455 L185,97.9409376 L174,97.9409376 L174,104.37455 Z M186,104.37455 L198,104.37455 L198,97.9409376 L186,97.9409376 L186,104.37455 Z M199,104.37455 L295,104.37455 L295,97.9409376 L199,97.9409376 L199,104.37455 Z M296,104.37455 L306,104.37455 L306,97.9409376 L296,97.9409376 L296,104.37455 Z M307,104.37455 L318,104.37455 L318,97.9409376 L307,97.9409376 L307,104.37455 Z M319,104.37455 L330,104.37455 L330,97.9409376 L319,97.9409376 L319,104.37455 Z M331,104.37455 L437,104.37455 L437,97.9409376 L331,97.9409376 L331,104.37455 Z M438,104.37455 L448,104.37455 L448,97.9409376 L438,97.9409376 L438,104.37455 Z M449,104.37455 L460,104.37455 L460,97.9409376 L449,97.9409376 L449,104.37455 Z M461,104.37455 L472,104.37455 L472,97.9409376 L461,97.9409376 L461,104.37455 Z M473,104.37455 L580,104.37455 L580,97.9409376 L473,97.9409376 L473,104.37455 Z M581,104.37455 L591,104.37455 L591,97.9409376 L581,97.9409376 L581,104.37455 Z M592,104.37455 L603,104.37455 L603,97.9409376 L592,97.9409376 L592,104.37455 Z M604,104.37455 L615,104.37455 L615,97.9409376 L604,97.9409376 L604,104.37455 Z M616,104.37455 L722,104.37455 L722,97.9409376 L616,97.9409376 L616,104.37455 Z M723,104.37455 L733,104.37455 L733,97.9409376 L723,97.9409376 L723,104.37455 Z M734,104.37455 L745,104.37455 L745,97.9409376 L734,97.9409376 L734,104.37455 Z M746,104.37455 L757,104.37455 L757,97.9409376 L746,97.9409376 L746,104.37455 Z M-881,33.6048133 L-870,33.6048133 L-870,27.1712008 L-881,27.1712008 L-881,33.6048133 Z M-869,33.6048133 L-857,33.6048133 L-857,27.1712008 L-869,27.1712008 L-869,33.6048133 Z M-856,33.6048133 L-761,33.6048133 L-761,27.1712008 L-856,27.1712008 L-856,33.6048133 Z M-760,33.6048133 L-750,33.6048133 L-750,27.1712008 L-760,27.1712008 L-760,33.6048133 Z M-749,33.6048133 L-738,33.6048133 L-738,27.1712008 L-749,27.1712008 L-749,33.6048133 Z M-737,33.6048133 L-725,33.6048133 L-725,27.1712008 L-737,27.1712008 L-737,33.6048133 Z M-724,33.6048133 L-629,33.6048133 L-629,27.1712008 L-724,27.1712008 L-724,33.6048133 Z M-628,33.6048133 L-618,33.6048133 L-618,27.1712008 L-628,27.1712008 L-628,33.6048133 Z M-617,33.6048133 L-606,33.6048133 L-606,27.1712008 L-617,27.1712008 L-617,33.6048133 Z M-605,33.6048133 L-593,33.6048133 L-593,27.1712008 L-605,27.1712008 L-605,33.6048133 Z M-592,33.6048133 L-497,33.6048133 L-497,27.1712008 L-592,27.1712008 L-592,33.6048133 Z M-496,33.6048133 L-486,33.6048133 L-486,27.1712008 L-496,27.1712008 L-496,33.6048133 Z M-485,33.6048133 L-474,33.6048133 L-474,27.1712008 L-485,27.1712008 L-485,33.6048133 Z M-473,33.6048133 L-461,33.6048133 L-461,27.1712008 L-473,27.1712008 L-473,33.6048133 Z M-460,33.6048133 L-365,33.6048133 L-365,27.1712008 L-460,27.1712008 L-460,33.6048133 Z M-364,33.6048133 L-354,33.6048133 L-354,27.1712008 L-364,27.1712008 L-364,33.6048133 Z M-353,33.6048133 L-342,33.6048133 L-342,27.1712008 L-353,27.1712008 L-353,33.6048133 Z M-341,33.6048133 L-329,33.6048133 L-329,27.1712008 L-341,27.1712008 L-341,33.6048133 Z M-328,33.6048133 L-233,33.6048133 L-233,27.1712008 L-328,27.1712008 L-328,33.6048133 Z M-232,33.6048133 L-222,33.6048133 L-222,27.1712008 L-232,27.1712008 L-232,33.6048133 Z M-221,33.6048133 L-210,33.6048133 L-210,27.1712008 L-221,27.1712008 L-221,33.6048133 Z M-209,33.6048133 L-197,33.6048133 L-197,27.1712008 L-209,27.1712008 L-209,33.6048133 Z M-196,33.6048133 L-101,33.6048133 L-101,27.1712008 L-196,27.1712008 L-196,33.6048133 Z M-100,33.6048133 L-90,33.6048133 L-90,27.1712008 L-100,27.1712008 L-100,33.6048133 Z M-89,33.6048133 L-78,33.6048133 L-78,27.1712008 L-89,27.1712008 L-89,33.6048133 Z M-77,33.6048133 L-66,33.6048133 L-66,27.1712008 L-77,27.1712008 L-77,33.6048133 Z M-65,33.6048133 L30,33.6048133 L30,27.1712008 L-65,27.1712008 L-65,33.6048133 Z M31,33.6048133 L41,33.6048133 L41,27.1712008 L31,27.1712008 L31,33.6048133 Z M42,33.6048133 L53,33.6048133 L53,27.1712008 L42,27.1712008 L42,33.6048133 Z M54,33.6048133 L66,33.6048133 L66,27.1712008 L54,27.1712008 L54,33.6048133 Z M67,33.6048133 L162,33.6048133 L162,27.1712008 L67,27.1712008 L67,33.6048133 Z M163,33.6048133 L173,33.6048133 L173,27.1712008 L163,27.1712008 L163,33.6048133 Z M174,33.6048133 L185,33.6048133 L185,27.1712008 L174,27.1712008 L174,33.6048133 Z M186,33.6048133 L198,33.6048133 L198,27.1712008 L186,27.1712008 L186,33.6048133 Z M199,33.6048133 L295,33.6048133 L295,27.1712008 L199,27.1712008 L199,33.6048133 Z M296,33.6048133 L306,33.6048133 L306,27.1712008 L296,27.1712008 L296,33.6048133 Z M307,33.6048133 L318,33.6048133 L318,27.1712008 L307,27.1712008 L307,33.6048133 Z M319,33.6048133 L330,33.6048133 L330,27.1712008 L319,27.1712008 L319,33.6048133 Z M331,33.6048133 L437,33.6048133 L437,27.1712008 L331,27.1712008 L331,33.6048133 Z M438,33.6048133 L448,33.6048133 L448,27.1712008 L438,27.1712008 L438,33.6048133 Z M449,33.6048133 L460,33.6048133 L460,27.1712008 L449,27.1712008 L449,33.6048133 Z M461,33.6048133 L472,33.6048133 L472,27.1712008 L461,27.1712008 L461,33.6048133 Z M473,33.6048133 L580,33.6048133 L580,27.1712008 L473,27.1712008 L473,33.6048133 Z M581,33.6048133 L591,33.6048133 L591,27.1712008 L581,27.1712008 L581,33.6048133 Z M592,33.6048133 L603,33.6048133 L603,27.1712008 L592,27.1712008 L592,33.6048133 Z M604,33.6048133 L615,33.6048133 L615,27.1712008 L604,27.1712008 L604,33.6048133 Z M616,33.6048133 L722,33.6048133 L722,27.1712008 L616,27.1712008 L616,33.6048133 Z M723,33.6048133 L733,33.6048133 L733,27.1712008 L723,27.1712008 L723,33.6048133 Z M734,33.6048133 L745,33.6048133 L745,27.1712008 L734,27.1712008 L734,33.6048133 Z M746,33.6048133 L757,33.6048133 L757,27.1712008 L746,27.1712008 L746,33.6048133 Z M-893,-14.5450168 L-893,-15 L-892,-15 L-892,-14.5450168 L-892,123.545017 L-892,124 L-893,124 L-893,123.545017 L-893,-14.5450168 Z" id="Combined-Shape"></path>
        </g>
    </g>
</svg>