<?xml version="1.0" encoding="UTF-8"?>
<svg width="20px" height="17px" viewBox="0 0 20 17" version="1.1" xmlns="http://www.w3.org/2000/svg" xmlns:xlink="http://www.w3.org/1999/xlink">
    <!-- Generator: Sketch 42 (36781) - http://www.bohemiancoding.com/sketch -->
    <title>Twitter</title>
    <desc>Created with Sketch.</desc>
    <defs></defs>
    <g id="1-Home" stroke="none" stroke-width="1" fill="none" fill-rule="evenodd">
        <g id="Home" transform="translate(-1460.000000, -4805.000000)" fill="#CBCBC1">
            <g id="Footer" transform="translate(0.000000, 4643.000000)">
                <g id="bottom" transform="translate(0.000000, 139.000000)">
                    <g id="Social" transform="translate(1415.000000, 21.000000)">
                        <g id="Twitter" transform="translate(45.000000, 2.000000)">
                            <path d="M20,2.01249549 C19.2651288,2.35384615 18.4739097,2.58468761 17.6439514,2.68782954 C18.4915185,2.15738534 19.1418677,1.31628747 19.4482597,0.314337306 C18.6546927,0.805489346 17.7777778,1.16280246 16.8409931,1.35435175 C16.0943828,0.520621163 15.0272935,0 13.8463344,0 C11.5818513,0 9.74467336,1.92163236 9.74467336,4.29144095 C9.74467336,4.6278801 9.77989083,4.95449621 9.85032576,5.26883351 C6.44010096,5.08956302 3.4172683,3.38280968 1.3922639,0.783387505 C1.0389153,1.4194294 0.83700182,2.15738534 0.83700182,2.9432286 C0.83700182,4.43141928 1.56130774,5.74525099 2.66244057,6.51513182 C1.99096085,6.49425785 1.35704643,6.29902492 0.802958267,5.97977609 L0.802958267,6.03257494 C0.802958267,8.11260383 2.21752656,9.84759841 4.09579151,10.24052 C3.75183424,10.3412062 3.38909432,10.3915493 3.01461525,10.3915493 C2.75048424,10.3915493 2.49222281,10.3657638 2.24217879,10.3154207 C2.76457123,12.0197183 4.27892235,13.2611051 6.07501321,13.2942579 C4.67101015,14.4460094 2.90074544,15.1323944 0.979045607,15.1323944 C0.648001409,15.1323944 0.320478958,15.1127483 0,15.0734561 C1.81604743,16.2890574 3.97370429,17 6.28983976,17 C13.838117,17 17.9644304,10.4615385 17.9644304,4.78996027 C17.9644304,4.6033225 17.9609086,4.41668472 17.9538651,4.23373059 C18.7556495,3.6283857 19.4517814,2.87323944 20,2.01249549"></path>
                        </g>
                    </g>
                </g>
            </g>
        </g>
    </g>
</svg>